<svg xmlns="http://www.w3.org/2000/svg" viewBox="0 0 593.39 593.39"><defs><style>.cls-1{fill:#FFFFFF;}</style></defs><g id="Capa_2" data-name="Capa 2"><g id="texto"><path class="cls-1" d="M593.29,304.65c.05-2.65.07-5.3.1-7.95h-7c0,2.59-.06,5.17-.11,7.76Z"/><path class="cls-1" d="M585.43,320l-.34,3.87c-.12,1.29-.22,2.59-.38,3.87l7,.75c.16-1.32.27-2.64.39-4l.35-4,.09-1,.06-1,.13-2,.25-4c0-.66.06-1.33.09-2l.08-2,.15-4-7-.19-.15,3.89-.07,1.94c0,.64,0,1.29-.09,1.94l-.25,3.88-.12,1.93-.06,1Z"/><path class="cls-1" d="M582.64,343.14l6.94,1.12c.46-2.62.79-5.25,1.16-7.88l.28-2,.23-2,.45-4-7-.75-.44,3.87-.23,1.93-.26,1.93C583.41,338,583.09,340.59,582.64,343.14Z"/><path class="cls-1" d="M579.75,358.43l-.84,3.8L578,366l6.83,1.68.94-3.87.86-3.9c.27-1.3.57-2.59.83-3.9l.75-3.91.38-2,.18-1,.17-1,.65-3.93-6.94-1.12L582,347l-.16,1-.18.95-.37,1.92-.73,3.82C580.31,355.9,580,357.16,579.75,358.43Z"/><polygon class="cls-1" points="566.01 355.45 559.14 353.95 552.27 352.46 545.4 350.97 544.67 354.31 543.86 357.63 550.69 359.31 557.51 360.98 564.34 362.66 565.22 359.06 566.01 355.45"/><path class="cls-1" d="M564.41,318.31l-7-.56-.31,3.5c-.1,1.16-.2,2.33-.34,3.49h0l-.4,3.49-.2,1.75-.24,1.74c-.34,2.31-.62,4.64-1,6.94l6.94,1.12c.42-2.36.71-4.75,1-7.13l.25-1.79.21-1.79.41-3.58h0c.15-1.19.24-2.39.35-3.59Z"/><path class="cls-1" d="M556.75,324.74c.14-1.16.24-2.33.34-3.49l.31-3.5,7,.56-.32,3.59c-.11,1.2-.2,2.39-.35,3.59l7,.74c.15-1.22.25-2.45.36-3.68l.33-3.68,7,.55.08-.94.06-1,.12-1.89.24-3.78-7-.37-7-.38-7-.37-7-.37-7-.37-.21,3.32-.11,1.66,0,.83-.07.82,7,.56-.3,3.41c-.1,1.13-.19,2.27-.33,3.4Z"/><path class="cls-1" d="M552.27,352.46l6.87,1.49,6.87,1.5-.79,3.61-.88,3.6,6.83,1.68.9-3.69.81-3.71c.26-1.24.55-2.47.79-3.71l.72-3.73.36-1.86.17-.94.16-.93.62-3.75,6.94,1.12c.45-2.55.77-5.13,1.14-7.69l.26-1.93.23-1.93.44-3.87-7-.74-.43,3.77-.22,1.88-.26,1.88-7-.93c-.35,2.44-.65,4.89-1.08,7.32l-.61,3.65-.15.92-.17.91-.35,1.81-6.91-1.3-6.9-1.31-6.91-1.3.32-1.68.16-.84.14-.84.56-3.38c.4-2.24.67-4.5,1-6.76l-7-.93.23-1.64.19-1.66.38-3.3-7-.74-.37,3.21-.18,1.6-.22,1.6c-.31,2.13-.57,4.27-1,6.39l6.94,1.12-.54,3.27-.14.82-.16.82-.31,1.63-.62,3.26c-.22,1.09-.47,2.17-.7,3.25l-.71,3.24L537,356l6.83,1.68.81-3.32.73-3.34Z"/><path class="cls-1" d="M551.12,303.54l7,.18,7,.19,7,.18,7,.19,7,.18c0-2.58.07-5.17.1-7.76h-49.2l-.09,6.47,7,.18Z"/><polygon class="cls-1" points="530.13 296.7 530.04 302.98 537.07 303.17 537.16 296.7 530.13 296.7"/><path class="cls-1" d="M536.81,309.63c0-.54.05-1.08.08-1.62l.06-1.61.12-3.23-7-.19-.12,3.14-.06,1.57c0,.52,0,1.05-.07,1.57l-.2,3.13-.1,1.56,0,.79-.07.78-.28,3.12c-.09,1-.17,2.09-.3,3.12l7,.75c.13-1.07.22-2.14.31-3.22l.29-3.21.07-.81,0-.81.11-1.61Z"/><path class="cls-1" d="M535.78,322.51l-7-.75-.36,3.12-.17,1.56L528,328c-.3,2.06-.55,4.14-.92,6.2l6.94,1.12c.38-2.12.63-4.26.94-6.39l.23-1.6.18-1.6Z"/><path class="cls-1" d="M526,340.36l-.59,3.07c-.2,1-.44,2-.66,3.07l-.66,3.06-.75,3,6.83,1.67.76-3.13.69-3.15c.23-1.05.47-2.1.68-3.16l.61-3.17.3-1.58.15-.79.13-.8.53-3.18-6.94-1.12-.51,3.09-.13.77-.15.77Z"/><path class="cls-1" d="M582.81,375.41l1-3.85c.18-.64.34-1.29.5-1.93l.47-1.94L578,366l-.46,1.89c-.15.63-.3,1.26-.48,1.89l-1,3.76Z"/><path class="cls-1" d="M571.52,388.44c-.39,1.24-.84,2.46-1.27,3.68L569,395.79l6.6,2.41,1.33-3.76c.44-1.26.9-2.51,1.29-3.77l1.24-3.8L580,385l.57-1.91c.75-2.55,1.54-5.09,2.21-7.66L576,373.55c-.65,2.51-1.42,5-2.16,7.48l-.55,1.86-.6,1.85Z"/><path class="cls-1" d="M563.24,410.27,569.7,413l.4-.92.38-.92.75-1.84,1.51-3.7,1.42-3.72c.47-1.24,1-2.48,1.4-3.73l-6.6-2.41c-.44,1.22-.92,2.43-1.37,3.65l-1.39,3.63-1.47,3.6-.74,1.81-.37.9Z"/><path class="cls-1" d="M556.74,424.41,555,427.89c-.29.58-.59,1.16-.89,1.73l-.91,1.72,6.22,3.27.93-1.76c.31-.59.62-1.17.91-1.77l1.78-3.57.88-1.78c.3-.6.57-1.2.85-1.8l1.69-3.62c.28-.6.57-1.2.84-1.8l.8-1.83L569.7,413l-6.46-2.76-1.56,3.56-.78,1.79c-.26.59-.55,1.17-.82,1.76l-1.64,3.53c-.28.58-.55,1.18-.84,1.76Z"/><path class="cls-1" d="M544.12,418.2l-6.3-3.1-6.31-3.1-6.31-3.11L523.68,412c-.25.52-.51,1-.78,1.52l-.8,1.51,6.22,3.27,6.22,3.28,6.23,3.27.86-1.64c.29-.54.58-1.09.85-1.64Z"/><path class="cls-1" d="M551.51,381.77l-6.67-2.23c-.34,1.12-.75,2.22-1.14,3.32l-1.16,3.31h0c-.4,1.11-.83,2.19-1.24,3.29l-1.25,3.28L538.72,396l-.66,1.63-.34.81-.35.81,6.47,2.75.36-.82.34-.84.68-1.67,1.37-3.34,1.28-3.37c.42-1.12.87-2.24,1.27-3.37h0l1.2-3.4C550.74,384,551.15,382.91,551.51,381.77Z"/><path class="cls-1" d="M542.54,386.17l1.16-3.31c.39-1.1.8-2.2,1.14-3.32l6.67,2.23c-.36,1.14-.77,2.27-1.17,3.41l-1.2,3.4,6.61,2.4,1.23-3.49c.4-1.16.83-2.32,1.2-3.5l6.67,2.23,1.17-3.61.59-1.81.54-1.82-6.73-2-6.72-2.05-6.73-2-6.72-2-6.73-2.05-.47,1.59-.52,1.58-1,3.16,6.67,2.23c-.34,1.08-.74,2.15-1.11,3.23l-1.14,3.22Z"/><path class="cls-1" d="M531.51,412l6.31,3.1,6.3,3.1-1.64,3.32c-.27.55-.56,1.1-.85,1.64l-.86,1.64,6.22,3.27.88-1.68c.3-.56.6-1.12.87-1.69l1.69-3.39.85-1.7c.28-.57.54-1.15.81-1.72l1.6-3.44c.27-.57.55-1.14.8-1.72l.76-1.74,1.52-3.48,6.47,2.76.38-.89.37-.9.74-1.81,1.47-3.6,1.39-3.63c.45-1.22.93-2.43,1.37-3.65l-6.61-2.4c-.42,1.19-.89,2.37-1.33,3.55l-1.36,3.55-6.53-2.58-1.4,3.42-.7,1.72-.35.85-.37.85-1.49,3.39-.74,1.7c-.25.56-.52,1.12-.77,1.68l-6.39-2.93-6.39-2.93-6.39-2.94c.24-.51.49-1,.71-1.55l.69-1.56,1.37-3.13.34-.79.32-.79.65-1.58,1.29-3.16L527,387.58l1.18-3.11c.39-1,.8-2.06,1.18-3.11l-6.61-2.4c-.36,1-.76,2-1.14,3l-1.14,3-1.23,3-.61,1.49-.3.75L518,391l6.46,2.76-1.33,3-.67,1.52c-.22.51-.46,1-.69,1.51l-1.41,3c-.23.5-.46,1-.71,1.5l-.74,1.49-1.47,3c-.25.5-.51,1-.77,1.48l-.77,1.47L522.1,415l.8-1.51c.26-.5.53-1,.78-1.52l1.52-3.06Z"/><path class="cls-1" d="M542.14,364.24l6.78,1.86L555.7,368l6.78,1.86,6.78,1.87,6.77,1.86,1-3.76q.26-.94.48-1.89L578,366l-6.82-1.67-6.83-1.68L557.51,361l-6.82-1.67-6.83-1.68L537,356l-6.82-1.68-.38,1.57c-.13.52-.25,1.05-.4,1.57l-.84,3.11,6.77,1.86Z"/><path class="cls-1" d="M523.38,352.6l-.37,1.52c-.12.51-.24,1-.39,1.52l-.81,3,6.77,1.86.85-3.11c.14-.52.27-1.05.4-1.57l.38-1.57Z"/><path class="cls-1" d="M526.8,366.72c.6-2.07,1.25-4.12,1.79-6.2l-6.78-1.86c-.52,2-1.15,4-1.74,6l-.45,1.5-.48,1.49-1,3c-.31,1-.67,2-1,3l-1,3,6.6,2.4,1.07-3c.36-1,.73-2,1.05-3.05l1-3.07.5-1.54Z"/><path class="cls-1" d="M522.72,379l-6.6-2.4c-.36,1-.74,1.95-1.11,2.93l-1.11,2.92-1.19,2.9-.59,1.45-.3.72-.31.72L518,391l.32-.74.3-.75.61-1.49,1.22-3,1.15-3C522,381,522.36,380,522.72,379Z"/><path class="cls-1" d="M509,393.93l-1.32,2.84c-.23.47-.44,1-.67,1.41l-.7,1.4-1.39,2.81c-.23.47-.48.93-.72,1.39l-.73,1.39,6.22,3.27.75-1.43c.25-.47.51-.95.74-1.43l1.44-2.89.72-1.45c.24-.48.45-1,.69-1.46l1.36-2.92c.23-.49.46-1,.68-1.46l.64-1.48,1.3-3-6.47-2.76-1.25,2.87-.63,1.44C509.42,393,509.19,393.45,509,393.93Z"/><polygon class="cls-1" points="555.63 441.62 557.57 438.14 559.43 434.61 553.21 431.34 551.39 434.78 549.5 438.18 555.63 441.62"/><path class="cls-1" d="M541.53,451.54c-.35.55-.68,1.1-1,1.64l-1.07,1.63-2.14,3.25,5.84,3.92,2.19-3.33L546.4,457c.37-.56.71-1.13,1.07-1.69l2.11-3.38c.34-.56.71-1.12,1-1.69l1-1.71,2-3.43c.35-.57.67-1.15,1-1.73l1-1.74-6.14-3.44-1,1.7c-.31.56-.63,1.13-1,1.68l-2,3.35-1,1.68c-.33.56-.68,1.1-1,1.65Z"/><path class="cls-1" d="M528.27,470.73l5.61,4.23.61-.8.58-.8,1.18-1.61,2.34-3.22,2.28-3.27,1.13-1.64c.38-.54.76-1.08,1.12-1.64l-5.84-3.92c-.35.54-.72,1.07-1.09,1.61l-1.11,1.59-2.21,3.2-2.29,3.14-1.15,1.57-.57.79Z"/><path class="cls-1" d="M518.58,482.89l-2.51,3c-.84,1-1.71,1.94-2.57,2.92l5.26,4.66c.88-1,1.77-2,2.63-3l2.57-3c1.74-2,3.38-4.1,5-6.16l1.24-1.55,1.21-1.58,2.42-3.16-5.61-4.23-2.37,3.08-1.18,1.55c-.4.51-.81,1-1.22,1.51C521.87,478.89,520.27,480.93,518.58,482.89Z"/><path class="cls-1" d="M507.82,473.85l-5.39-4.52-5.38-4.52-5.38-4.52-2.21,2.61c-.74.86-1.51,1.7-2.26,2.56l5.26,4.66,5.26,4.67,5.26,4.66c.82-.93,1.65-1.84,2.45-2.78Z"/><path class="cls-1" d="M523.72,440.25l-5.94-3.76c-.31.49-.61,1-.94,1.49l-1,1.46L514,442.38h0c-.32.49-.66,1-1,1.45l-1,1.44-2,2.89L507.89,451l-1,1.42-.52.71-.53.7,5.62,4.23.54-.72.54-.73,1.06-1.45,2.12-2.92,2.06-3,1-1.48c.34-.5.68-1,1-1.49h0l2-3,1-1.5C523.09,441.28,523.39,440.76,523.72,440.25Z"/><path class="cls-1" d="M514,442.38l1.93-2.94,1-1.47c.33-.48.63-1,.94-1.48l5.94,3.76c-.32.51-.63,1-1,1.53l-1,1.5-2,3,5.84,3.92,2-3.09,1-1.55c.34-.51.66-1,1-1.56l5.93,3.76,2-3.22c.33-.54.68-1.07,1-1.61l1-1.64-6-3.6-6-3.6-6-3.6-6-3.61-6-3.6-.84,1.43c-.28.48-.59.94-.88,1.42L505.9,429l5.94,3.77c-.3.48-.59,1-.91,1.44L510,435.6l-1.88,2.85Z"/><path class="cls-1" d="M497.05,464.81l5.38,4.52,5.39,4.52-2.39,2.82c-.8.94-1.63,1.85-2.45,2.78l5.26,4.66c.84-.95,1.69-1.88,2.51-2.84l2.45-2.9c1.65-1.91,3.21-3.9,4.8-5.87.4-.49.8-1,1.19-1.48l1.15-1.51,2.31-3,5.62,4.23.59-.77.57-.79,1.15-1.57,2.29-3.14,2.21-3.2,1.11-1.6c.37-.53.74-1.06,1.09-1.6l-5.83-3.92c-.34.53-.71,1.05-1.07,1.57l-1.08,1.56-2.16,3.11-5.73-4.07-2.18,3-1.09,1.49-.54.75-.57.73-2.25,2.94-1.12,1.47c-.38.49-.77,1-1.16,1.44l-5.5-4.37-5.5-4.38L496,455c.35-.45.72-.89,1.06-1.34l1-1.35,2.08-2.72.52-.68.51-.69,1-1.38,2-2.76L498.5,440l1.89-2.74.95-1.36c.32-.46.64-.91.94-1.38l-5.84-3.92c-.29.46-.6.9-.91,1.34l-.92,1.33-1.84,2.65-1.9,2.61-.95,1.3-.48.66-.49.64,5.62,4.23-2,2.63-1,1.32c-.34.44-.69.87-1,1.3-1.39,1.72-2.75,3.47-4.21,5.14l-2.14,2.54c-.72.85-1.47,1.66-2.2,2.5l5.26,4.66c.75-.86,1.52-1.7,2.26-2.56l2.21-2.62Z"/><polygon class="cls-1" points="518.84 420.99 524.97 424.43 531.1 427.87 537.23 431.3 543.37 434.74 549.49 438.18 551.39 434.78 553.21 431.34 546.99 428.07 540.77 424.8 534.54 421.53 528.32 418.25 522.1 414.98 515.88 411.71 509.66 408.44 508.15 411.3 506.58 414.11 512.71 417.55 518.84 420.99"/><polygon class="cls-1" points="503.44 405.17 501.98 407.94 500.44 410.67 506.58 414.11 508.15 411.3 509.66 408.44 503.44 405.17"/><path class="cls-1" d="M503.34,419.7l1.65-2.78c.28-.46.54-.93.8-1.4l.79-1.41-6.14-3.44-.76,1.37c-.25.46-.5.92-.78,1.36l-1.59,2.7-.8,1.35c-.26.45-.55.89-.82,1.33L494,421.44c-.28.44-.55.89-.84,1.33l-.86,1.3-1.72,2.62,5.83,3.92,1.78-2.69.89-1.35c.29-.45.57-.91.86-1.37l1.71-2.74c.28-.45.57-.9.84-1.37Z"/><path class="cls-1" d="M496.44,430.61l-5.83-3.92c-.29.44-.59.87-.89,1.3l-.89,1.29-1.78,2.58-1.85,2.53-.93,1.26-.46.64-.47.62,5.61,4.23.49-.64.48-.66.95-1.3,1.9-2.61,1.84-2.65.92-1.33C495.84,431.51,496.15,431.07,496.44,430.61Z"/><path class="cls-1" d="M479.49,441.87c-1.32,1.62-2.6,3.27-4,4.85l-2,2.4c-.68.79-1.39,1.56-2.08,2.35l5.26,4.66c.71-.8,1.44-1.6,2.14-2.42l2.08-2.47c1.41-1.62,2.74-3.32,4.09-5,.34-.43.68-.84,1-1.27l1-1.28,2-2.56-5.61-4.23-1.91,2.49-1,1.25C480.15,441.06,479.82,441.46,479.49,441.87Z"/><path class="cls-1" d="M513.4,499.33l2.71-2.92c.89-1,1.77-2,2.65-3l-5.26-4.66c-.86,1-1.72,1.94-2.59,2.9l-2.64,2.85Z"/><path class="cls-1" d="M497.35,505.6c-.92.91-1.88,1.78-2.82,2.67l-2.85,2.64,4.73,5.2,2.92-2.71c1-.91,1.95-1.8,2.89-2.73l2.85-2.78,1.42-1.4,1.4-1.42c1.85-1.9,3.72-3.78,5.51-5.74l-5.13-4.8c-1.75,1.91-3.58,3.75-5.39,5.6l-1.36,1.39-1.39,1.36Z"/><path class="cls-1" d="M479.9,521.07l4.45,5.44c1-.83,2-1.69,3.06-2.55l3-2.57c1-.86,2-1.75,3-2.63s2-1.76,3-2.65l-4.73-5.2c-1,.87-1.94,1.73-2.9,2.59s-1.93,1.73-2.92,2.57l-3,2.51C481.9,519.42,480.92,520.26,479.9,521.07Z"/><path class="cls-1" d="M467.6,530.58l-3.14,2.29-3.2,2.21,4,5.79,3.27-2.28,3.22-2.34,1.61-1.18.8-.58.8-.61,3.16-2.42,1.57-1.21c.53-.41,1-.83,1.56-1.24l3.1-2.5-4.45-5.44-3,2.43c-.5.41-1,.82-1.51,1.22l-1.55,1.18-3.08,2.37-.77.59-.79.57Z"/><polygon class="cls-1" points="459.3 519.23 455.14 513.56 450.99 507.89 446.84 502.21 444.08 504.23 441.27 506.18 445.27 511.96 449.27 517.74 453.27 523.52 456.31 521.41 459.3 519.23"/><path class="cls-1" d="M482.74,490.39l-4.87-5.07c-.83.83-1.7,1.61-2.55,2.41l-2.57,2.39h0c-.87.79-1.75,1.56-2.63,2.34s-1.74,1.56-2.63,2.32l-2.68,2.27c-.9.76-1.78,1.52-2.7,2.25l4.45,5.44c.94-.75,1.85-1.53,2.77-2.31l2.75-2.33c.92-.77,1.8-1.59,2.71-2.38s1.8-1.59,2.69-2.4h0l2.64-2.45C481,492,481.89,491.24,482.74,490.39Z"/><path class="cls-1" d="M472.75,490.12l2.57-2.39c.85-.8,1.72-1.58,2.55-2.41l4.87,5.07c-.85.85-1.74,1.65-2.62,2.48l-2.64,2.45,4.73,5.2,2.71-2.52c.9-.85,1.82-1.67,2.69-2.54l4.87,5.07,2.72-2.65,1.35-1.33,1.33-1.35-5-4.94-5-4.94-5-4.94-5-4.93-5-4.94-1.16,1.19-1.19,1.16-2.38,2.32,4.87,5.07c-.8.81-1.66,1.57-2.48,2.35L468,484.93Z"/><path class="cls-1" d="M451,507.89l4.16,5.67,4.15,5.67-3,2.18-3,2.11,4,5.78,3.11-2.16,3.07-2.24,1.53-1.11.77-.56.75-.58,3-2.31,1.51-1.15c.5-.39,1-.79,1.48-1.19l2.95-2.38,4.45,5.45c1-.81,2-1.65,3-2.49l3-2.51c1-.84,1.94-1.71,2.92-2.57s1.94-1.72,2.9-2.59L487,505.72c-.94.85-1.89,1.68-2.84,2.52s-1.88,1.69-2.84,2.51l-4.59-5.32-2.83,2.39c-.94.79-1.88,1.6-2.85,2.36l-2.88,2.32c-.48.39-.95.78-1.44,1.16l-1.47,1.12-4.3-5.56-4.3-5.56-4.31-5.56,1.36-1c.45-.35.89-.72,1.33-1.07l2.67-2.15c.89-.7,1.75-1.45,2.63-2.18l2.61-2.21-4.6-5.32c.85-.72,1.66-1.47,2.5-2.2l2.48-2.21-4.73-5.2c-.8.73-1.61,1.43-2.42,2.15s-1.6,1.44-2.42,2.14l-2.47,2.08c-.82.7-1.63,1.4-2.48,2.07l4.45,5.44-2.59,2.08c-.43.35-.86.7-1.3,1l-1.32,1-2.64,2-.66.5-.67.49-1.34,1-2.68,2-2.74,1.89,4,5.79,2.81-1.95,2.76-2Z"/><path class="cls-1" d="M482.6,470.52l5.13,4.8,5.14,4.8,5.13,4.8,5.13,4.8,5.14,4.81,2.64-2.85c.87-1,1.73-1.94,2.59-2.9l-5.26-4.67L503,479.45l-5.26-4.66-5.26-4.67-5.26-4.66-5.26-4.66-5.26-4.67c-.72.81-1.42,1.62-2.15,2.42l-2.2,2.36,5.13,4.8Z"/><path class="cls-1" d="M471.42,451.47c-.7.78-1.38,1.57-2.08,2.34l-2.14,2.3,5.13,4.8,2.2-2.36c.73-.8,1.43-1.61,2.15-2.42Z"/><path class="cls-1" d="M467.86,465.57c1.5-1.54,3-3.06,4.47-4.66l-5.13-4.8c-1.41,1.55-2.89,3-4.35,4.53l-1.09,1.12-1.12,1.09L458.39,465c-.74.75-1.52,1.44-2.28,2.16l-2.3,2.14,4.74,5.19,2.36-2.2c.79-.74,1.59-1.45,2.35-2.22l2.31-2.25,1.16-1.13Z"/><path class="cls-1" d="M458.55,474.53l-4.74-5.19c-.77.7-1.56,1.38-2.34,2.08s-1.56,1.4-2.35,2.08l-2.4,2c-.8.67-1.59,1.36-2.41,2l4.45,5.44c.85-.67,1.66-1.37,2.48-2.07l2.47-2.08c.82-.7,1.61-1.43,2.42-2.14S457.75,475.26,458.55,474.53Z"/><path class="cls-1" d="M439.4,481.43l-2.49,1.91-.62.47-.63.46-1.27.93L431.86,487l-2.58,1.79,4,5.78,2.65-1.84,2.61-1.9,1.31-.95.65-.48.64-.49,2.56-2,1.28-1c.43-.33.84-.68,1.26-1l2.52-2-4.45-5.44-2.44,2c-.41.33-.81.66-1.23,1Z"/><path class="cls-1" d="M458.65,545.31l3.33-2.19c.56-.36,1.1-.74,1.64-1.12l1.64-1.13-4-5.79-1.59,1.11c-.54.37-1.07.74-1.61,1.09l-3.25,2.14Z"/><path class="cls-1" d="M441.56,547.58c-.55.33-1.12.65-1.68,1l-1.7,1-3.4,1.9,3.36,6.18,3.48-1.94,1.74-1c.58-.32,1.16-.64,1.73-1l3.42-2,1.72-1c.57-.33,1.13-.69,1.69-1l3.38-2.11c.56-.36,1.13-.7,1.69-1.07l1.66-1.09-3.84-5.89-1.63,1.07c-.54.36-1.09.69-1.64,1l-3.3,2.06-1.65,1-1.68,1Z"/><path class="cls-1" d="M420.91,558.44l3,6.35c.6-.29,1.2-.56,1.8-.86l1.78-.88,3.57-1.78c.6-.29,1.18-.6,1.77-.91l1.76-.93,3.53-1.86-3.36-6.18-3.44,1.82-1.72.91c-.57.3-1.14.6-1.73.89l-3.48,1.73-1.74.86C422.09,557.9,421.49,558.16,420.91,558.44Z"/><path class="cls-1" d="M406.68,564.73l-3.61,1.47-3.63,1.39,2.49,6.57,3.72-1.42,3.7-1.51,1.84-.75.92-.38.92-.4,3.65-1.59,1.82-.8c.61-.27,1.21-.56,1.81-.84l3.62-1.68-3-6.35-3.53,1.64c-.59.27-1.17.56-1.77.82l-1.78.78-3.56,1.56-.89.38-.9.37Z"/><polygon class="cls-1" points="401.33 551.73 398.66 545.22 395.99 538.72 393.32 532.22 390.16 533.51 386.97 534.73 389.46 541.3 391.95 547.87 394.45 554.44 397.91 553.13 401.33 551.73"/><path class="cls-1" d="M431,529.33l-3.52-6.09c-.5.3-1,.59-1.52.87l-1.53.86-3.07,1.71h0l-3.11,1.64-1.55.82c-.52.28-1,.55-1.56.81L412,531.51l-1.58.78c-.52.26-1.05.5-1.58.75l3,6.35c.55-.26,1.1-.5,1.63-.77l1.62-.8,3.23-1.61c.54-.26,1.07-.54,1.6-.82l1.6-.85,3.19-1.68h0l3.14-1.76,1.58-.88C430,529.93,430.49,529.64,431,529.33Z"/><path class="cls-1" d="M421.36,526.68l3.07-1.71,1.53-.86c.51-.28,1-.57,1.52-.87l3.52,6.09c-.51.31-1,.6-1.56.89l-1.58.88-3.14,1.76,3.35,6.18,3.23-1.81,1.62-.9c.54-.3,1.08-.6,1.6-.92l3.53,6.09,3.26-1.93,1.63-1c.55-.32,1.08-.67,1.62-1l-3.68-6-3.69-6-3.68-6-3.68-6-3.68-6c-.48.29-.94.6-1.42.88l-1.43.84-2.86,1.69,3.52,6.09c-.48.29-1,.57-1.48.84l-1.49.84-3,1.67Z"/><path class="cls-1" d="M396,538.72l2.67,6.5,2.67,6.51-3.42,1.39-3.46,1.32,2.49,6.58,3.55-1.36,3.52-1.43,1.75-.72.88-.36.87-.38,3.48-1.52,1.74-.76c.58-.25,1.15-.53,1.72-.79l3.44-1.61,3,6.35c.58-.28,1.18-.55,1.76-.84l1.74-.86,3.48-1.73c.59-.29,1.16-.59,1.73-.89l1.72-.91,3.44-1.82-3.35-6.17L428.07,547l-1.68.88c-.56.3-1.12.6-1.68.87l-3.19-6.26-3.32,1.64-1.65.83c-.56.28-1.12.52-1.68.79l-3.35,1.57-1.68.77-1.7.74-2.84-6.42L402.45,536l-2.84-6.43,1.56-.69c.52-.22,1-.47,1.55-.71l3.1-1.45c.51-.24,1-.47,1.54-.73l1.53-.76,3.06-1.52-3.19-6.27c.5-.24,1-.5,1.48-.76l1.47-.77,2.94-1.55-3.35-6.18-2.86,1.51-1.43.75c-.47.25-.95.51-1.43.74l-2.89,1.44-1.45.72c-.48.24-1,.45-1.46.69l3,6.34-3,1.41-1.51.7-1.52.66-3,1.33-.76.33-.77.32-1.54.62L387.58,527l-3.11,1.18,2.5,6.58,3.19-1.22,3.16-1.29Z"/><path class="cls-1" d="M435.6,510l3.84,5.89,3.84,5.88,3.85,5.89,3.84,5.89,3.84,5.88,3.25-2.14c.54-.35,1.07-.72,1.6-1.09l1.6-1.11-4-5.78-4-5.78-4-5.78-4-5.78-4-5.78-4-5.79-4-5.78-1.33.92c-.44.31-.88.62-1.34.91l-2.69,1.78,3.84,5.88Z"/><path class="cls-1" d="M429.28,488.83l-1.29.89c-.43.3-.86.6-1.3.89l-2.62,1.72,3.85,5.89,2.69-1.78c.46-.29.9-.6,1.34-.91l1.33-.92Z"/><path class="cls-1" d="M422.46,501.68,425.2,500l1.37-.86,1.35-.89-3.85-5.89-1.3.86c-.44.29-.89.56-1.33.84l-2.66,1.66c-.44.27-.88.56-1.33.82l-1.35.8-2.7,1.59c-.44.28-.9.53-1.36.78l-1.37.76L407.94,502l3.36,6.17,2.81-1.57,1.41-.79c.47-.26.94-.52,1.4-.8l2.78-1.64,1.39-.82C421.56,502.25,422,502,422.46,501.68Z"/><path class="cls-1" d="M411.29,508.15,407.94,502l-2.77,1.46-1.39.73c-.46.24-.92.49-1.39.72l-2.81,1.39-1.4.7c-.46.23-.94.44-1.41.67l3,6.34c.49-.23,1-.44,1.46-.68l1.45-.72,2.89-1.44c.48-.23,1-.49,1.43-.74l1.43-.75Z"/><path class="cls-1" d="M391.07,510.26l-2.87,1.25-.71.31-.73.3-1.45.59-2.9,1.19L379.49,515l2.49,6.57,3-1.14,3-1.23,1.49-.61.75-.3L391,518l3-1.3,1.47-.64c.5-.22,1-.45,1.47-.68l2.92-1.36-3-6.35L393.93,509l-1.42.66Z"/><path class="cls-1" d="M394.44,576.89l3.76-1.33c1.25-.44,2.49-.93,3.73-1.4l-2.49-6.57c-1.22.45-2.43.93-3.65,1.37l-3.67,1.29Z"/><path class="cls-1" d="M377.29,575c-1.24.39-2.49.71-3.74,1l-3.76,1,1.77,6.8,3.85-1c1.28-.35,2.57-.68,3.84-1.07l3.82-1.14L385,580l1.89-.61c2.53-.83,5.07-1.62,7.57-2.53l-2.32-6.64c-2.44.89-4.91,1.66-7.38,2.47l-1.85.6-1.87.56Z"/><path class="cls-1" d="M354.63,580.56l1.39,6.89c2.61-.54,5.2-1.12,7.8-1.69l3.87-.94,1.94-.47c.64-.16,1.29-.32,1.93-.5l-1.77-6.8c-.63.18-1.26.33-1.89.48L366,578l-3.78.92C359.7,579.47,357.17,580,354.63,580.56Z"/><path class="cls-1" d="M339.3,583.24l-3.85.54-1.93.26-1.93.23.84,7,2-.23,2-.28,3.94-.55c1.32-.17,2.63-.39,3.94-.61l3.93-.65,1-.17,1-.18,2-.38,3.91-.75-1.39-6.89-3.83.74-1.91.36-.95.18-1,.16-3.84.64C341.86,582.85,340.58,583.07,339.3,583.24Z"/><polygon class="cls-1" points="337.25 569.33 336.22 562.38 335.19 555.42 334.17 548.47 330.78 548.94 329.09 549.18 327.39 549.37 328.23 556.35 329.07 563.33 329.91 570.31 331.75 570.1 333.58 569.84 337.25 569.33"/><path class="cls-1" d="M371.44,554.73l-2-6.76c-1.11.35-2.25.64-3.38.95l-3.39.92h0c-.56.16-1.13.29-1.7.43l-1.7.42-3.42.83c-2.28.5-4.57,1-6.86,1.49l1.4,6.89,7.05-1.53,3.5-.86,1.75-.42c.59-.15,1.17-.29,1.75-.45h0l3.48-.94C369.12,555.38,370.29,555.08,371.44,554.73Z"/><path class="cls-1" d="M362.71,549.84l3.39-.92c1.13-.31,2.27-.6,3.38-.95l2,6.76c-1.15.35-2.32.65-3.48,1l-3.48.94,1.77,6.8,3.58-1c1.19-.33,2.38-.64,3.56-1l1.95,6.75,3.64-1.08,1.82-.54,1.8-.59-2.13-6.7-2.13-6.69-2.14-6.7-2.13-6.7-2.14-6.7-1.58.52-1.59.47-3.18,1,1.95,6.75c-1.09.34-2.19.62-3.29.92l-3.3.89Z"/><path class="cls-1" d="M335.2,555.42l1,7,1,7-3.67.51-1.83.26-1.84.21.84,7,1.88-.22,1.88-.26,3.76-.53c1.26-.16,2.5-.37,3.75-.58l3.75-.62.93-.16.93-.17,1.87-.36,3.73-.72,1.4,6.89c2.53-.53,5.07-1.09,7.6-1.65L366,578l1.89-.46q.94-.22,1.89-.48l-1.77-6.8c-.61.17-1.22.32-1.84.47l-1.84.45-3.69.9-1.59-6.85c-2.41.53-4.82,1.06-7.23,1.57l-3.64.69-1.82.35-.9.17-.92.16-1.21-6.93-1.21-6.92-1.22-6.93.85-.14.84-.16,1.67-.32,3.36-.64c2.23-.47,4.45-1,6.68-1.45l-1.59-6.85L356,537l1.61-.39c.54-.13,1.08-.26,1.61-.41l-1.76-6.8c-.52.15-1.05.27-1.57.4l-1.57.38-3.13.76c-2.1.46-4.2.93-6.31,1.37l1.4,6.89-3.26.62-1.63.32-.82.15-.82.14-3.27.54c-1.1.18-2.19.37-3.29.51l-3.29.46-1.64.23-1.65.19.83,7,1.7-.19,1.69-.24,3.39-.47Z"/><path class="cls-1" d="M380.55,537.07l2.31,6.63,2.32,6.64,2.31,6.64,2.32,6.64,2.31,6.63,3.67-1.29c1.22-.44,2.43-.92,3.65-1.37l-2.5-6.57-2.49-6.57-2.5-6.58-2.49-6.57L387,534.73l-2.5-6.58L382,521.58c-1,.38-2,.78-3,1.14l-3,1.07,2.31,6.64Z"/><path class="cls-1" d="M379.49,515c-1,.37-1.95.75-2.93,1.11l-3,1,2.32,6.64,3-1.07c1-.36,2-.76,3-1.14Z"/><path class="cls-1" d="M369.8,525.84c2-.67,4.1-1.31,6.12-2.05l-2.32-6.64c-2,.72-4,1.34-5.94,2l-1.49.48-1.5.45-3,.89c-1,.31-2,.57-3,.85l-3,.82,1.77,6.8,3.11-.84c1-.29,2.08-.55,3.11-.87l3.09-.92,1.54-.46Z"/><path class="cls-1" d="M357.41,529.43l-1.77-6.81c-.51.15-1,.27-1.52.39l-1.52.37-3,.74c-2,.45-4.08.9-6.13,1.33l1.4,6.89c2.11-.44,4.21-.91,6.31-1.37l3.13-.76,1.57-.38C356.36,529.7,356.89,529.58,357.41,529.43Z"/><path class="cls-1" d="M337.28,526.61l-3.09.51c-1,.17-2.06.35-3.1.48L328,528l-1.55.22-1.56.17.84,7,1.6-.18,1.6-.22,3.2-.45c1.07-.14,2.13-.32,3.19-.5l3.18-.53.8-.13.79-.15,1.58-.3,3.17-.61-1.4-6.89-3.07.59-1.54.29-.77.15Z"/><path class="cls-1" d="M324.51,592.09c2.64-.21,5.28-.55,7.92-.84l-.84-7c-2.58.28-5.15.62-7.74.82Z"/><path class="cls-1" d="M308.35,586.11l-3.89.15c-1.29,0-2.58,0-3.88.06l.09,7,4-.06,4-.15,2-.08c.66,0,1.33,0,2-.09l4-.25,2-.13,1-.06,1-.09,4-.35-.66-7-3.87.34-1,.09-1,.06-1.94.12-3.87.25-1.94.09Z"/><path class="cls-1" d="M285.05,586.11l-.28,7,4,.15c1.32,0,2.65,0,4,.06l4,0,4,0-.09-7-3.88,0-3.89,0-3.88-.06Z"/><path class="cls-1" d="M269.54,585.09c-2.58-.21-5.16-.54-7.73-.82l-.84,7c2.64.29,5.27.63,7.92.84l4,.35,1,.09,1,.06,2,.13,4,.25c.66,0,1.32.06,2,.09l2,.08.28-7-1.94-.07c-.65,0-1.3,0-1.94-.09l-3.88-.25-1.94-.12-1-.06-1-.09Z"/><path class="cls-1" d="M270.84,571.09l.65-7,.66-7,.65-7c-2.27-.17-4.53-.47-6.8-.72l-.84,7-.84,7-.84,7C265.94,570.58,268.38,570.9,270.84,571.09Z"/><path class="cls-1" d="M307.51,565l-.28-7-3.51.13c-1.17,0-2.34,0-3.51.05h0l-3.51,0-3.52,0c-1.17,0-2.34,0-3.51-.05l-3.51-.13-.28,7,3.61.14c1.2,0,2.4,0,3.6.05l3.61,0,3.6,0h0c1.2,0,2.41,0,3.61-.05Z"/><path class="cls-1" d="M300.21,558.2c1.17,0,2.34,0,3.51-.05l3.51-.13.28,7-3.6.14c-1.2,0-2.41,0-3.61.05l.1,7c1.23,0,2.46,0,3.69,0l3.7-.14.28,7L310,579c.63,0,1.26,0,1.9-.09l3.78-.24-.47-7-.46-7-.46-7-.47-7-.46-7-3.32.21c-.55,0-1.11,0-1.66.08l-1.66.06.27,7-3.41.13c-1.14,0-2.28,0-3.42,0Z"/><path class="cls-1" d="M272.15,557.09l-.65,7-.66,7c-2.46-.19-4.9-.51-7.35-.78l-.84,7c2.51.28,5,.6,7.54.8l3.78.34.94.08.95.06,1.89.12,3.79.24c.63.05,1.26.06,1.89.09l1.9.07-.28,7,3.88.15,3.88.06,3.89,0,3.88,0-.09-7-3.79.05-3.79-.05.09-7c-1.23,0-2.47,0-3.7,0l-3.69-.14-1.85-.07c-.62,0-1.23,0-1.85-.09l-3.69-.23.46-7,.47-7,.46-7,3.41.22c.57,0,1.14.06,1.71.08l1.71.06,3.42.13c1.14,0,2.28,0,3.42,0l.09-7,3.33.05,3.33-.05-.1-7-3.23,0-3.24,0c-1.08,0-2.15,0-3.23,0L287,537l-.28,7-1.66-.06c-.56,0-1.11,0-1.66-.08l-3.32-.21-1.66-.11-.83,0-.83-.07-3.31-.3c-2.21-.17-4.41-.46-6.61-.7l-.84,7c2.27.25,4.53.55,6.8.72Z"/><path class="cls-1" d="M320.6,550.09l.65,7,.65,7,.65,7,.65,7,.65,7c2.59-.21,5.16-.54,7.74-.82l-.84-7-.84-7-.84-7-.84-7-.84-7-.84-7-.83-7c-2.14.24-4.28.52-6.43.68l.65,7Z"/><path class="cls-1" d="M324.88,528.43c-2.08.23-4.15.51-6.24.66l.65,7c2.15-.16,4.29-.45,6.43-.68Z"/><path class="cls-1" d="M312.85,536.61l1.61-.11.81,0,.81-.07,3.21-.29-.65-7-3.12.28-.78.07-.79,0-1.56.1-3.13.2c-.53,0-1.05.05-1.57.07l-1.57.06L303,530c-1.05,0-2.09,0-3.14.05l.09,7c1.08,0,2.16,0,3.24,0l3.23-.12,1.61-.06c.54,0,1.08,0,1.62-.08Z"/><path class="cls-1" d="M299.93,537.12l-.09-7-3.14,0-3.14,0c-1.05,0-2.1,0-3.15-.05l-3.13-.12-.28,7,3.23.12c1.08,0,2.15,0,3.23,0l3.24,0Z"/><path class="cls-1" d="M281,529.59l-1.57-.1-.78,0-.78-.07-3.13-.28c-2.08-.15-4.15-.43-6.23-.66l-.84,7c2.14.24,4.27.52,6.42.68l3.22.29.8.07.81,0,1.61.11,3.23.2c.53,0,1.07.05,1.61.08L287,537l.28-7-1.57-.06c-.53,0-1,0-1.57-.07Z"/><polygon class="cls-1" points="253.07 590.19 257.02 590.74 258.99 591.02 260.97 591.25 261.81 584.27 259.88 584.04 257.95 583.78 254.1 583.24 253.07 590.19"/><path class="cls-1" d="M238.77,580.56c-2.54-.53-5.07-1.09-7.61-1.65l-1.58,6.85c2.59.57,5.19,1.15,7.79,1.69l3.91.75,2,.38,1,.18,1,.17,3.93.65c1.31.22,2.62.44,3.94.61l1-7c-1.29-.17-2.57-.39-3.85-.6l-3.84-.64-.95-.16-1-.18-1.91-.37Z"/><path class="cls-1" d="M216.1,575l-1.95,6.75c1.27.39,2.56.72,3.84,1.07l3.85,1c.64.18,1.28.34,1.93.5l1.93.47,3.88.94,1.58-6.85-3.78-.92-1.89-.46c-.63-.15-1.26-.3-1.88-.48l-3.76-1C218.6,575.69,217.34,575.37,216.1,575Z"/><path class="cls-1" d="M201.27,570.25,197.6,569c-1.22-.44-2.43-.92-3.64-1.37l-2.49,6.57c1.24.47,2.48,1,3.73,1.4l3.76,1.33c2.5.91,5,1.7,7.56,2.53l1.9.61,1.91.57,3.82,1.14L216.1,575l-3.73-1.1-1.86-.56-1.86-.6C206.19,571.91,203.71,571.14,201.27,570.25Z"/><path class="cls-1" d="M205.9,557l2.32-6.64,2.31-6.64,2.32-6.63-3.22-1.14c-1.08-.38-2.14-.8-3.2-1.2l-2.5,6.57-2.49,6.57L199,554.44c1.15.44,2.3.89,3.46,1.31Z"/><path class="cls-1" d="M243,559.9l1.39-6.89c-2.29-.48-4.57-1-6.86-1.49h0l-3.41-.83-1.71-.42c-.56-.14-1.13-.27-1.7-.43l-3.39-.92c-1.13-.31-2.26-.6-3.38-.95L222,554.73c1.15.35,2.31.65,3.47,1l3.48.94c.58.16,1.17.3,1.75.45l1.75.42,3.51.86h0C238.27,558.88,240.61,559.4,243,559.9Z"/><path class="cls-1" d="M237.5,551.52c2.29.5,4.57,1,6.87,1.49L243,559.9c-2.36-.5-4.7-1-7.05-1.53l-1.59,6.85c2.41.53,4.82,1.06,7.24,1.57l-1.4,6.88,3.73.72,1.86.36.93.17.94.16,1.21-6.93,1.21-6.92,1.22-6.92,1.21-6.93,1.21-6.92-.82-.14-.81-.16-1.63-.31-3.27-.62-1.4,6.89c-2.22-.47-4.45-1-6.67-1.45Z"/><path class="cls-1" d="M210.53,543.7l-2.31,6.64L205.9,557l-3.49-1.23c-1.16-.42-2.31-.87-3.46-1.3l-2.5,6.57c1.19.44,2.37.91,3.56,1.33l3.58,1.27c2.38.86,4.79,1.62,7.2,2.4l1.8.59,1.82.54,3.64,1.08-2,6.75c1.24.39,2.5.71,3.75,1l3.76,1c.62.17,1.25.33,1.88.48l1.89.46,3.78.92,1.59-6.84-3.69-.9-1.85-.45c-.61-.15-1.23-.3-1.84-.47l1.77-6.81-3.57-1c-1.19-.33-2.39-.64-3.56-1l-3.55-1.06-1.78-.53-1.76-.57,2.14-6.69,2.13-6.7,2.14-6.7,1.62.53,1.64.49,3.27,1c1.09.34,2.19.62,3.29.92l3.3.89,1.77-6.8c.53.15,1.07.28,1.61.41l1.61.39,3.23.79,1.58-6.85-3.13-.76-1.57-.38c-.52-.13-1-.25-1.56-.4l-3.11-.84c-1-.29-2.08-.55-3.11-.87l-2,6.75-3.19-1-1.59-.47-1.58-.52c-2.1-.69-4.22-1.34-6.3-2.1l-3.13-1.1c-1-.38-2.07-.79-3.11-1.18l-2.49,6.58c1.07.4,2.12.82,3.2,1.2l3.22,1.14Z"/><polygon class="cls-1" points="259.23 548.47 258.2 555.42 257.17 562.38 256.15 569.33 255.12 576.28 254.1 583.24 257.95 583.78 259.88 584.04 261.81 584.26 262.65 577.29 263.49 570.31 264.32 563.33 265.16 556.35 266 549.37 266.84 542.39 267.68 535.41 266.07 535.23 264.48 535.01 261.28 534.56 260.25 541.51 259.23 548.47"/><polygon class="cls-1" points="268.52 528.43 266.96 528.26 265.41 528.04 262.3 527.6 261.28 534.56 264.48 535 266.07 535.23 267.68 535.41 268.52 528.43"/><path class="cls-1" d="M254.9,533.53l3.19.53c1.06.18,2.12.36,3.19.5l1-7c-1-.13-2.06-.31-3.09-.48l-3.09-.51-.78-.13-.77-.15L253,526l-3.08-.59c-2-.43-4.08-.88-6.12-1.33L242.25,531c2.11.46,4.21.93,6.31,1.37l3.17.61,1.59.3.79.15Z"/><path class="cls-1" d="M242.25,531l1.59-6.85-3-.74-1.52-.37c-.51-.12-1-.24-1.52-.39l-3-.81c-1-.28-2-.54-3-.85l-1.95,6.76c1,.31,2.07.58,3.11.86l3.11.85c.52.15,1,.27,1.56.4l1.57.38Z"/><path class="cls-1" d="M225.73,519.14c-2-.65-4-1.27-5.94-2l-2.95-1c-1-.35-2-.74-2.93-1.11l-2.49,6.57c1,.38,2,.78,3,1.14l3,1.07c2,.74,4.07,1.38,6.12,2.05l1.53.5,1.55.46,3.09.92,1.95-6.76-3-.89-1.5-.45Z"/><polygon class="cls-1" points="184.05 571.23 187.74 572.74 191.47 574.16 193.96 567.59 190.32 566.2 186.72 564.73 184.05 571.23"/><path class="cls-1" d="M172.49,558.44c-.59-.28-1.18-.55-1.76-.84l-1.74-.86L165.5,555l-3.19,6.26,3.57,1.78,1.79.88c.59.3,1.2.57,1.8.86l3.61,1.68c.6.28,1.2.57,1.81.84l1.82.8,3.66,1.59.91.4.92.38,1.85.75,2.67-6.5-1.8-.74-.9-.37-.89-.38-3.57-1.56-1.78-.78c-.6-.26-1.18-.55-1.77-.82Z"/><path class="cls-1" d="M151.83,547.58l-3.52,6.08c.57.35,1.15.67,1.73,1l1.74,1,3.48,1.94,3.52,1.86,1.76.93c.59.31,1.18.62,1.77.91L165.5,555l-1.73-.89-1.72-.91-3.44-1.82-3.39-1.89-1.7-1Z"/><path class="cls-1" d="M138.59,539.42l-3.25-2.14c-.55-.35-1.08-.72-1.61-1.09l-1.6-1.11-4,5.79,1.64,1.13c.55.38,1.09.76,1.65,1.12l3.32,2.19,1.67,1.09c.55.37,1.12.71,1.68,1.07l3.38,2.11c.57.34,1.12.71,1.7,1l1.71,1,3.43,2,3.52-6.08-3.35-2-1.67-1c-.56-.33-1.11-.68-1.66-1l-3.3-2.06c-.54-.35-1.1-.68-1.64-1Z"/><path class="cls-1" d="M146.27,527.65l3.84-5.89,3.84-5.88,3.84-5.89-2.85-1.88c-.48-.31-.95-.64-1.41-1l-1.41-1-4,5.78-4,5.78-4,5.78,1.52,1.05c.51.36,1,.71,1.53,1Z"/><path class="cls-1" d="M181.54,539.39l3-6.35c-.53-.25-1.07-.49-1.59-.75l-1.57-.78L178.25,530h0l-1.56-.81-1.55-.82L172,526.68,169,525l-1.53-.86q-.78-.42-1.53-.87l-3.52,6.09c.52.31,1,.6,1.57.89l1.57.88,3.15,1.76,3.19,1.68,1.59.85c.53.28,1.07.56,1.61.82h0l3.23,1.61,1.61.8C180.45,538.89,181,539.13,181.54,539.39Z"/><path class="cls-1" d="M178.25,530l3.15,1.56,1.57.78c.52.26,1.06.5,1.59.75l-3,6.35c-.54-.26-1.09-.5-1.63-.77l-1.61-.8-3.23-1.61-3.19,6.27,3.31,1.64,1.66.83c.55.28,1.12.53,1.67.79l-3,6.35,3.44,1.6c.58.27,1.15.55,1.73.8l1.73.76,2.85-6.43,2.85-6.43,2.84-6.42,2.85-6.43,2.84-6.43-1.52-.67c-.51-.22-1-.46-1.51-.69l-3-1.41-3,6.35c-.52-.24-1-.47-1.55-.73l-1.53-.76-3.06-1.52Z"/><path class="cls-1" d="M154,515.88l-3.84,5.88-3.84,5.89-3.09-2c-.52-.34-1-.69-1.53-1l-1.52-1.06-4,5.78,1.56,1.08c.52.36,1,.73,1.57,1.07l3.17,2.09,1.58,1c.53.35,1.07.67,1.61,1l3.21,2c.54.33,1.07.68,1.62,1l1.63,1,3.27,1.93-3.52,6.08c.56.33,1.12.65,1.69,1l1.7,1,3.39,1.9,3.44,1.82,1.72.91,1.73.89,3.19-6.27c-.57-.27-1.13-.57-1.69-.87l-1.68-.88L162,545.22l3.35-6.18-3.23-1.81-1.61-.9c-.54-.3-1.08-.6-1.61-.92l-3.19-1.88-1.59-.94c-.53-.32-1.05-.65-1.57-1l3.68-6,3.68-6,3.69-6c.48.3,1,.61,1.45.9l1.47.87,2.94,1.74c.49.29,1,.57,1.49.84l1.49.84,3,1.67,3.36-6.18,2.93,1.55,1.47.77c.49.26,1,.52,1.48.77l3.19-6.27c-.49-.23-1-.49-1.44-.74l-1.42-.75-2.86-1.51-2.82-1.57-1.41-.79c-.47-.26-.94-.52-1.4-.8L173,511.07l-2.86-1.69-1.43-.84c-.48-.28-.94-.59-1.41-.88l-2.82-1.76L163,505l-1.38-.92-2.78-1.82c-.47-.3-.92-.62-1.37-.94l-1.37-.95-4,5.79,1.41,1c.47.32.93.65,1.41,1L157.8,510Z"/><polygon class="cls-1" points="200.07 532.22 197.4 538.72 194.73 545.22 192.06 551.73 189.39 558.23 186.72 564.73 190.32 566.2 193.96 567.59 196.45 561.02 198.95 554.45 201.44 547.87 203.93 541.3 206.43 534.73 208.92 528.15 211.41 521.58 208.4 520.44 205.41 519.21 202.74 525.71 200.07 532.22"/><polygon class="cls-1" points="213.91 515.01 210.98 513.9 208.09 512.71 205.41 519.21 208.4 520.43 211.42 521.58 213.91 515.01"/><path class="cls-1" d="M199.48,516.68l3,1.3.74.32.75.3,1.49.61,2.67-6.5-1.45-.59-.72-.3-.72-.31-2.87-1.25-1.43-.63c-.48-.21-.95-.44-1.42-.66l-2.84-1.32-1.42-.67-1.4-.7-2.8-1.39-3.19,6.26,2.89,1.44,1.44.72c.48.24,1,.46,1.46.69l2.92,1.36L198,516Z"/><path class="cls-1" d="M187.82,511.15l3.18-6.26c-.47-.23-.93-.48-1.39-.72l-1.38-.73L185.46,502l-2.74-1.54-1.37-.76c-.45-.25-.91-.5-1.36-.78L176.47,505c.46.28.93.54,1.4.8l1.41.79,2.82,1.57,2.86,1.51,1.42.75C186.86,510.66,187.33,510.92,187.82,511.15Z"/><path class="cls-1" d="M174.61,495.69,172,494c-.44-.28-.89-.55-1.32-.84l-1.31-.86-2.62-1.72c-.44-.28-.87-.59-1.3-.88l-1.28-.9-4,5.78,1.33.92c.44.31.88.62,1.33.91l2.7,1.78,1.35.89c.44.29.91.57,1.36.86l2.74,1.71c.46.28.91.57,1.37.84l1.39.83,2.78,1.64L180,498.9l-2.7-1.59-1.34-.8C175.49,496.25,175.06,496,174.61,495.69Z"/><polygon class="cls-1" points="121.64 536.25 124.86 538.59 128.13 540.87 132.13 535.08 128.94 532.87 125.8 530.58 121.64 536.25"/><path class="cls-1" d="M113.49,521.07c-1-.81-2-1.65-3-2.49l-3-2.51-4.6,5.32,3,2.57c1,.86,2,1.72,3.06,2.55l3.1,2.5,1.56,1.24,1.58,1.21,3.16,2.42.79.61.8.58,1.61,1.18,4.15-5.67-1.57-1.15-.78-.57-.77-.59-3.09-2.37L118,524.72l-1.52-1.22Z"/><path class="cls-1" d="M96,505.6l-4.87,5.07c.94.93,1.93,1.82,2.9,2.73L97,516.11l3,2.65c1,.88,2,1.77,3,2.63l4.59-5.32c-1-.84-1.94-1.71-2.91-2.57s-1.94-1.72-2.9-2.59l-2.85-2.64C97.93,507.38,97,506.51,96,505.6Z"/><path class="cls-1" d="M85.13,494.53l-2.65-2.85c-.87-1-1.72-1.94-2.58-2.9l-5.27,4.66c.89,1,1.76,2,2.65,3L80,499.33c1.79,2,3.66,3.84,5.51,5.74l1.39,1.42,1.42,1.4,2.85,2.78L96,505.6l-2.78-2.72-1.39-1.36-1.36-1.39C88.7,498.28,86.88,496.44,85.13,494.53Z"/><path class="cls-1" d="M95.4,484.92l5.13-4.8,5.13-4.8,5.14-4.8L108.47,468c-.77-.84-1.52-1.7-2.28-2.55l-5.26,4.66-5.26,4.67-5.26,4.66c.82.92,1.64,1.85,2.47,2.76Z"/><path class="cls-1" d="M126.84,504.74l4.45-5.44c-.92-.73-1.81-1.49-2.7-2.25l-2.68-2.27h0c-.9-.76-1.76-1.55-2.64-2.32s-1.75-1.55-2.62-2.34l-2.57-2.39c-.86-.8-1.73-1.58-2.56-2.41l-4.87,5.07c.85.85,1.75,1.65,2.62,2.48l2.64,2.45,2.7,2.4c.9.79,1.79,1.61,2.7,2.39h0l2.76,2.32C125,503.21,125.9,504,126.84,504.74Z"/><path class="cls-1" d="M125.91,494.78l2.68,2.27c.89.76,1.78,1.52,2.7,2.25l-4.45,5.44c-.94-.75-1.85-1.53-2.77-2.31l-2.76-2.32-4.59,5.32,2.83,2.39c.94.79,1.87,1.6,2.84,2.36l-4.45,5.44,3,2.38c.49.4,1,.8,1.48,1.19l1.5,1.15,4.3-5.56,4.31-5.56,4.3-5.56,4.3-5.56,4.3-5.56-1.32-1c-.44-.34-.86-.69-1.29-1l-2.59-2.08-4.45,5.44c-.9-.7-1.76-1.45-2.63-2.18l-2.61-2.21Z"/><path class="cls-1" d="M105.66,475.32l-5.13,4.8-5.13,4.8-2.52-2.71c-.83-.91-1.65-1.84-2.47-2.76l-5.26,4.66c.85.95,1.68,1.9,2.53,2.84l2.58,2.78c1.71,1.86,3.49,3.66,5.25,5.47l1.33,1.35,1.36,1.33,2.71,2.65L96,505.6c.92.91,1.89,1.78,2.83,2.67l2.85,2.64c1,.87,1.93,1.73,2.9,2.59s1.93,1.73,2.92,2.57l4.59-5.32c-1-.82-1.9-1.67-2.85-2.51s-1.9-1.67-2.83-2.52l4.73-5.2L108.47,498c-.9-.85-1.81-1.67-2.69-2.54l-2.65-2.58-1.32-1.3-1.29-1.32,5-4.94,5-4.94,5-4.93,1.19,1.22,1.23,1.19,2.44,2.39c.81.81,1.66,1.57,2.49,2.35l2.5,2.33,4.73-5.2,2.49,2.21c.83.73,1.65,1.48,2.49,2.2l4.59-5.32c-.82-.7-1.61-1.43-2.42-2.14s-1.62-1.42-2.41-2.15l-2.37-2.2c-.78-.74-1.59-1.45-2.35-2.22l-4.87,5.07-2.37-2.32-1.19-1.16-1.17-1.19c-1.54-1.59-3.11-3.16-4.6-4.8l-2.26-2.43c-.75-.82-1.48-1.66-2.21-2.48l-5.26,4.66c.75.85,1.5,1.71,2.27,2.55l2.33,2.51Z"/><polygon class="cls-1" points="146.55 502.21 142.4 507.89 138.25 513.56 134.1 519.23 129.94 524.9 125.8 530.58 128.94 532.87 132.13 535.08 136.13 529.3 140.13 523.52 144.13 517.74 148.12 511.96 152.12 506.18 156.12 500.39 160.12 494.61 157.46 492.77 154.85 490.87 150.7 496.54 146.55 502.21"/><polygon class="cls-1" points="164.12 488.83 161.54 487.05 159.01 485.2 154.86 490.87 157.46 492.77 160.12 494.61 164.12 488.83"/><path class="cls-1" d="M149.69,487l2.57,2,.64.49.65.48,1.3.95L159,485.2l-1.27-.93-.63-.46-.63-.48-2.49-1.9-1.24-1-1.22-1-2.45-2c-.82-.65-1.61-1.34-2.41-2l-2.39-2-4.6,5.32,2.47,2.08c.82.7,1.64,1.4,2.48,2.07l2.52,2c.42.34.83.68,1.26,1Z"/><path class="cls-1" d="M139.68,478.82l4.6-5.32c-.8-.68-1.57-1.39-2.36-2.08l-2.34-2.08-2.29-2.14c-.77-.72-1.55-1.41-2.29-2.16l-4.87,5.07c.76.77,1.57,1.48,2.35,2.22l2.37,2.2c.8.73,1.61,1.43,2.41,2.15S138.86,478.12,139.68,478.82Z"/><path class="cls-1" d="M130.54,460.63c-1.46-1.49-2.94-3-4.34-4.52l-2.14-2.29L122,451.47l-5.26,4.66c.72.81,1.43,1.62,2.15,2.42l2.2,2.36c1.45,1.6,3,3.12,4.48,4.66l1.12,1.16,1.16,1.13,2.31,2.25L135,465l-2.24-2.19-1.12-1.09Z"/><path class="cls-1" d="M69.43,487.41l2.57,3c.86,1,1.76,2,2.63,3l5.26-4.66c-.85-1-1.72-1.93-2.57-2.92l-2.51-3Z"/><path class="cls-1" d="M65.13,470.73l-.59-.77-.57-.79-1.15-1.57-2.29-3.14-5.73,4.07,2.35,3.22,1.17,1.61.59.8.6.8,2.42,3.16,1.22,1.57c.4.53.82,1,1.24,1.56,1.67,2.06,3.31,4.15,5,6.16l5.38-4.52c-1.69-2-3.29-4-4.92-6-.4-.5-.82-1-1.21-1.51l-1.19-1.55Z"/><path class="cls-1" d="M51.86,451.54l-5.93,3.76c.35.56.69,1.13,1.06,1.69l1.09,1.66,2.2,3.33c.36.56.74,1.1,1.11,1.64l1.14,1.64,2.27,3.27,5.73-4.07-2.22-3.2-1.11-1.59c-.37-.54-.74-1.07-1.09-1.61L54,454.81l-1.07-1.63C52.54,452.64,52.21,452.09,51.86,451.54Z"/><path class="cls-1" d="M43.9,438.18l-1.9-3.4-1.81-3.44L34,434.61l1.87,3.53,1.94,3.48,1,1.74c.33.58.65,1.16,1,1.72l2,3.43,1,1.72c.34.57.7,1.13,1,1.69l2.11,3.38,5.93-3.76-2-3.3c-.34-.55-.7-1.1-1-1.65l-1-1.68-2-3.35c-.34-.55-.65-1.12-1-1.68Z"/><polygon class="cls-1" points="56.16 431.3 62.29 427.86 68.42 424.43 74.56 420.99 72.89 418 71.29 414.98 65.07 418.25 58.85 421.53 52.63 424.8 54.36 428.07 56.16 431.3"/><path class="cls-1" d="M82,458.05l5.61-4.23-.53-.7-.52-.71-1-1.42-2.07-2.83h0l-2-2.89-1-1.44c-.34-.48-.67-1-1-1.45l-1.93-2.94-1-1.46c-.32-.49-.62-1-.93-1.49l-5.94,3.76c.32.51.63,1,1,1.53l1,1.5,2,3c.33.5.68,1,1,1.49l1,1.48,2,3h0l2.13,2.92,1.06,1.45.53.73Z"/><path class="cls-1" d="M83.44,448.16,85.51,451l1,1.42.52.71.53.7L82,458.05l-.55-.72-.53-.73-1.06-1.45-2.13-2.92L72,456.31l2.18,3,1.09,1.49.55.75.56.74-5.62,4.22,2.31,3L74.21,471c.38.5.79,1,1.18,1.48l5.5-4.38,5.5-4.37,5.51-4.38L97.4,455l5.5-4.37c-.35-.43-.7-.86-1-1.3l-1-1.32-2-2.63-5.62,4.22-.52-.68-.5-.69-1-1.38-2-2.76Z"/><path class="cls-1" d="M68.43,424.43l-6.14,3.44-6.13,3.43-1.8-3.23-1.73-3.27-6.22,3.27,1.77,3.36L50,434.74,51,436.4c.3.55.61,1.1.94,1.64l1.93,3.27,1,1.63c.31.55.66,1.08,1,1.62l2,3.22-5.94,3.76c.35.55.68,1.1,1,1.64L54,454.81l2.14,3.25c.35.54.72,1.07,1.09,1.61l1.11,1.59,2.22,3.2,5.73-4.08-2.17-3.11L63,455.71c-.36-.52-.72-1-1.07-1.57l5.84-3.92-2-3.09-1-1.55c-.34-.51-.66-1-1-1.56l-2-3.14c-.32-.53-.66-1.05-1-1.58l-.94-1.59,6-3.6,6-3.6,6-3.61.87,1.47c.28.5.6,1,.89,1.46l1.81,2.9c.31.48.6,1,.92,1.44l.94,1.43,1.87,2.85,5.84-3.92c.3.47.62.92.93,1.38l1,1.36L94.9,440l5.72-4.08-1.84-2.65L97.86,432c-.31-.44-.62-.88-.91-1.34l-1.77-2.69-.89-1.35c-.3-.45-.57-.91-.86-1.37L87.49,429l-1.76-2.81c-.29-.48-.59-.94-.87-1.42L84,423.3l-1.69-2.86c-.28-.47-.55-1-.82-1.44l-.81-1.45-1.62-2.9-1.55-2.94L71.29,415l1.6,3,1.67,3Z"/><path class="cls-1" d="M101.73,460.29l-5.39,4.52L91,469.33l-5.38,4.52-5.38,4.52-5.39,4.52,2.51,3c.85,1,1.72,1.94,2.57,2.92l5.26-4.67,5.26-4.66,5.26-4.66,5.26-4.67,5.26-4.66,5.26-4.66,5.26-4.67c-.71-.8-1.44-1.6-2.13-2.42l-2.09-2.47-5.38,4.52Z"/><path class="cls-1" d="M122,451.47c-.69-.78-1.39-1.56-2.07-2.35l-2-2.4-5.38,4.52,2.09,2.47c.7.82,1.42,1.61,2.13,2.42Z"/><path class="cls-1" d="M108.4,446.24c1.36,1.68,2.68,3.38,4.09,5l5.38-4.52c-1.37-1.58-2.65-3.23-4-4.85-.32-.41-.66-.81-1-1.23l-1-1.24-1.91-2.49-.48-.62-.46-.63-.92-1.27-1.85-2.53-5.73,4.07,1.91,2.61,1,1.31.47.65.49.64,2,2.56,1,1.28C107.72,445.41,108.06,445.82,108.4,446.24Z"/><path class="cls-1" d="M100.62,435.93l5.73-4.07-1.79-2.58-.89-1.29c-.3-.43-.6-.86-.88-1.3l-1.72-2.62-.87-1.3c-.29-.44-.55-.89-.83-1.33l-5.94,3.76c.29.46.56.92.86,1.37l.89,1.35L97,430.61c.29.46.6.9.91,1.34l.92,1.33Z"/><path class="cls-1" d="M96.09,416.1l-1.6-2.7c-.27-.44-.52-.9-.78-1.36L93,410.67l-1.53-2.73L90,405.17l-6.22,3.27,1.5,2.86,1.58,2.81.78,1.41c.27.47.53.94.81,1.4l1.64,2.78.82,1.39c.27.47.57.92.85,1.37l1.71,2.74,5.94-3.76-1.66-2.66c-.28-.44-.56-.88-.83-1.33Z"/><path class="cls-1" d="M30.35,427.51l1.77,3.57c.29.6.61,1.18.92,1.77l.92,1.76,6.23-3.27-.91-1.72c-.3-.57-.61-1.14-.89-1.73l-1.73-3.48Z"/><path class="cls-1" d="M30.16,410.27l-.39-.89-.37-.9-.73-1.8-1.47-3.61-6.54,2.58,1.5,3.7.76,1.84.38.92.39.92,1.6,3.65.8,1.82c.27.61.56,1.21.83,1.81l1.69,3.61c.28.6.55,1.21.85,1.81l.89,1.78,6.31-3.1-.87-1.74c-.29-.58-.55-1.18-.83-1.76l-1.65-3.53c-.27-.59-.55-1.17-.81-1.77l-.78-1.78Z"/><path class="cls-1" d="M21.88,388.44l-6.67,2.23c.4,1.26.86,2.51,1.29,3.77l1.33,3.76c.45,1.25.94,2.49,1.4,3.73l1.43,3.72,6.53-2.58-1.38-3.63c-.46-1.22-.94-2.43-1.37-3.65l-1.3-3.67C22.72,390.9,22.27,389.68,21.88,388.44Z"/><path class="cls-1" d="M17.36,373.55l-1-3.76c-.17-.63-.32-1.26-.47-1.89L15.4,366l-6.82,1.68.47,1.94c.16.64.31,1.29.49,1.93l1,3.85c.67,2.57,1.46,5.11,2.21,7.66l.57,1.91.62,1.89,1.23,3.8,6.67-2.23-1.2-3.7-.6-1.85L19.52,381C18.79,378.54,18,376.06,17.36,373.55Z"/><path class="cls-1" d="M30.92,369.82,37.7,368l6.77-1.86,6.78-1.86-.89-3.3c-.15-.54-.29-1.1-.42-1.65l-.41-1.66-6.82,1.68L35.88,361l-6.82,1.68.43,1.8c.15.6.29,1.2.46,1.79Z"/><path class="cls-1" d="M49.55,402,56,399.24l-.35-.81-.33-.81L54.67,396l-1.32-3.25h0l-1.25-3.28c-.42-1.1-.85-2.18-1.24-3.29l-1.17-3.31c-.38-1.1-.79-2.2-1.14-3.32l-6.67,2.23c.36,1.14.78,2.27,1.17,3.41l1.2,3.4c.41,1.13.85,2.25,1.27,3.37l1.29,3.37h0l1.36,3.34.68,1.67.35.84Z"/><path class="cls-1" d="M53.35,392.74,54.67,396l.67,1.63.33.81.35.81L49.55,402l-.35-.82-.35-.84-.68-1.67-1.36-3.34-6.54,2.59,1.4,3.42.7,1.72.35.85.37.85-6.47,2.76L38.14,411l.76,1.74c.26.58.54,1.15.8,1.72l6.39-2.93,6.39-2.93,6.39-2.94,6.39-2.93,6.39-2.93c-.24-.5-.48-1-.7-1.51l-.67-1.52-1.33-3-6.46,2.76-.34-.79-.33-.79-.64-1.58-1.3-3.16Z"/><path class="cls-1" d="M44.47,366.1,37.7,368l-6.78,1.87-1-3.58c-.17-.59-.31-1.19-.46-1.79l-.44-1.8-6.82,1.68.45,1.84c.15.62.3,1.23.47,1.84l1,3.67c.63,2.45,1.39,4.86,2.1,7.29l.55,1.82.58,1.81,1.18,3.61-6.67,2.22c.39,1.24.84,2.46,1.26,3.68l1.3,3.67c.43,1.22.91,2.43,1.37,3.65l1.39,3.63,6.53-2.58-1.35-3.55c-.45-1.18-.91-2.36-1.34-3.55L37.65,391l-1.23-3.49c-.41-1.16-.84-2.32-1.21-3.5l-1.14-3.52-.57-1.76L33,376.94l6.73-2.05,6.72-2,6.73-2.05.49,1.64.52,1.63,1.06,3.25c.34,1.08.74,2.15,1.11,3.23l1.13,3.22,6.61-2.41c.37,1.05.78,2.08,1.17,3.11l1.18,3.11L73,385l-1.15-3c-.38-1-.78-2-1.14-3l-1.07-3c-.35-1-.73-2-1-3.05l-6.66,2.22-1-3.16-.51-1.58-.48-1.59c-.62-2.12-1.28-4.24-1.84-6.38l-.87-3.21c-.15-.53-.27-1.07-.4-1.6l-.4-1.62-6.82,1.68.4,1.66c.13.55.27,1.11.42,1.65l.89,3.3Z"/><path class="cls-1" d="M68.19,408.89,61.89,412l-6.31,3.1-6.31,3.1L43,421.31l-6.3,3.1,1.73,3.48c.28.58.59,1.16.89,1.73l.91,1.72,6.22-3.27,6.22-3.27,6.22-3.27,6.22-3.28L71.29,415l6.23-3.27,6.22-3.27L83,407c-.25-.47-.5-.95-.74-1.43l-1.43-2.89-6.31,3.1Z"/><path class="cls-1" d="M90,405.17l-.73-1.39c-.25-.46-.49-.92-.72-1.39l-1.39-2.81-6.31,3.11,1.43,2.89c.24.48.49,1,.74,1.43l.76,1.43Z"/><path class="cls-1" d="M78,396.86l1.37,2.92c.23.49.44,1,.69,1.46l.72,1.45,6.31-3.11-.7-1.4c-.24-.46-.45-.94-.67-1.41l-1.33-2.84c-.22-.48-.45-.95-.65-1.42l-.63-1.44-1.26-2.87-.31-.71-.29-.73-.6-1.45-1.18-2.9L73,385l1.22,3,.61,1.5.3.74.33.74,1.29,3,.65,1.48C77.57,395.89,77.81,396.37,78,396.86Z"/><path class="cls-1" d="M73,385l6.54-2.58-1.12-2.92c-.36-1-.75-1.95-1.1-2.93l-1-3c-.34-1-.71-2-1-3l-6.67,2.23c.32,1,.7,2,1,3.05l1.07,3c.37,1,.76,2,1.14,3Z"/><path class="cls-1" d="M73.32,364.67c-.58-2-1.21-4-1.73-6l-.82-3c-.14-.51-.26-1-.39-1.52L70,352.6l-6.82,1.67.38,1.57c.13.53.25,1.05.4,1.57l.84,3.11c.54,2.08,1.18,4.13,1.79,6.2l.46,1.54.5,1.54,1,3.07,6.67-2.23-1-3-.49-1.49Z"/><polygon class="cls-1" points="6.78 359.92 7.63 363.82 8.58 367.69 15.4 366.01 14.48 362.23 13.65 358.43 6.78 359.92"/><path class="cls-1" d="M10.76,343.14c-.45-2.55-.77-5.13-1.14-7.69l-7,.93c.38,2.63.71,5.26,1.17,7.88l.65,3.93.16,1,.19,1,.37,2L5.94,356c.27,1.31.56,2.6.84,3.9l6.87-1.49c-.27-1.27-.56-2.53-.82-3.81l-.73-3.82-.37-1.91-.18-.95-.16-1Z"/><path class="cls-1" d="M8,320l-7,.56.35,4c.12,1.32.23,2.64.39,4l.45,4,.23,2,.27,2,7-.93-.27-1.93-.22-1.93-.44-3.87c-.16-1.28-.27-2.57-.38-3.87Z"/><path class="cls-1" d="M7.14,304.46c0-2.58-.08-5.17-.11-7.76H0c0,2.65.06,5.3.11,7.95l.15,4,.07,2c0,.66,0,1.33.1,2l.25,4,.12,2,.07,1,.09,1L8,320l-.08-1-.06-1-.13-1.94-.24-3.87c0-.65-.07-1.3-.09-1.94l-.08-1.94Z"/><path class="cls-1" d="M21.19,304.09l7-.18,7-.19,7-.18-.09-6.84H21.09C21.12,299.16,21.14,301.63,21.19,304.09Z"/><path class="cls-1" d="M31.57,339.78l6.94-1.12c-.41-2.3-.69-4.63-1-6.94h0L37.25,330l-.2-1.75-.4-3.49c-.15-1.16-.24-2.33-.35-3.49l-.31-3.5-7,.56.32,3.59c.11,1.2.21,2.4.36,3.59l.41,3.58.2,1.79.25,1.79h0C30.86,335,31.15,337.42,31.57,339.78Z"/><path class="cls-1" d="M37.49,331.72c.33,2.31.61,4.64,1,6.94l-6.94,1.12c-.42-2.36-.71-4.75-1.05-7.13l-7,.93c.35,2.44.65,4.89,1.08,7.32L17.69,342l.63,3.75.15.93.18.93L19,349.5l6.91-1.31,6.91-1.3,6.91-1.31,6.91-1.31,6.9-1.3-.31-1.63-.16-.82-.13-.82-.54-3.27-6.94,1.12c-.4-2.25-.68-4.51-1-6.77Z"/><path class="cls-1" d="M35.24,303.72l-7,.19-7,.18c-.05-2.46-.07-4.93-.1-7.39h-7c0,2.52,0,5.05.1,7.58l.14,3.79.08,1.89c0,.63,0,1.26.08,1.89l.24,3.79.12,1.89.07,1,.08.94L8,320l.35,3.87c.11,1.3.22,2.59.38,3.87l.44,3.87.22,1.93.27,1.93,7-.94-.26-1.88-.21-1.88L15.68,327l7-.75c-.16-1.22-.26-2.45-.37-3.68L22,318.87l-.08-.93-.06-.92-.12-1.84-.24-3.7,7-.37,7-.37,7-.37.21,3.41.11,1.71.05.85.08.85.3,3.41c.1,1.13.2,2.27.34,3.4l7-.75.38,3.31.18,1.65.23,1.64,7-.93-.23-1.6-.18-1.6-.36-3.21c-.14-1.07-.22-2.14-.32-3.22L57,316.08l-7,.55-.08-.82,0-.83-.1-1.66L49.57,310c0-.55-.06-1.11-.08-1.66l-.06-1.66-.13-3.33-.09-6.65h-7l.09,6.84Z"/><polygon class="cls-1" points="48 350.97 41.13 352.46 34.26 353.95 27.39 355.45 20.52 356.94 13.65 358.43 14.48 362.23 15.4 366.01 22.23 364.34 29.05 362.66 35.88 360.98 42.71 359.31 49.54 357.63 56.36 355.95 63.19 354.27 62.42 351.14 61.73 347.99 54.87 349.48 48 350.97"/><polygon class="cls-1" points="70.02 352.6 69.27 349.56 68.6 346.5 61.73 347.99 62.42 351.14 63.19 354.27 70.02 352.6"/><path class="cls-1" d="M60.45,341.66l.6,3.17c.21,1.06.46,2.11.68,3.16l6.87-1.49c-.21-1-.45-2-.66-3.07l-.58-3.07-.3-1.54-.15-.77-.13-.77-.51-3.09c-.37-2.06-.61-4.14-.91-6.2l-7,.93c.31,2.13.56,4.27.94,6.39l.53,3.18.13.8.15.79Z"/><path class="cls-1" d="M58.39,328.92l7-.93-.22-1.55L65,324.88l-.35-3.12c-.14-1-.22-2.08-.31-3.12L64,315.52l-7,.56.29,3.21c.1,1.08.18,2.15.32,3.22l.36,3.21.19,1.6Z"/><path class="cls-1" d="M63.6,309.26c0-.53-.05-1.05-.07-1.57l-.06-1.57L63.35,303l-.08-6.28h-7l.08,6.47.13,3.23.06,1.61c0,.54,0,1.08.07,1.62l.21,3.22.1,1.61,0,.81.07.81,7-.56-.07-.78L63.9,314l-.1-1.56Z"/><path class="cls-1" d="M.11,288.75c0,2.65-.08,5.3-.11,7.95H7c0-2.59.06-5.18.11-7.77Z"/><path class="cls-1" d="M8,273.41l.35-3.87c.11-1.29.22-2.58.38-3.87l-7-.74c-.16,1.31-.27,2.64-.39,4l-.35,4-.09,1-.07,1-.12,2-.25,4c0,.66-.07,1.32-.1,2l-.07,2-.15,4,7,.18.14-3.88.08-1.94c0-.65,0-1.3.09-1.94l.24-3.88.13-1.94.06-1Z"/><path class="cls-1" d="M10.76,250.25l-6.94-1.12c-.46,2.62-.79,5.26-1.17,7.89l-.27,2-.23,2-.45,4,7,.74.44-3.86.22-1.93L9.62,258C10,255.38,10.31,252.81,10.76,250.25Z"/><path class="cls-1" d="M13.65,235l.83-3.81.92-3.78-6.82-1.67-1,3.87-.85,3.89c-.28,1.3-.57,2.6-.84,3.9l-.75,3.91-.37,2-.19,1-.16,1-.65,3.93,6.94,1.12.63-3.83.16-1,.18-1,.37-1.91.73-3.82C13.09,237.5,13.38,236.23,13.65,235Z"/><polygon class="cls-1" points="27.39 237.95 34.26 239.44 41.13 240.93 47.99 242.42 48.72 239.09 49.53 235.77 42.71 234.09 35.88 232.41 29.05 230.74 28.18 234.33 27.39 237.95"/><path class="cls-1" d="M29,275.09l7,.55.31-3.49c.11-1.17.2-2.34.35-3.5h0l.4-3.49.2-1.74.24-1.74c.33-2.32.61-4.64,1-7l-6.94-1.12c-.42,2.37-.71,4.76-1.05,7.14l-.25,1.78-.2,1.79-.41,3.59h0c-.15,1.19-.25,2.39-.36,3.58Z"/><path class="cls-1" d="M36.65,268.65c-.15,1.16-.24,2.33-.35,3.5l-.31,3.5-7-.56.32-3.59c.11-1.2.21-2.4.36-3.59l-7-.75c-.16,1.23-.26,2.46-.37,3.68L22,274.53,15,274l-.08.95-.07.94-.12,1.89-.24,3.79,7,.37,7,.37,7,.37,7,.37,7,.38.21-3.32.1-1.66,0-.83.08-.83-7-.56.3-3.4c.1-1.14.2-2.27.34-3.4Z"/><path class="cls-1" d="M41.13,240.93l-6.87-1.49L27.39,238l.79-3.62.87-3.59-6.82-1.68-.9,3.69-.81,3.71c-.27,1.23-.55,2.47-.8,3.71L19,243.89l-.36,1.87-.18.93-.15.94-.63,3.74-6.93-1.12c-.45,2.56-.77,5.13-1.14,7.7l-.27,1.93-.22,1.93-.44,3.86,7,.75.43-3.77.21-1.89.26-1.88,7,.93c.35-2.44.65-4.89,1.08-7.32l.61-3.65.15-.91.17-.91.35-1.82,6.91,1.31,6.91,1.3,6.91,1.31-.33,1.68-.16.84-.14.84-.55,3.37c-.4,2.24-.68,4.51-1,6.76l7,.93-.23,1.65L51,266.84l-.38,3.3,7,.75.36-3.21.18-1.61.23-1.59c.31-2.13.56-4.27.94-6.39L52.4,257l.54-3.28.13-.82.16-.81.31-1.64.63-3.26c.21-1.08.46-2.16.7-3.24l.7-3.25.79-3.23-6.82-1.67-.82,3.32L48,242.42Z"/><path class="cls-1" d="M42.27,289.86l-7-.19-7-.18-7-.19-7-.18-7-.19c0,2.59-.08,5.18-.11,7.77H56.24l.08-6.47-7-.19Z"/><polygon class="cls-1" points="63.27 296.7 63.35 290.41 56.33 290.23 56.24 296.7 63.27 296.7"/><path class="cls-1" d="M56.58,283.77c0,.53,0,1.07-.07,1.61L56.45,287l-.13,3.23,7,.18.12-3.13.06-1.57c0-.53,0-1,.07-1.57l.2-3.13.1-1.57.05-.78.07-.78.28-3.13c.09-1,.17-2.08.31-3.12l-7-.74c-.14,1.07-.22,2.14-.32,3.21L57,277.32l-.07.8,0,.81-.1,1.61Z"/><path class="cls-1" d="M57.62,270.89l7,.74.35-3.11.18-1.56.22-1.55c.3-2.07.54-4.15.91-6.2l-6.94-1.12c-.38,2.12-.63,4.26-.94,6.39l-.22,1.59L58,267.68Z"/><path class="cls-1" d="M67.36,253l.58-3.08c.21-1,.45-2,.66-3.06l.67-3.06.74-3-6.82-1.68-.77,3.13-.69,3.16c-.22,1.05-.46,2.1-.68,3.15l-.6,3.17-.31,1.58-.15.8-.13.79-.53,3.19,6.94,1.12.51-3.09.13-.78.15-.77Z"/><path class="cls-1" d="M10.58,218l-1,3.85c-.18.64-.33,1.28-.49,1.93l-.47,1.93,6.82,1.68.46-1.89c.16-.63.31-1.26.48-1.88l1-3.76Z"/><path class="cls-1" d="M21.88,205c.39-1.23.84-2.45,1.26-3.68l1.3-3.67-6.61-2.4L16.5,199c-.43,1.25-.89,2.5-1.29,3.77L14,206.52l-.61,1.9-.58,1.91c-.75,2.55-1.54,5.08-2.21,7.66l6.78,1.86c.65-2.51,1.43-5,2.16-7.48l.56-1.86.6-1.86Z"/><path class="cls-1" d="M30.16,183.13l-6.47-2.76-.4.91-.37.92-.76,1.85-1.5,3.69-1.43,3.73c-.46,1.24-.95,2.48-1.4,3.73l6.61,2.4c.43-1.22.91-2.43,1.37-3.64l1.38-3.64,1.47-3.6.74-1.8.37-.9Z"/><path class="cls-1" d="M36.66,169l1.73-3.49c.28-.58.59-1.15.89-1.73l.91-1.72L34,158.78,33,160.54c-.32.59-.63,1.18-.92,1.78l-1.77,3.56-.89,1.79c-.3.59-.57,1.2-.85,1.8l-1.69,3.61c-.27.6-.56,1.2-.83,1.81l-.8,1.83-1.6,3.65,6.47,2.76,1.56-3.57.78-1.78c.26-.6.54-1.18.81-1.77L35,172.49c.28-.59.54-1.18.83-1.76Z"/><path class="cls-1" d="M49.27,175.19l6.31,3.11,6.31,3.1,6.3,3.1,1.52-3.06c.25-.51.52-1,.79-1.52l.79-1.51-6.22-3.27-6.22-3.27-6.22-3.27-.86,1.63c-.29.55-.58,1.09-.85,1.65Z"/><path class="cls-1" d="M41.88,211.63l6.67,2.22c.35-1.11.76-2.21,1.14-3.32l1.17-3.31h0c.39-1.1.82-2.19,1.23-3.29l1.26-3.28,1.32-3.25.67-1.62.33-.82.35-.8-6.47-2.76-.35.83-.35.83-.68,1.67-1.36,3.34-1.29,3.37c-.42,1.13-.86,2.24-1.27,3.38h0l-1.2,3.4C42.66,209.35,42.24,210.48,41.88,211.63Z"/><path class="cls-1" d="M50.86,207.22l-1.17,3.31c-.38,1.11-.79,2.21-1.14,3.32l-6.67-2.22c.36-1.15.78-2.28,1.17-3.41l1.2-3.4-6.6-2.41-1.23,3.49c-.41,1.17-.84,2.33-1.21,3.5l-6.66-2.22-1.18,3.61-.58,1.8-.55,1.82L33,216.46l6.73,2,6.72,2,6.73,2.05,6.73,2,.47-1.59.51-1.58,1-3.16-6.67-2.22c.34-1.09.74-2.16,1.11-3.23l1.13-3.22Z"/><path class="cls-1" d="M61.89,181.4l-6.31-3.1-6.31-3.11,1.65-3.31c.27-.56.56-1.1.84-1.65l.87-1.63-6.22-3.28L45.52,167c-.29.56-.59,1.12-.87,1.69L43,172.09l-.84,1.7c-.29.56-.54,1.14-.81,1.71l-1.61,3.44c-.26.58-.54,1.15-.79,1.73l-.77,1.74-1.52,3.47-6.46-2.75-.39.89-.37.9-.73,1.8-1.48,3.6L25.81,194c-.46,1.21-.94,2.42-1.37,3.64L31,200c.43-1.2.89-2.37,1.34-3.56l1.35-3.54,6.54,2.58,1.4-3.43.7-1.71.35-.86.37-.85,1.48-3.39.74-1.69c.25-.57.52-1.12.78-1.69l6.39,2.94,6.39,2.93,6.39,2.93c-.24.52-.49,1-.72,1.55l-.68,1.57-1.37,3.13-.34.78-.33.79-.64,1.58-1.3,3.17,6.54,2.58-1.18,3.1c-.39,1-.8,2.07-1.17,3.11l6.6,2.4c.36-1,.76-2,1.14-3l1.15-3,1.22-3,.61-1.49.3-.75.33-.74L69,199.68l1.33-3.05.67-1.52c.22-.51.47-1,.7-1.51l1.4-3c.24-.5.46-1,.71-1.5l.74-1.48,1.48-3c.24-.5.5-1,.76-1.48l.78-1.47-6.23-3.27-.79,1.51c-.27.51-.54,1-.79,1.52l-1.52,3.06Z"/><path class="cls-1" d="M51.25,229.15l-6.78-1.86-6.77-1.86-6.78-1.86-6.78-1.86-6.78-1.86-1,3.76c-.17.62-.32,1.25-.47,1.88l-.47,1.89,6.83,1.68,6.82,1.68,6.83,1.67,6.83,1.68,6.83,1.68,6.82,1.67,6.83,1.68.38-1.57c.13-.52.25-1,.4-1.56l.84-3.11L58,231Z"/><path class="cls-1" d="M70,240.8l.37-1.52c.13-.51.25-1,.39-1.52l.82-3-6.78-1.86L64,236c-.15.52-.27,1-.4,1.56l-.38,1.57Z"/><path class="cls-1" d="M66.6,226.68c-.61,2.06-1.25,4.11-1.79,6.2l6.78,1.86c.52-2,1.15-4,1.74-6l.44-1.5.49-1.49,1-3c.31-1,.68-2,1-3l1-2.95-6.61-2.41-1.07,3c-.35,1-.73,2-1,3.05l-1,3.07-.5,1.53Z"/><path class="cls-1" d="M70.67,214.43l6.61,2.41c.35-1,.74-2,1.1-2.93L79.5,211l1.18-2.9.6-1.44.29-.73.31-.72-6.46-2.76-.32.74-.31.75-.61,1.49-1.22,3-1.15,3C71.43,212.42,71,213.42,70.67,214.43Z"/><path class="cls-1" d="M84.42,199.47l1.33-2.84c.22-.47.43-.95.67-1.42l.7-1.4,1.39-2.8c.23-.48.47-.94.72-1.4l.73-1.38L83.74,185,83,186.38c-.25.48-.5,1-.74,1.44l-1.43,2.89-.72,1.44c-.25.48-.46,1-.69,1.46L78,196.53c-.22.49-.46,1-.67,1.47l-.65,1.48-1.29,3,6.46,2.76,1.26-2.87.63-1.43C84,200.41,84.21,199.94,84.42,199.47Z"/><polygon class="cls-1" points="37.77 151.78 35.83 155.26 33.96 158.78 40.19 162.05 42 158.61 43.9 155.22 37.77 151.78"/><path class="cls-1" d="M51.86,141.86c.35-.55.68-1.11,1-1.65L54,138.59l2.14-3.25-5.83-3.92-2.2,3.32L47,136.41c-.37.55-.71,1.12-1.06,1.68l-2.11,3.38c-.35.57-.71,1.12-1,1.7l-1,1.71-2,3.43c-.34.57-.66,1.15-1,1.73l-1,1.74,6.13,3.44,1-1.7c.32-.57.63-1.13,1-1.69l2-3.35,1-1.67c.33-.56.69-1.1,1-1.66Z"/><path class="cls-1" d="M65.13,122.67l-5.62-4.23-.6.79-.59.8-1.17,1.61-2.35,3.22-2.27,3.27-1.14,1.64c-.37.55-.75,1.09-1.11,1.65l5.83,3.92c.35-.55.72-1.08,1.09-1.61l1.11-1.6,2.22-3.19,2.29-3.15L64,124.22l.58-.78Z"/><path class="cls-1" d="M74.81,110.5l2.51-3c.85-1,1.72-2,2.57-2.92L74.63,100c-.87,1-1.77,2-2.63,3l-2.57,3c-1.73,2-3.37,4.1-5,6.16-.41.52-.84,1-1.24,1.56l-1.22,1.58-2.42,3.16,5.62,4.23,2.36-3.09L68.68,118c.39-.51.81-1,1.21-1.52C71.52,114.51,73.12,112.47,74.81,110.5Z"/><path class="cls-1" d="M85.58,119.55,91,124.07l5.38,4.52,5.39,4.52,2.2-2.61c.74-.87,1.51-1.71,2.26-2.57l-5.26-4.66-5.26-4.66-5.26-4.67c-.81.93-1.64,1.84-2.44,2.78Z"/><path class="cls-1" d="M69.68,153.14l5.94,3.76c.31-.49.61-1,.93-1.48l1-1.47L79.45,151h0c.32-.49.65-1,1-1.45l1-1.45,2-2.88,2.07-2.84,1-1.42.52-.71.53-.7L82,135.35l-.55.71-.53.73-1.06,1.46-2.13,2.91-2,3-1,1.48c-.34.49-.69,1-1,1.49h0l-2,3-1,1.51C70.31,152.12,70,152.63,69.68,153.14Z"/><path class="cls-1" d="M79.45,151,77.52,154l-1,1.47c-.32.49-.62,1-.93,1.48l-5.94-3.76c.32-.51.63-1,1-1.52l1-1.51,2-3-5.83-3.92-2,3.09-1,1.55c-.34.51-.66,1-1,1.56l-5.94-3.76-2,3.22c-.33.53-.67,1.06-1,1.61l-1,1.63,6,3.6,6,3.61,6,3.6,6,3.6,6,3.6.85-1.43c.28-.48.58-.94.87-1.41l1.76-2.82-5.94-3.76c.31-.48.6-1,.92-1.45l.94-1.42,1.87-2.86Z"/><path class="cls-1" d="M96.34,128.59,91,124.07l-5.38-4.52L88,116.72c.8-.94,1.63-1.85,2.44-2.78l-5.26-4.66c-.83,1-1.68,1.89-2.5,2.85L80.19,115c-1.65,1.92-3.21,3.91-4.8,5.87-.39.5-.8,1-1.18,1.49l-1.16,1.5-2.31,3-5.61-4.22-.59.77-.57.78-1.15,1.57-2.29,3.15-2.22,3.19-1.11,1.6c-.37.53-.74,1.06-1.09,1.61l5.83,3.92c.35-.53.71-1,1.07-1.57l1.08-1.56L66.26,133,72,137.09l2.18-3,1.09-1.5.55-.74.56-.74,2.25-2.94,1.13-1.46c.38-.49.77-1,1.15-1.45l5.51,4.38L91.9,134l5.5,4.38c-.36.44-.72.88-1.07,1.33l-1,1.36-2.08,2.71-.52.68-.5.69-1,1.38-2,2.76,5.73,4.08L93,156.12l-1,1.37c-.31.45-.63.9-.93,1.37L97,162.78c.29-.45.6-.89.91-1.33l.92-1.33,1.84-2.66,1.91-2.6,1-1.31.47-.65.49-.64L98.83,148l2-2.64,1-1.32c.34-.44.69-.86,1-1.3,1.4-1.72,2.76-3.46,4.21-5.14l2.15-2.54c.71-.84,1.46-1.66,2.19-2.49l-5.26-4.66c-.75.85-1.52,1.69-2.26,2.56l-2.2,2.61Z"/><polygon class="cls-1" points="74.56 172.41 68.42 168.97 62.29 165.53 56.16 162.09 50.03 158.65 43.9 155.22 42 158.61 40.19 162.05 46.41 165.32 52.63 168.6 58.85 171.87 65.07 175.14 71.3 178.41 77.52 181.68 83.74 184.96 85.24 182.1 86.82 179.28 80.69 175.84 74.56 172.41"/><polygon class="cls-1" points="89.96 188.23 91.42 185.46 92.95 182.72 86.82 179.28 85.24 182.1 83.74 184.96 89.96 188.23"/><path class="cls-1" d="M90.05,173.69l-1.64,2.78c-.28.46-.54.93-.8,1.4l-.79,1.41L93,182.72l.76-1.37c.26-.45.51-.91.78-1.36l1.6-2.7.79-1.34c.27-.46.55-.89.83-1.34L99.37,172c.28-.44.54-.89.83-1.32l.87-1.31,1.72-2.62L97,162.78l-1.77,2.7-.89,1.35c-.3.44-.57.91-.86,1.36l-1.71,2.74c-.28.46-.58.91-.85,1.37Z"/><path class="cls-1" d="M97,162.78l5.84,3.92c.28-.44.58-.87.88-1.3l.89-1.28,1.79-2.58L108.2,159l.92-1.27.46-.63.48-.63-5.62-4.22-.49.64-.47.65-1,1.31-1.91,2.6-1.84,2.66-.92,1.33C97.55,161.89,97.24,162.33,97,162.78Z"/><path class="cls-1" d="M113.9,151.53c1.32-1.63,2.6-3.28,4-4.86l2-2.39c.68-.8,1.38-1.57,2.07-2.36l-5.26-4.66c-.71.81-1.44,1.6-2.13,2.42l-2.09,2.47c-1.41,1.63-2.73,3.33-4.09,5-.34.42-.68.83-1,1.26l-1,1.28-2,2.57,5.62,4.22L112,154l1-1.24C113.24,152.34,113.58,151.93,113.9,151.53Z"/><path class="cls-1" d="M80,94.07,77.28,97l-2.65,3,5.26,4.67c.87-1,1.72-1.94,2.59-2.9l2.65-2.85Z"/><path class="cls-1" d="M96,87.8c.92-.92,1.89-1.78,2.83-2.67l2.85-2.65L97,77.28,94.07,80c-1,.9-2,1.79-2.9,2.73l-2.85,2.78L86.9,86.9l-1.39,1.42c-1.85,1.9-3.72,3.79-5.51,5.75l5.13,4.8c1.75-1.91,3.57-3.75,5.38-5.61l1.36-1.39,1.39-1.36Z"/><path class="cls-1" d="M113.49,72.33,109,66.89c-1,.82-2,1.69-3.06,2.54l-3,2.57c-1,.86-2,1.76-3,2.63l-3,2.65,4.74,5.2c1-.87,1.93-1.72,2.9-2.59s1.93-1.72,2.91-2.57l3-2.51C111.49,74,112.48,73.13,113.49,72.33Z"/><path class="cls-1" d="M125.79,62.82l3.15-2.29,3.19-2.22-4-5.78-3.27,2.27-3.22,2.35L120,58.32l-.8.59-.79.6-3.16,2.42-1.58,1.22c-.52.4-1,.82-1.55,1.24L109,66.89l4.45,5.44,3-2.44c.51-.4,1-.82,1.52-1.21l1.54-1.19,3.09-2.36.77-.59.78-.57Z"/><polygon class="cls-1" points="134.1 74.16 138.25 79.84 142.4 85.51 146.55 91.18 149.31 89.17 152.12 87.22 148.12 81.44 144.13 75.66 140.13 69.87 137.09 71.98 134.1 74.16"/><path class="cls-1" d="M110.65,103l4.87,5.07c.83-.82,1.7-1.6,2.56-2.41l2.57-2.39h0c.87-.79,1.75-1.56,2.62-2.34s1.74-1.56,2.64-2.32l2.68-2.27c.89-.75,1.78-1.52,2.7-2.24l-4.45-5.44c-.94.74-1.85,1.53-2.77,2.3l-2.76,2.33c-.91.78-1.8,1.59-2.7,2.38l-2.7,2.4h0l-2.63,2.46C112.4,101.35,111.5,102.15,110.65,103Z"/><path class="cls-1" d="M120.65,103.27l-2.57,2.39c-.86.81-1.73,1.59-2.56,2.41L110.65,103c.85-.84,1.75-1.65,2.62-2.47l2.64-2.46-4.73-5.2-2.71,2.53c-.9.84-1.81,1.66-2.69,2.54l-4.87-5.07L98.2,95.52l-1.36,1.32L95.52,98.2l5,4.93,5,4.94,5,4.94,5,4.94,5,4.94,1.16-1.19,1.19-1.16,2.37-2.33-4.87-5.07c.81-.8,1.66-1.56,2.49-2.34l2.5-2.33Z"/><path class="cls-1" d="M142.4,85.51l-4.15-5.67-4.15-5.68,3-2.18,3-2.11-4-5.78L133,66.26l-3.07,2.23-1.53,1.12-.76.56-.76.57-3,2.31-1.5,1.16c-.5.38-1,.79-1.48,1.18l-3,2.38-4.45-5.44c-1,.8-2,1.65-3,2.48l-3,2.52c-1,.84-2,1.71-2.92,2.56s-1.94,1.72-2.9,2.59l4.73,5.2c.93-.85,1.89-1.69,2.83-2.53s1.88-1.68,2.85-2.5L116.72,88l2.82-2.39c.95-.8,1.88-1.6,2.85-2.37l2.88-2.32c.48-.38,1-.78,1.45-1.15l1.46-1.13,4.31,5.56,4.3,5.56,4.3,5.56-1.36,1c-.45.35-.88.71-1.33,1.07l-2.66,2.14c-.9.71-1.76,1.45-2.63,2.19l-2.61,2.2,4.59,5.33c-.84.71-1.66,1.46-2.49,2.2s-1.66,1.46-2.49,2.21l4.74,5.19c.79-.72,1.61-1.43,2.41-2.15s1.6-1.44,2.42-2.13l2.47-2.09c.82-.69,1.64-1.4,2.48-2.06L140.19,105l2.59-2.08,1.29-1,1.32-1,2.64-2,.66-.51.67-.49,1.34-1,2.69-2,2.73-1.9-4-5.78-2.81,2-2.76,2Z"/><path class="cls-1" d="M110.8,122.88l-5.14-4.8-5.13-4.81-5.13-4.8-5.14-4.8-5.13-4.8-2.65,2.85c-.87,1-1.72,1.93-2.59,2.9l5.26,4.66,5.26,4.66,5.26,4.67,5.26,4.66,5.26,4.66,5.27,4.67,5.25,4.66c.72-.8,1.43-1.62,2.15-2.41l2.2-2.37-5.13-4.8Z"/><path class="cls-1" d="M122,141.92l2.09-2.34,2.14-2.29-5.14-4.81-2.2,2.37-2.15,2.41Z"/><path class="cls-1" d="M125.54,127.82c-1.5,1.55-3,3.07-4.48,4.66l5.14,4.8c1.4-1.54,2.88-3,4.34-4.52l1.1-1.12,1.12-1.1,2.24-2.19c.74-.74,1.52-1.44,2.28-2.15l2.3-2.14-4.73-5.2-2.37,2.2c-.78.74-1.59,1.46-2.35,2.22l-2.31,2.26-1.15,1.12Z"/><path class="cls-1" d="M134.85,118.86l4.73,5.2,2.34-2.09c.79-.69,1.56-1.39,2.36-2.07l2.39-2c.8-.67,1.59-1.36,2.41-2l-4.45-5.44c-.84.66-1.66,1.37-2.48,2.06l-2.47,2.09c-.82.7-1.61,1.42-2.42,2.13Z"/><path class="cls-1" d="M154,112l2.48-1.91.63-.48.63-.46,1.27-.92,2.53-1.85,2.58-1.79-4-5.78-2.66,1.84-2.61,1.91-1.3,1-.65.47-.64.49-2.57,2-1.28,1-1.26,1-2.52,2,4.45,5.44,2.45-2,1.22-1Z"/><path class="cls-1" d="M134.74,48.08l-3.32,2.2c-.56.36-1.1.74-1.65,1.11l-1.64,1.14,4,5.78,1.6-1.11c.53-.37,1.06-.74,1.61-1.09L138.59,54Z"/><path class="cls-1" d="M151.83,45.82c.56-.34,1.12-.65,1.69-1l1.7-1,3.39-1.9-3.35-6.17-3.48,1.94-1.74,1c-.58.33-1.16.65-1.73,1l-3.43,2-1.71,1c-.58.34-1.13.7-1.7,1l-3.38,2.11c-.56.35-1.13.69-1.68,1.06l-1.67,1.09L138.59,54l1.62-1.07c.54-.36,1.1-.69,1.65-1l3.29-2c.56-.34,1.1-.7,1.66-1l1.67-1Z"/><path class="cls-1" d="M172.49,35l-3-6.35c-.6.28-1.21.55-1.8.85l-1.79.89-3.57,1.77c-.59.29-1.18.61-1.77.92l-1.76.92-3.52,1.87L158.61,42l3.44-1.81,1.72-.91c.58-.3,1.15-.61,1.73-.89L169,36.66l1.74-.87C171.31,35.5,171.9,35.24,172.49,35Z"/><path class="cls-1" d="M186.72,28.67l3.6-1.47L194,25.81l-2.5-6.58-3.72,1.43-3.69,1.5-1.85.76-.92.38-.91.39-3.65,1.6-1.83.8-1.81.83-3.61,1.69,3,6.35L176,33.31c.59-.27,1.18-.55,1.77-.81l1.78-.78,3.57-1.56.89-.39.9-.37Z"/><polygon class="cls-1" points="192.06 41.67 194.73 48.17 197.4 54.67 200.07 61.18 203.24 59.88 206.43 58.67 203.93 52.09 201.44 45.52 198.95 38.95 195.49 40.27 192.06 41.67"/><path class="cls-1" d="M162.39,64.07l3.52,6.08c.5-.3,1-.58,1.53-.87l1.53-.86L172,66.71h0l3.11-1.64,1.55-.82c.52-.27,1-.55,1.56-.8l3.15-1.56L183,61.1c.52-.26,1.06-.5,1.59-.75l-3-6.35c-.54.26-1.09.5-1.63.78l-1.61.8-3.23,1.6c-.55.27-1.08.55-1.61.83l-1.59.84-3.19,1.68h0l-3.15,1.76-1.57.88C163.43,63.47,162.91,63.76,162.39,64.07Z"/><path class="cls-1" d="M172,66.71,169,68.43l-1.53.85c-.52.29-1,.57-1.53.87l-3.52-6.08c.51-.31,1-.6,1.57-.9l1.57-.88,3.15-1.76-3.36-6.17-3.23,1.8-1.61.9c-.54.31-1.08.6-1.61.92l-3.52-6.08-3.27,1.93-1.63,1c-.55.31-1.08.66-1.61,1l3.68,6,3.68,6,3.68,6,3.69,6,3.68,6c.47-.29.93-.59,1.41-.87l1.43-.85L173,82.32l-3.52-6.08c.49-.3,1-.57,1.48-.85l1.5-.83,3-1.67Z"/><path class="cls-1" d="M197.4,54.67l-2.67-6.5-2.67-6.5,3.43-1.4L199,39l-2.5-6.57-3.55,1.35-3.51,1.44-1.76.71-.88.36-.87.38-3.47,1.52-1.74.76-1.73.8-3.44,1.61-3-6.35c-.59.28-1.18.54-1.76.83l-1.74.87-3.49,1.73c-.58.28-1.15.59-1.73.89l-1.72.91L158.61,42,162,48.18l3.35-1.77,1.68-.89c.56-.29,1.12-.59,1.69-.87l3.19,6.27,3.31-1.65,1.66-.82c.55-.28,1.12-.53,1.67-.79l3.36-1.57c.56-.26,1.11-.53,1.68-.78l1.69-.74L188.1,51l2.84,6.43,2.85,6.43-1.57.68c-.52.23-1,.48-1.55.72l-3.09,1.44-1.55.73-1.53.76-3.06,1.52L184.63,76c-.5.24-1,.5-1.48.76l-1.47.78-2.94,1.55,3.36,6.17,2.86-1.5,1.42-.76c.48-.25,1-.5,1.44-.74l2.89-1.43,1.44-.72c.48-.25,1-.46,1.46-.69l-3-6.35,3-1.4c.51-.24,1-.48,1.51-.7l1.52-.67L199.68,69l.76-.33.77-.31,1.53-.63,3.08-1.26,3.1-1.18-2.49-6.57-3.19,1.21-3.17,1.3Z"/><path class="cls-1" d="M157.8,83.41,154,77.52l-3.84-5.89-3.84-5.89-3.84-5.88L138.59,54l-3.25,2.14c-.55.35-1.08.72-1.61,1.09l-1.6,1.11,4,5.78,4,5.78,4,5.79,4,5.78,4,5.78,4,5.78,4,5.78,1.32-.92c.45-.31.89-.62,1.34-.91l2.7-1.77-3.84-5.89Z"/><path class="cls-1" d="M164.12,104.56l1.28-.89c.43-.3.86-.6,1.3-.88l2.62-1.72-3.84-5.89L162.78,97c-.45.29-.89.6-1.33.91l-1.33.92Z"/><path class="cls-1" d="M170.93,91.72l-2.74,1.71c-.45.29-.92.56-1.36.86l-1.35.89,3.84,5.89,1.31-.87c.43-.29.88-.55,1.32-.83l2.66-1.66c.45-.28.88-.56,1.34-.83l1.35-.79,2.69-1.6c.45-.27.91-.52,1.36-.78l1.37-.76,2.73-1.53-3.35-6.18-2.82,1.58-1.41.79c-.47.26-.94.52-1.4.8l-2.78,1.64-1.39.82C171.84,91.14,171.39,91.44,170.93,91.72Z"/><path class="cls-1" d="M182.1,85.24l3.36,6.18L188.23,90l1.38-.73c.46-.25.92-.49,1.39-.72l2.81-1.39,1.4-.7c.47-.24.95-.45,1.42-.67l-3-6.35c-.48.23-1,.45-1.46.69l-1.44.72-2.89,1.43c-.49.24-1,.49-1.44.74l-1.42.76Z"/><path class="cls-1" d="M202.32,83.14l2.87-1.26.72-.31.72-.29,1.45-.6L211,79.5l2.93-1.12-2.5-6.57-3,1.15-3,1.22-1.49.61-.75.3-.74.33-3,1.29-1.48.65c-.49.21-1,.45-1.46.67l-2.93,1.37,3,6.35,2.84-1.33c.47-.22.94-.45,1.42-.65Z"/><path class="cls-1" d="M199,16.5l-3.76,1.33c-1.25.45-2.49.94-3.73,1.4L194,25.81c1.21-.46,2.42-.94,3.64-1.37l3.67-1.3Z"/><path class="cls-1" d="M216.1,18.41c1.24-.38,2.5-.71,3.75-1.05l3.76-1-1.77-6.8-3.85,1c-1.29.35-2.57.69-3.84,1.08l-3.82,1.13-1.91.57-1.9.62c-2.53.82-5.06,1.62-7.56,2.52l2.31,6.64c2.44-.88,4.92-1.66,7.39-2.46l1.85-.6,1.86-.56Z"/><path class="cls-1" d="M238.77,12.83l-1.4-6.89c-2.6.55-5.2,1.12-7.79,1.69l-3.88,1-1.93.47c-.65.16-1.29.31-1.93.49l1.77,6.8c.62-.17,1.25-.32,1.88-.48l1.89-.46,3.78-.92C233.7,13.92,236.23,13.36,238.77,12.83Z"/><path class="cls-1" d="M254.1,10.16,258,9.62l1.93-.27,1.93-.22-.84-7-2,.23-2,.27-3.95.55c-1.32.18-2.63.4-3.94.62l-3.93.65-1,.16-1,.19-2,.37-3.91.75,1.4,6.89,3.82-.73,1.91-.37,1-.18,1-.16,3.83-.63C251.53,10.54,252.81,10.33,254.1,10.16Z"/><polygon class="cls-1" points="256.15 24.07 257.18 31.02 258.2 37.97 259.23 44.93 262.61 44.45 264.3 44.22 266 44.02 265.16 37.05 264.32 30.07 263.49 23.09 261.65 23.3 259.81 23.55 256.15 24.07"/><path class="cls-1" d="M222,38.67l1.95,6.75c1.12-.35,2.25-.64,3.38-1l3.39-.91h0c.57-.16,1.13-.3,1.7-.44l1.71-.41,3.41-.83c2.29-.5,4.57-1,6.86-1.49L243,33.5c-2.36.49-4.7,1-7.05,1.53l-3.51.85-1.75.43c-.58.14-1.17.28-1.75.44h0l-3.48,1C224.27,38,223.11,38.31,222,38.67Z"/><path class="cls-1" d="M230.68,43.56l-3.39.91c-1.13.31-2.26.61-3.38,1L222,38.67c1.15-.36,2.31-.66,3.47-1l3.48-1L227.14,30l-3.57,1c-1.19.32-2.39.63-3.56,1l-2-6.75-3.64,1.08-1.81.55-1.81.58,2.13,6.7,2.14,6.7,2.13,6.7,2.14,6.69,2.13,6.7,1.58-.51,1.59-.48,3.19-.94-2-6.76c1.09-.33,2.19-.62,3.29-.92l3.3-.89Z"/><path class="cls-1" d="M258.2,38l-1-6.95-1-6.95,3.66-.52,1.84-.25,1.83-.21-.83-7-1.89.21-1.88.26-3.76.53c-1.25.16-2.5.38-3.75.58l-3.74.62-.94.16-.93.18L243.9,19l-3.73.72-1.4-6.89c-2.54.53-5.07,1.1-7.61,1.65l-3.78.92-1.89.47c-.63.15-1.26.3-1.88.47l1.76,6.81c.61-.17,1.23-.32,1.84-.47l1.85-.45,3.69-.9,1.58,6.85c2.41-.53,4.82-1.06,7.24-1.57l3.63-.7,1.82-.35.91-.17.91-.15,1.21,6.92,1.22,6.93L252.48,46l-.84.14-.84.16-1.68.33-3.36.64c-2.23.47-4.45,1-6.67,1.44l1.58,6.85-3.23.79-1.61.4c-.54.13-1.08.25-1.61.4L236,64c.52-.15,1-.27,1.56-.4l1.57-.38,3.13-.77,6.31-1.37-1.4-6.88,3.27-.63,1.63-.31.81-.16.82-.13L257,52.4c1.09-.19,2.18-.38,3.28-.52l3.29-.46,1.65-.23,1.65-.18L266,44l-1.7.19-1.69.24-3.38.47Z"/><path class="cls-1" d="M212.85,56.33l-2.32-6.64-2.31-6.64-2.32-6.63-2.31-6.64-2.32-6.64-3.67,1.3c-1.22.43-2.43.91-3.64,1.37l2.49,6.57L199,39l2.49,6.57,2.49,6.57,2.5,6.58,2.49,6.57,2.5,6.57c1-.38,2-.78,3-1.14l3-1.07L215.16,63Z"/><path class="cls-1" d="M213.91,78.38c1-.36,2-.75,2.93-1.1l2.95-1-2.31-6.64-3,1.07c-1,.37-2,.76-3,1.14Z"/><path class="cls-1" d="M223.6,67.56c-2,.67-4.1,1.3-6.12,2l2.31,6.64c2-.72,4-1.33,5.94-2l1.49-.49,1.5-.44,3-.9c1-.31,2-.57,3-.84l3-.82L236,64l-3.12.84c-1,.28-2.07.55-3.1.87l-3.09.92-1.55.46Z"/><path class="cls-1" d="M236,64l1.77,6.8c.5-.14,1-.26,1.52-.39L240.8,70l3-.74c2-.44,4.08-.9,6.12-1.33l-1.4-6.89-6.31,1.37-3.13.77-1.57.38C237,63.7,236.51,63.82,236,64Z"/><path class="cls-1" d="M256.12,66.78l3.09-.51c1-.17,2.06-.35,3.09-.48l3.11-.43,1.55-.22,1.56-.18-.84-7-1.61.18-1.6.23-3.19.45c-1.07.13-2.13.32-3.19.49l-3.19.53-.79.13-.79.15-1.59.31-3.17.6,1.4,6.89,3.08-.58,1.54-.3.76-.15Z"/><path class="cls-1" d="M268.89,1.31c-2.65.21-5.28.55-7.92.84l.84,7c2.57-.29,5.15-.62,7.73-.82Z"/><path class="cls-1" d="M285.05,7.28l3.88-.14c1.3,0,2.59,0,3.88-.06l-.09-7c-1.32,0-2.65,0-4,.06l-4,.15-2,.07c-.66,0-1.32,0-2,.1l-4,.25-2,.12-1,.07-1,.09-4,.35.65,7L273.41,8l1-.08,1-.06,1.94-.13,3.88-.24c.64,0,1.29-.07,1.94-.09Z"/><path class="cls-1" d="M308.35,7.28l.27-7-4-.15-4-.06-4,0-4,.05.09,7,3.89,0,3.88,0c1.29,0,2.59,0,3.88.06Z"/><path class="cls-1" d="M323.85,8.31c2.59.2,5.16.53,7.74.82l.84-7c-2.64-.29-5.28-.63-7.92-.84l-4-.35-1-.09-1-.07-2-.12-4-.25c-.66,0-1.33-.07-2-.1l-2-.07-.27,7,1.94.08c.64,0,1.29,0,1.94.09l3.88.24,1.94.13,1,.06L320,8Z"/><path class="cls-1" d="M322.55,22.3l-.65,7-.65,7-.65,7c2.27.18,4.53.48,6.79.73l.84-7,.84-7,.84-7C327.46,22.82,325,22.5,322.55,22.3Z"/><path class="cls-1" d="M285.88,28.35l.28,7,3.51-.14c1.17,0,2.34,0,3.51-.05h0l3.52,0,3.51,0c1.17,0,2.34,0,3.51.05l3.51.14.28-7-3.6-.13c-1.2,0-2.41,0-3.61-.06l-3.6,0-3.61,0h0l-3.6.06Z"/><path class="cls-1" d="M293.18,35.19c-1.17,0-2.34,0-3.51.05l-3.51.14-.28-7,3.61-.13,3.6-.06-.09-7c-1.23,0-2.47,0-3.7.06l-3.69.14-.28-7-1.9.08c-.63,0-1.26,0-1.89.08l-3.79.24.47,7,.46,7,.47,7,.46,7,.47,7,3.32-.21c.55,0,1.1-.06,1.66-.08l1.66-.06-.28-7,3.42-.13c1.14,0,2.28,0,3.42-.05Z"/><path class="cls-1" d="M321.25,36.3l.65-7,.65-7c2.46.2,4.91.52,7.36.79l.84-7c-2.52-.28-5-.61-7.55-.81L319.42,15l-.94-.08-1-.07-1.89-.12-3.78-.24c-.63,0-1.27-.06-1.9-.08l-1.89-.08.28-7-3.89-.14c-1.29,0-2.59,0-3.88-.06L296.7,7l-3.89,0,.1,7,3.79,0,3.79,0-.09,7c1.23,0,2.46,0,3.69.06l3.7.14,1.85.07c.61,0,1.23,0,1.84.08l3.7.24-.47,7-.46,7-.47,7-3.41-.21c-.57,0-1.14-.06-1.71-.08L307,42.4l-3.41-.13c-1.14,0-2.28,0-3.42-.05l-.1,7-3.32,0-3.33,0,.09,7,3.24,0,3.23,0,3.24,0,3.23.13.28-7,1.66.06c.55,0,1.11,0,1.66.08l3.32.21,1.66.1.83,0,.82.08,3.31.29c2.21.17,4.41.46,6.61.71l.84-7c-2.26-.25-4.52-.55-6.79-.73Z"/><path class="cls-1" d="M272.8,43.3l-.65-7-.65-7-.66-7-.65-7-.65-7c-2.58.2-5.16.53-7.73.82l.84,7,.83,7,.84,7,.84,7,.84,7,.84,7,.84,7c2.14-.23,4.27-.52,6.42-.68l-.65-7Z"/><path class="cls-1" d="M268.52,65c2.07-.22,4.15-.5,6.23-.66l-.65-7c-2.15.16-4.28.45-6.42.68Z"/><path class="cls-1" d="M280.54,56.79l-1.61.1-.81,0-.8.07-3.22.29.65,7,3.13-.28.78-.07.78-.05,1.57-.1,3.13-.2c.52,0,1-.05,1.57-.07l1.57-.06,3.13-.12,3.14,0-.09-7-3.23,0-3.23.13-1.62.06c-.54,0-1.08,0-1.61.07Z"/><path class="cls-1" d="M293.46,56.28l.1,7,3.14,0,3.14,0,3.14,0,3.14.12.28-7-3.23-.13-3.24,0-3.23,0Z"/><path class="cls-1" d="M312.39,63.8l1.56.1.79.05.78.07,3.12.28c2.09.16,4.16.44,6.24.66l.84-7c-2.14-.23-4.28-.52-6.43-.68L316.08,57l-.81-.07-.8,0-1.62-.1-3.22-.21c-.54,0-1.08,0-1.62-.07l-1.61-.06-.28,7,1.57.06c.52,0,1,0,1.57.07Z"/><polygon class="cls-1" points="340.32 3.2 336.38 2.65 334.4 2.38 332.43 2.15 331.59 9.13 333.52 9.35 335.44 9.62 339.3 10.16 340.32 3.2"/><path class="cls-1" d="M354.62,12.83c2.54.53,5.08,1.1,7.61,1.65l1.59-6.85c-2.6-.57-5.19-1.14-7.8-1.69l-3.91-.75-2-.37-1-.19-1-.16-3.93-.65c-1.31-.22-2.62-.44-3.94-.62l-1,7c1.28.17,2.56.38,3.84.6l3.84.63,1,.16.95.18,1.91.37Z"/><path class="cls-1" d="M377.29,18.41l2-6.75c-1.27-.39-2.56-.73-3.84-1.08l-3.85-1c-.64-.18-1.29-.33-1.93-.49l-1.94-.47-3.87-1-1.59,6.85,3.78.92,1.89.46c.63.16,1.26.31,1.89.48l3.76,1C374.8,17.7,376.05,18,377.29,18.41Z"/><path class="cls-1" d="M392.12,23.14l3.67,1.3c1.22.43,2.43.91,3.65,1.37l2.49-6.58c-1.25-.46-2.48-.95-3.73-1.4l-3.76-1.33c-2.5-.9-5-1.7-7.56-2.52l-1.9-.61-1.91-.58-3.82-1.13-2,6.75L381,19.52l1.87.56,1.85.6C387.21,21.48,389.68,22.26,392.12,23.14Z"/><path class="cls-1" d="M387.49,36.42l-2.31,6.63-2.32,6.64-2.31,6.64,3.22,1.13c1.07.39,2.13.81,3.2,1.21l2.49-6.58L392,45.52l2.5-6.57c-1.16-.43-2.3-.89-3.47-1.3Z"/><path class="cls-1" d="M350.43,33.5,349,40.39c2.29.48,4.58,1,6.86,1.49h0l3.41.83,1.71.41c.57.14,1.14.28,1.7.44l3.39.91c1.13.31,2.27.61,3.38,1l2-6.75c-1.15-.36-2.32-.66-3.48-1l-3.48-1c-.58-.16-1.16-.3-1.75-.44L361,35.88l-3.5-.85h0C355.13,34.51,352.78,34,350.43,33.5Z"/><path class="cls-1" d="M355.89,41.88c-2.28-.5-4.57-1-6.86-1.49l1.4-6.89c2.35.49,4.7,1,7.05,1.53l1.58-6.85c-2.41-.53-4.82-1.06-7.23-1.57l1.4-6.89L349.5,19l-1.86-.36-.94-.18-.93-.15-1.22,6.92-1.21,6.92-1.21,6.93L340.92,46l-1.22,6.93.82.13.82.16,1.63.31,3.26.63,1.4-6.89c2.23.47,4.45,1,6.68,1.44Z"/><path class="cls-1" d="M382.86,49.69l2.32-6.64,2.31-6.63L391,37.65c1.17.41,2.31.87,3.47,1.3l2.49-6.57c-1.18-.45-2.36-.91-3.55-1.34l-3.58-1.26c-2.38-.87-4.8-1.62-7.2-2.41l-1.81-.58L379,26.24l-3.64-1.08,2-6.75c-1.24-.38-2.49-.71-3.74-1.05l-3.76-1c-.63-.17-1.26-.32-1.89-.48L366,15.4l-3.78-.92-1.58,6.85,3.69.9,1.84.45c.62.15,1.23.3,1.84.47L366.25,30l3.57,1c1.2.32,2.39.63,3.57,1L376.94,33l1.77.53,1.76.57-2.13,6.7-2.14,6.7-2.13,6.69-1.63-.52-1.63-.49-3.28-1c-1.09-.33-2.19-.62-3.29-.92l-3.3-.89-1.77,6.8c-.53-.15-1.07-.27-1.61-.4l-1.61-.4-3.23-.79-1.58,6.85,3.13.77,1.57.38c.52.13,1.05.25,1.57.4l3.11.84c1,.28,2.08.55,3.11.87l1.95-6.75,3.18.94,1.59.48,1.58.51c2.11.69,4.22,1.35,6.3,2.11l3.13,1.1c1.05.37,2.08.78,3.11,1.17l2.5-6.57c-1.07-.4-2.13-.82-3.2-1.21l-3.22-1.13Z"/><polygon class="cls-1" points="334.17 44.93 335.19 37.97 336.22 31.02 337.25 24.07 338.27 17.11 339.3 10.16 335.45 9.62 333.52 9.35 331.59 9.13 330.75 16.11 329.91 23.09 329.07 30.07 328.23 37.05 327.39 44.03 326.56 51.01 325.72 57.98 327.32 58.16 328.92 58.39 332.12 58.84 333.14 51.88 334.17 44.93"/><polygon class="cls-1" points="324.88 64.96 326.44 65.14 327.99 65.36 331.09 65.79 332.12 58.84 328.92 58.39 327.32 58.16 325.72 57.98 324.88 64.96"/><path class="cls-1" d="M338.49,59.86l-3.18-.53c-1.06-.17-2.12-.36-3.19-.49l-1,7c1,.13,2.07.31,3.1.48l3.09.51.77.13.77.15,1.54.3,3.07.58c2.05.43,4.09.89,6.13,1.33l1.58-6.85-6.31-1.37-3.17-.6-1.58-.31-.79-.15Z"/><path class="cls-1" d="M351.14,62.42l-1.58,6.85,3,.74,1.52.37,1.52.39,3,.82c1,.27,2,.53,3,.84l2-6.75c-1-.32-2.07-.59-3.11-.87L357.41,64c-.52-.15-1.05-.27-1.57-.4l-1.57-.38Z"/><path class="cls-1" d="M367.66,74.26c2,.65,4,1.26,5.94,2l2.95,1c1,.35,2,.74,2.93,1.1l2.5-6.57c-1-.38-2-.78-3-1.14l-3-1.07c-2-.74-4.08-1.37-6.12-2l-1.54-.5-1.54-.46-3.09-.92-2,6.75,3,.9,1.51.44Z"/><polygon class="cls-1" points="409.35 22.16 405.65 20.66 401.93 19.23 399.44 25.81 403.07 27.19 406.68 28.66 409.35 22.16"/><path class="cls-1" d="M420.91,35c.58.28,1.18.54,1.75.83l1.75.87,3.48,1.73,3.19-6.27-3.57-1.77-1.78-.89c-.6-.3-1.21-.57-1.81-.85l-3.61-1.69-1.81-.83-1.82-.8L413,23.69l-.92-.39-.92-.38-1.84-.76-2.68,6.51,1.81.73.9.37.89.39,3.56,1.56,1.79.78c.59.26,1.17.54,1.76.81Z"/><path class="cls-1" d="M441.56,45.81l3.52-6.08c-.56-.34-1.14-.67-1.72-1l-1.74-1-3.48-1.94L434.61,34,432.85,33c-.59-.31-1.17-.63-1.77-.92l-3.19,6.27c.59.28,1.16.59,1.73.89l1.72.91L434.78,42l3.4,1.9,1.7,1C440.44,45.17,441,45.48,441.56,45.81Z"/><path class="cls-1" d="M454.81,54l3.25,2.14c.54.35,1.07.72,1.6,1.09l1.6,1.11,4-5.78-1.64-1.14c-.54-.37-1.09-.75-1.64-1.11l-3.33-2.2L457,47c-.56-.37-1.13-.71-1.69-1.06l-3.38-2.11c-.56-.35-1.12-.71-1.69-1l-1.71-1-3.44-2-3.52,6.09,3.35,2,1.68,1c.56.32,1.1.68,1.65,1l3.3,2.06c.55.34,1.1.67,1.64,1Z"/><path class="cls-1" d="M447.13,65.75l-3.85,5.88-3.84,5.89-3.84,5.89,2.86,1.87c.47.31.94.64,1.41,1l1.4,1,4-5.78,4-5.78,4-5.79-1.52-1.05c-.51-.35-1-.71-1.53-1Z"/><path class="cls-1" d="M411.85,54l-3,6.35c.53.25,1.06.49,1.58.75l1.58.79,3.14,1.56h0c.53.25,1,.53,1.56.8l1.55.82,3.11,1.64,3.07,1.71,1.53.86c.51.29,1,.57,1.52.87L431,64.07c-.51-.31-1-.6-1.56-.9l-1.58-.88-3.14-1.76-3.19-1.68-1.6-.84c-.53-.28-1.06-.56-1.6-.83h0l-3.23-1.6-1.62-.8C413,54.5,412.4,54.26,411.85,54Z"/><path class="cls-1" d="M415.14,63.45,412,61.89l-1.58-.79c-.52-.26-1.06-.5-1.58-.75l3-6.35c.55.26,1.1.5,1.63.78l1.62.8,3.23,1.6,3.19-6.26-3.32-1.65-1.66-.82c-.55-.28-1.11-.53-1.67-.8l3-6.34-3.44-1.61-1.72-.8L411,38.14l-2.85,6.43L405.3,51l-2.85,6.43-2.84,6.43-2.85,6.43,1.52.66c.51.22,1,.47,1.51.7l3,1.4,3-6.35,1.54.73,1.53.76L412,69.71Z"/><path class="cls-1" d="M439.44,77.52l3.84-5.89,3.85-5.89,3.09,2c.51.33,1,.69,1.53,1l1.52,1.05,4-5.78L455.71,63c-.52-.36-1-.72-1.57-1.07L451,59.86l-1.59-1c-.52-.35-1.07-.67-1.6-1l-3.22-2c-.54-.33-1.07-.67-1.61-1l-1.64-1L438,51.9l3.52-6.08c-.55-.34-1.12-.65-1.68-1l-1.7-1-3.4-1.9-3.44-1.81-1.72-.91c-.57-.3-1.15-.61-1.73-.89l-3.19,6.26c.57.28,1.13.58,1.69.87l1.68.89,3.36,1.77-3.36,6.18,3.23,1.8,1.62.9c.54.31,1.08.6,1.6.92l3.19,1.89,1.59.94c.54.31,1.05.65,1.58,1l-3.69,6-3.68,6-3.68,6c-.49-.29-1-.61-1.45-.89L426.9,78,424,76.24c-.48-.3-1-.57-1.48-.85L421,74.56l-3-1.67-3.36,6.18-2.94-1.55-1.47-.78c-.49-.26-1-.52-1.48-.76l-3.18,6.26L407,83l1.43.76,2.85,1.5,2.82,1.58,1.41.78c.47.27.94.53,1.4.81l3.52-6.09L423.3,84l1.43.85c.48.28.94.58,1.42.87L429,87.49c.47.3,1,.58,1.41.89l1.39.91,2.77,1.83c.47.3.92.62,1.38.93l1.36,1,4-5.78-1.4-1c-.47-.33-.94-.66-1.42-1l-2.85-1.87Z"/><polygon class="cls-1" points="393.32 61.18 395.99 54.67 398.66 48.17 401.33 41.67 404 35.17 406.68 28.66 403.07 27.2 399.44 25.81 396.94 32.38 394.45 38.95 391.95 45.52 389.46 52.09 386.97 58.67 384.47 65.24 381.98 71.81 385 72.96 387.98 74.18 390.65 67.68 393.32 61.18"/><polygon class="cls-1" points="379.49 78.38 382.41 79.5 385.31 80.68 387.98 74.18 384.99 72.96 381.98 71.81 379.49 78.38"/><path class="cls-1" d="M393.92,76.71l-3-1.29-.74-.33-.75-.3L388,74.18l-2.67,6.5,1.45.6.73.29.71.31,2.87,1.26,1.44.63c.48.2.94.44,1.42.65l2.84,1.33c.47.22,1,.43,1.41.67l1.4.7,2.81,1.39,3.19-6.27-2.89-1.43-1.45-.72c-.48-.25-1-.46-1.46-.69L396.86,78c-.49-.22-1-.46-1.46-.67Z"/><path class="cls-1" d="M405.58,82.24l-3.19,6.27c.47.23.93.47,1.39.72l1.39.73,2.77,1.46L410.67,93l1.37.76c.46.26.92.51,1.36.78l3.52-6.08c-.46-.28-.93-.54-1.4-.8l-1.41-.79-2.82-1.58-2.85-1.5L407,83Z"/><path class="cls-1" d="M418.78,97.71l2.66,1.66c.44.28.89.54,1.33.83l1.3.87,2.62,1.72c.44.28.87.58,1.3.88l1.29.89,4-5.78L432,97.86c-.44-.31-.88-.62-1.34-.91l-2.69-1.77-1.35-.89c-.45-.3-.91-.57-1.37-.86l-2.73-1.71c-.46-.28-.91-.58-1.38-.85l-1.39-.82-2.78-1.64-3.52,6.08,2.7,1.6,1.35.79C417.9,97.15,418.34,97.43,418.78,97.71Z"/><polygon class="cls-1" points="471.75 57.15 468.53 54.8 465.26 52.53 461.26 58.31 464.46 60.53 467.6 62.82 471.75 57.15"/><path class="cls-1" d="M479.9,72.33c1,.8,2,1.65,3,2.48l3,2.51L490.45,72l-3-2.57c-1-.85-2-1.72-3.06-2.54l-3.1-2.5c-.52-.42-1-.84-1.55-1.24l-1.58-1.22L475,59.51l-.8-.6-.8-.59-1.61-1.17-4.15,5.67L469.17,64l.79.57.77.59,3.08,2.36,1.55,1.19c.51.39,1,.81,1.51,1.21Z"/><path class="cls-1" d="M497.35,87.8l4.87-5.07c-.94-.94-1.93-1.83-2.89-2.74l-2.92-2.71c-1-.89-2-1.76-3-2.65s-2-1.77-3-2.63l-4.59,5.32c1,.85,1.94,1.72,2.92,2.57s1.94,1.72,2.9,2.59l2.85,2.65C495.47,86,496.43,86.88,497.35,87.8Z"/><path class="cls-1" d="M508.27,98.87l2.64,2.85c.87,1,1.73,1.93,2.59,2.9l5.26-4.67c-.88-1-1.76-2-2.65-3l-2.71-2.91c-1.79-2-3.66-3.85-5.51-5.75l-1.4-1.42-1.42-1.39-2.85-2.78-4.87,5.07,2.78,2.71,1.39,1.36,1.36,1.39C504.69,95.12,506.52,97,508.27,98.87Z"/><path class="cls-1" d="M498,108.47l-5.13,4.81-5.14,4.8-5.13,4.8,2.33,2.5,2.27,2.55,5.26-4.66,5.26-4.66,5.26-4.67c-.82-.92-1.63-1.84-2.46-2.76Z"/><path class="cls-1" d="M466.56,88.66l-4.45,5.44c.92.72,1.8,1.49,2.7,2.24l2.68,2.27h0c.89.76,1.75,1.55,2.63,2.32s1.76,1.55,2.63,2.34l2.57,2.39c.85.81,1.72,1.59,2.55,2.41l4.87-5.07c-.85-.85-1.75-1.65-2.62-2.47l-2.64-2.46c-.89-.81-1.8-1.6-2.69-2.4s-1.79-1.6-2.71-2.38h0L469.33,91C468.41,90.19,467.5,89.4,466.56,88.66Z"/><path class="cls-1" d="M467.49,98.61l-2.68-2.27c-.9-.75-1.78-1.52-2.7-2.24l4.45-5.44c.94.74,1.85,1.53,2.77,2.3l2.75,2.33L476.67,88l-2.82-2.39c-.94-.8-1.88-1.6-2.85-2.37l4.45-5.44-2.95-2.38c-.49-.39-1-.8-1.48-1.18l-1.51-1.16-4.3,5.56-4.3,5.56-4.3,5.56-4.3,5.56L448,100.85l1.32,1c.44.34.87.69,1.3,1l2.59,2.08,4.45-5.44c.89.71,1.75,1.45,2.63,2.19l2.61,2.2Z"/><path class="cls-1" d="M487.73,118.08l5.13-4.81,5.14-4.8,2.52,2.71c.83.91,1.64,1.84,2.46,2.76l5.26-4.66c-.84-.94-1.67-1.9-2.52-2.83l-2.59-2.78c-1.7-1.87-3.48-3.66-5.25-5.47l-1.33-1.36-1.35-1.32-2.72-2.65,4.87-5.07c-.92-.92-1.88-1.78-2.82-2.67l-2.85-2.65c-1-.87-1.94-1.72-2.9-2.59s-1.94-1.72-2.92-2.57l-4.59,5.33c1,.82,1.89,1.67,2.84,2.5s1.9,1.68,2.84,2.53l-4.74,5.19,2.71,2.53c.9.84,1.82,1.66,2.69,2.53l2.65,2.59,1.32,1.29,1.3,1.33-5,4.93-5,4.94-5,4.94-1.19-1.22-1.22-1.2L473,113.14c-.8-.8-1.66-1.56-2.48-2.34L468,108.47l-4.73,5.2c-.82-.75-1.66-1.48-2.48-2.22s-1.65-1.48-2.5-2.19l-4.59,5.32c.82.69,1.62,1.42,2.42,2.13l2.42,2.15,2.36,2.2c.79.74,1.59,1.46,2.35,2.22l4.87-5.07,2.38,2.33,1.19,1.16,1.16,1.19c1.55,1.58,3.11,3.15,4.6,4.79l2.27,2.43,2.21,2.49,5.26-4.67-2.27-2.55-2.33-2.5Z"/><polygon class="cls-1" points="446.84 91.18 450.99 85.51 455.15 79.84 459.3 74.16 463.45 68.49 467.6 62.82 464.46 60.53 461.26 58.31 457.27 64.09 453.27 69.87 449.27 75.66 445.27 81.44 441.27 87.22 437.27 93 433.28 98.78 435.93 100.62 438.54 102.53 442.69 96.86 446.84 91.18"/><polygon class="cls-1" points="429.28 104.56 431.86 106.35 434.39 108.2 438.54 102.53 435.93 100.62 433.28 98.78 429.28 104.56"/><path class="cls-1" d="M443.7,106.41l-2.56-2-.64-.49-.65-.47-1.31-1-4.15,5.67,1.27.92.63.46.62.48L439.4,112l1.25,1,1.22,1,2.44,2c.82.64,1.61,1.33,2.41,2l2.4,2,4.59-5.32-2.47-2.09c-.82-.69-1.63-1.4-2.48-2.06l-2.52-2c-.42-.34-.83-.68-1.26-1Z"/><path class="cls-1" d="M453.71,114.58l-4.59,5.32c.79.68,1.57,1.38,2.35,2.07s1.57,1.39,2.34,2.09l2.3,2.14c.76.71,1.54,1.41,2.28,2.15l4.87-5.07c-.76-.76-1.57-1.48-2.35-2.22l-2.36-2.2-2.42-2.15C455.32,116,454.53,115.28,453.71,114.58Z"/><path class="cls-1" d="M462.85,132.76c1.46,1.5,2.94,3,4.35,4.52l2.14,2.3c.7.77,1.38,1.56,2.08,2.34l5.26-4.66c-.72-.8-1.42-1.62-2.15-2.41l-2.2-2.37c-1.45-1.59-3-3.11-4.47-4.66l-1.13-1.15-1.16-1.13-2.31-2.26-4.87,5.07,2.25,2.19,1.12,1.1Z"/><path class="cls-1" d="M524,106l-2.57-3c-.86-1-1.75-2-2.63-3l-5.26,4.67c.86,1,1.73,1.93,2.57,2.91l2.51,3Z"/><path class="cls-1" d="M528.27,122.67l.59.77.57.78,1.15,1.57,2.29,3.15,5.72-4.08-2.34-3.22L535.07,120l-.58-.8-.61-.79-2.42-3.16-1.21-1.58L529,112.15c-1.67-2.07-3.31-4.16-5-6.17l-5.38,4.52c1.69,2,3.29,4,4.92,6,.41.51.82,1,1.22,1.52l1.18,1.54Z"/><path class="cls-1" d="M541.53,141.85l5.94-3.76c-.36-.56-.7-1.13-1.07-1.68l-1.09-1.67-2.19-3.32c-.36-.56-.74-1.1-1.12-1.65l-1.13-1.64-2.28-3.27-5.72,4.08,2.21,3.19,1.11,1.6c.37.53.74,1.06,1.09,1.61l2.14,3.25,1.07,1.62C540.85,140.75,541.18,141.31,541.53,141.85Z"/><path class="cls-1" d="M549.49,155.22l1.9,3.39,1.82,3.44,6.22-3.27-1.86-3.52-1.94-3.48-1-1.74c-.32-.58-.64-1.16-1-1.73l-2-3.43-1-1.71c-.33-.58-.69-1.13-1-1.7l-2.11-3.38-5.94,3.76,2.06,3.3c.34.56.69,1.1,1,1.66l1,1.67,2,3.35c.33.56.65,1.12,1,1.69Z"/><polygon class="cls-1" points="537.23 162.09 531.1 165.53 524.97 168.97 518.84 172.41 520.51 175.39 522.1 178.41 528.32 175.14 534.54 171.87 540.77 168.6 539.04 165.32 537.23 162.09"/><path class="cls-1" d="M511.42,135.35l-5.62,4.22.53.7.52.71,1,1.42,2.07,2.84h0l2,2.88,1,1.45c.33.48.67,1,1,1.45l1.93,2.93,1,1.47c.33.49.63,1,.94,1.48l5.94-3.76c-.32-.51-.63-1-1-1.52l-1-1.51-2-3c-.33-.51-.67-1-1-1.49l-1-1.48-2.06-3h0l-2.12-2.91-1.06-1.46-.54-.73Z"/><path class="cls-1" d="M510,145.24l-2.07-2.84-1-1.42-.52-.71-.53-.7,5.62-4.22.54.71.54.73,1.06,1.46,2.12,2.91,5.73-4.07-2.18-3-1.09-1.5-.54-.74-.57-.74,5.62-4.23-2.31-3-1.15-1.5c-.39-.5-.79-1-1.19-1.48l-5.5,4.37-5.5,4.38L501.5,134,496,138.4l-5.5,4.38,1,1.29,1,1.32,2,2.64,5.61-4.23.52.68.51.69,1,1.38,2,2.76Z"/><path class="cls-1" d="M525,169l6.13-3.44,6.13-3.44,1.81,3.23,1.73,3.28,6.22-3.28L545.22,162l-1.86-3.32-.92-1.65c-.31-.56-.62-1.11-.94-1.65l-1.93-3.27-1-1.63c-.32-.55-.67-1.08-1-1.61l-2-3.22,5.94-3.77c-.35-.54-.68-1.1-1-1.64l-1.07-1.62-2.14-3.25c-.35-.55-.72-1.08-1.09-1.61l-1.11-1.6-2.21-3.19L527.14,133l2.16,3.12,1.08,1.56c.36.52.73,1,1.07,1.57l-5.83,3.92,2,3.09,1,1.54c.34.52.66,1.05,1,1.57l2,3.14c.33.52.67,1,1,1.57l.94,1.6-6,3.6-6,3.6-6,3.6-.87-1.47c-.29-.49-.6-1-.9-1.45l-1.81-2.9c-.3-.48-.59-1-.91-1.45l-.94-1.43-1.88-2.85-5.84,3.92c-.29-.47-.61-.92-.93-1.37l-.95-1.37-1.89-2.73-5.73,4.07,1.84,2.66.92,1.32c.31.45.62.89.91,1.34l1.78,2.7.89,1.35c.29.44.57.91.86,1.36l5.93-3.76,1.76,2.82c.29.47.6.93.88,1.41l.84,1.43,1.69,2.86c.29.48.56,1,.83,1.44l.81,1.45,1.62,2.9,1.55,2.94,6.22-3.27-1.59-3-1.67-3Z"/><path class="cls-1" d="M491.67,133.11l5.38-4.52,5.38-4.52,5.39-4.52L513.2,115l5.38-4.52-2.51-3c-.84-1-1.71-2-2.57-2.92l-5.26,4.66L503,113.94l-5.26,4.67-5.26,4.66-5.26,4.66-5.26,4.67-5.26,4.66c.71.81,1.44,1.6,2.14,2.42l2.08,2.47,5.38-4.52Z"/><path class="cls-1" d="M471.42,141.92c.69.79,1.4,1.56,2.08,2.36l2,2.39,5.38-4.52-2.08-2.47c-.7-.82-1.43-1.61-2.14-2.42Z"/><path class="cls-1" d="M485,147.15c-1.36-1.67-2.69-3.37-4.1-5l-5.38,4.52c1.37,1.58,2.65,3.23,4,4.86.33.41.66.81,1,1.22l1,1.24,1.9,2.49.48.63.46.63.93,1.27,1.85,2.53,5.72-4.08-1.9-2.61-.95-1.3-.48-.65-.49-.64-2-2.57-1-1.28C485.68,148,485.33,147.57,485,147.15Z"/><path class="cls-1" d="M492.77,157.46l-5.72,4.08,1.78,2.58.89,1.28c.3.43.6.86.89,1.3l1.72,2.62.86,1.31c.29.43.56.88.84,1.32l5.94-3.76c-.29-.45-.57-.92-.87-1.36l-.88-1.35-1.78-2.7c-.29-.45-.6-.89-.91-1.33l-.92-1.33Z"/><path class="cls-1" d="M497.31,177.3,498.9,180c.28.45.53.91.78,1.36l.76,1.37,1.54,2.73,1.46,2.78,6.22-3.28-1.51-2.85-1.57-2.82-.79-1.41c-.26-.47-.52-.94-.8-1.4l-1.64-2.78-.82-1.39-.85-1.37L500,168.19,494,172l1.66,2.66c.27.45.56.88.82,1.34Z"/><path class="cls-1" d="M563.05,165.88l-1.78-3.57c-.29-.59-.6-1.18-.91-1.77l-.93-1.76-6.22,3.27.91,1.72c.3.58.6,1.15.89,1.73l1.73,3.49Z"/><path class="cls-1" d="M563.24,183.13l.38.89.37.9.74,1.8,1.47,3.6,6.54-2.58-1.51-3.69-.75-1.85-.38-.92-.4-.91-1.59-3.65-.8-1.83c-.27-.61-.56-1.2-.84-1.81l-1.68-3.61c-.29-.6-.56-1.21-.86-1.8l-.88-1.79L556.74,169l.86,1.74c.29.58.56,1.17.84,1.76l1.64,3.52c.27.59.56,1.18.82,1.77l.78,1.78Z"/><path class="cls-1" d="M571.52,205l6.66-2.22c-.39-1.27-.85-2.52-1.29-3.77l-1.33-3.76c-.44-1.25-.93-2.49-1.4-3.73l-1.42-3.73-6.54,2.58,1.39,3.64c.45,1.21.93,2.42,1.37,3.64l1.29,3.67C570.68,202.5,571.13,203.71,571.52,205Z"/><path class="cls-1" d="M576,219.85l1,3.75q.26.94.48,1.89l.46,1.89,6.83-1.68-.48-1.93c-.15-.65-.31-1.29-.49-1.93l-1-3.85c-.67-2.58-1.46-5.11-2.21-7.66l-.57-1.91-.61-1.9-1.24-3.79L571.52,205l1.2,3.71.6,1.85.56,1.86C574.61,214.86,575.38,217.34,576,219.85Z"/><path class="cls-1" d="M562.48,223.57l-6.78,1.86-6.78,1.86-6.78,1.86.89,3.3c.16.55.29,1.1.43,1.66l.4,1.66,6.83-1.68,6.82-1.68,6.83-1.67-.44-1.8c-.15-.6-.29-1.2-.46-1.8Z"/><path class="cls-1" d="M543.84,191.4l-6.47,2.76.35.8.34.82.66,1.62,1.33,3.25h0l1.25,3.28c.41,1.1.84,2.19,1.24,3.29l1.16,3.31c.39,1.11.8,2.21,1.14,3.32l6.67-2.22c-.36-1.15-.77-2.28-1.17-3.41l-1.2-3.4c-.4-1.14-.85-2.25-1.27-3.38l-1.28-3.37h0l-1.37-3.34-.68-1.67-.34-.83Z"/><path class="cls-1" d="M540.05,200.65l-1.33-3.25-.66-1.62-.34-.82-.35-.8,6.47-2.76.36.83.34.83.68,1.67,1.37,3.34,6.54-2.58-1.4-3.43-.7-1.71-.36-.86-.36-.85,6.46-2.76-1.52-3.47-.76-1.74c-.25-.58-.53-1.15-.79-1.73l-6.39,2.94-6.39,2.93-6.39,2.93-6.39,2.93-6.39,2.93c.23.51.47,1,.7,1.51l.66,1.52,1.33,3.05,6.47-2.76.34.78.32.79.65,1.58,1.29,3.17Z"/><path class="cls-1" d="M548.92,227.29l6.78-1.86,6.78-1.86,1,3.57c.17.6.31,1.2.46,1.8l.44,1.79,6.83-1.67-.45-1.85c-.15-.61-.3-1.23-.47-1.84l-1-3.66c-.64-2.45-1.39-4.87-2.11-7.3l-.54-1.81-.59-1.81-1.17-3.61,6.67-2.23c-.39-1.23-.84-2.45-1.27-3.68L569,197.6c-.44-1.22-.92-2.43-1.37-3.64l-1.39-3.64-6.54,2.58,1.36,3.55c.44,1.19.91,2.36,1.33,3.56l-6.6,2.4L557,205.9c.4,1.17.83,2.33,1.2,3.5l1.14,3.52.58,1.77.53,1.77-6.73,2L547,220.55l-6.72,2-.49-1.64-.53-1.62-1.05-3.25c-.34-1.09-.74-2.16-1.11-3.23l-1.14-3.22-6.61,2.4c-.37-1-.78-2.07-1.17-3.11l-1.18-3.1-6.53,2.58,1.14,3c.38,1,.78,2,1.14,3l1.07,3c.35,1,.73,2,1.05,3.05l6.67-2.23,1,3.16.52,1.58.47,1.59c.62,2.13,1.29,4.24,1.84,6.38l.87,3.21c.15.53.28,1.07.41,1.61l.39,1.61,6.83-1.67-.41-1.66c-.13-.56-.26-1.11-.42-1.66l-.89-3.3Z"/><path class="cls-1" d="M525.2,184.5l6.31-3.1,6.31-3.1,6.3-3.11,6.31-3.1,6.31-3.1L555,165.5c-.29-.58-.59-1.15-.89-1.73l-.91-1.72L547,165.32l-6.22,3.28-6.23,3.27-6.22,3.27-6.22,3.27-6.22,3.27L509.66,185l.75,1.42c.25.48.51,1,.74,1.44l1.44,2.89,6.3-3.1Z"/><path class="cls-1" d="M503.44,188.23l.73,1.38c.24.46.49.92.72,1.39l1.39,2.81,6.31-3.1-1.44-2.89c-.23-.49-.49-1-.74-1.44l-.75-1.42Z"/><path class="cls-1" d="M515.36,196.54,514,193.61c-.24-.48-.45-1-.69-1.46l-.72-1.44-6.31,3.1.7,1.4c.23.47.44.95.67,1.42l1.32,2.84c.22.47.45.94.66,1.42l.63,1.43,1.25,2.87.31.72.3.72.59,1.45,1.19,2.9,6.54-2.58-1.23-3-.61-1.49-.3-.75-.32-.74-1.3-3L516,198C515.82,197.51,515.59,197,515.36,196.54Z"/><path class="cls-1" d="M520.43,208.4,513.9,211l1.11,2.93c.37,1,.75,2,1.11,2.93l1,2.95c.35,1,.71,2,1,3l6.67-2.22c-.32-1-.7-2-1.05-3.05l-1.07-3c-.36-1-.76-2-1.14-3Z"/><path class="cls-1" d="M520.07,228.72c.59,2,1.22,4,1.74,6l.81,3c.15.5.27,1,.39,1.52l.37,1.52,6.83-1.68-.38-1.57c-.13-.52-.25-1-.4-1.56l-.85-3.12c-.53-2.08-1.18-4.13-1.78-6.19l-.46-1.55-.5-1.53-1-3.07-6.67,2.22,1,3,.48,1.49Z"/><polygon class="cls-1" points="586.62 233.47 585.76 229.58 584.82 225.71 577.99 227.38 578.91 231.16 579.75 234.96 586.62 233.47"/><path class="cls-1" d="M582.64,250.25c.45,2.56.77,5.13,1.14,7.7l7-.93c-.37-2.63-.7-5.27-1.16-7.89l-.65-3.93-.17-1-.18-1-.38-2-.75-3.92c-.26-1.3-.56-2.6-.83-3.9L579.75,235c.27,1.27.56,2.54.81,3.81l.74,3.82.36,1.91.18,1,.16,1Z"/><path class="cls-1" d="M585.43,273.41l7-.56-.35-4c-.12-1.32-.23-2.65-.39-4l-.45-4-.23-2-.28-2-7,.93.26,1.93.23,1.93.44,3.86c.16,1.29.26,2.58.38,3.87Z"/><path class="cls-1" d="M586.26,288.93c0,2.59.07,5.18.1,7.77h7c0-2.65,0-5.3-.1-7.95l-.15-4-.08-2c0-.66,0-1.32-.09-2l-.25-4-.13-2-.06-1-.09-1-7,.56.09,1,.06,1,.12,1.94.25,3.88c0,.64.06,1.29.09,1.94l.07,1.94Z"/><path class="cls-1" d="M572.21,289.3l-7,.19-7,.18-7,.19.1,6.84h21.09C572.27,294.23,572.25,291.77,572.21,289.3Z"/><path class="cls-1" d="M561.82,253.61l-6.94,1.12c.41,2.31.69,4.63,1,7h0l.24,1.74.2,1.74.4,3.49c.14,1.16.24,2.33.34,3.5l.31,3.5,7-.56-.32-3.6c-.11-1.19-.2-2.39-.35-3.58l-.41-3.59-.21-1.79-.25-1.78h0C562.53,258.37,562.24,256,561.82,253.61Z"/><path class="cls-1" d="M555.91,261.68c-.34-2.32-.62-4.64-1-7l6.94-1.12c.42,2.37.71,4.76,1,7.14l7-.94c-.35-2.44-.65-4.89-1.08-7.32l6.94-1.12-.62-3.74-.16-.94-.17-.93-.36-1.86-6.91,1.3-6.91,1.31-6.9,1.3-6.91,1.31-6.91,1.31.32,1.63.15.81.14.82L541,257l6.94-1.12c.4,2.24.67,4.51,1,6.76Z"/><path class="cls-1" d="M558.15,289.67l7-.18,7-.19c0,2.47.06,4.93.1,7.4h7c0-2.53-.06-5.06-.11-7.58l-.14-3.79-.07-1.9c0-.63,0-1.26-.09-1.89l-.24-3.79-.12-1.89-.06-.94-.08-.95,7-.56-.34-3.87c-.12-1.29-.22-2.58-.38-3.87l-.44-3.86-.23-1.93-.26-1.93-7,.93.26,1.88.22,1.89.43,3.77-7,.74c.15,1.23.25,2.45.36,3.68l.33,3.69.08.92.06.92.12,1.85.23,3.69-7,.37-7,.37-7,.38-.22-3.42-.1-1.7-.06-.86-.08-.85-.3-3.4c-.1-1.14-.19-2.27-.33-3.4l-7,.74-.38-3.3-.19-1.65-.23-1.65-7,.93.22,1.6.18,1.61.37,3.21c.13,1.06.22,2.14.31,3.21l.29,3.22,7-.56.07.83,0,.83.11,1.66.21,3.32c0,.55,0,1.1.08,1.66l.06,1.66.13,3.32.09,6.66h7l-.1-6.84Z"/><polygon class="cls-1" points="545.4 242.42 552.27 240.93 559.14 239.44 566.01 237.95 572.88 236.46 579.75 234.97 578.91 231.16 577.99 227.38 571.17 229.06 564.34 230.74 557.51 232.41 550.69 234.09 543.86 235.77 537.03 237.44 530.21 239.12 530.97 242.25 531.66 245.41 538.53 243.92 545.4 242.42"/><polygon class="cls-1" points="523.38 240.8 524.13 243.84 524.79 246.9 531.66 245.41 530.97 242.25 530.21 239.12 523.38 240.8"/><path class="cls-1" d="M533,251.73l-.61-3.17c-.21-1.05-.45-2.1-.68-3.15l-6.87,1.49c.22,1,.46,2,.66,3.06L526,253l.29,1.54.15.76.13.78.51,3.09c.37,2.05.62,4.13.92,6.2l7-.94c-.31-2.13-.57-4.26-1-6.38l-.53-3.19-.13-.79-.15-.79Z"/><path class="cls-1" d="M535,264.48l-7,.93.22,1.55.17,1.56.36,3.11c.13,1,.21,2.08.3,3.12l.28,3.13,7-.56-.29-3.22c-.09-1.07-.18-2.15-.31-3.21l-.37-3.21-.18-1.61Z"/><path class="cls-1" d="M529.79,284.14c0,.52.05,1,.07,1.57l.06,1.57.12,3.13.09,6.29h7l-.09-6.47L537,287l-.06-1.62c0-.54,0-1.07-.08-1.61l-.2-3.23-.11-1.61,0-.81-.07-.8-7,.56.07.78,0,.78.1,1.57Z"/></g></g></svg>