<?xml version="1.0" encoding="UTF-8"?>
<svg id="Capa_2" data-name="Capa 2" xmlns="http://www.w3.org/2000/svg" viewBox="0 0 26.2 273">
  <defs>
    <style>
      .cls-1 {
        fill: #ffffff;
        stroke-width: 0px;
      }
    </style>
  </defs>
  <g id="texto">
    <g>
      <g>
        <rect class="cls-1" x="23.29" width="2.91" height="3.03"/>
        <polygon class="cls-1" points="23.29 9.1 23.29 12.13 26.2 12.13 26.2 9.1 26.2 6.07 26.2 3.03 23.29 3.03 23.29 6.07 23.29 9.1"/>
        <polygon class="cls-1" points="23.29 18.2 26.2 18.2 26.2 15.17 26.2 12.13 23.29 12.13 23.29 15.17 23.29 18.2"/>
        <polygon class="cls-1" points="23.29 24.27 23.29 27.3 26.2 27.3 26.2 24.27 26.2 21.23 26.2 18.2 23.29 18.2 23.29 21.23 23.29 24.27"/>
        <polygon class="cls-1" points="17.47 24.27 14.56 24.27 11.65 24.27 8.73 24.27 8.73 27.3 11.65 27.3 14.56 27.3 17.47 27.3 17.47 24.27"/>
        <polygon class="cls-1" points="14.56 9.1 11.65 9.1 11.65 12.13 11.65 12.13 11.65 15.17 11.65 18.2 14.56 18.2 14.56 15.17 14.56 12.13 14.56 12.13 14.56 9.1"/>
        <polygon class="cls-1" points="11.65 12.13 11.65 9.1 14.56 9.1 14.56 12.13 17.47 12.13 17.47 9.1 20.38 9.1 20.38 6.07 17.47 6.07 14.56 6.07 11.65 6.07 8.73 6.07 5.82 6.07 5.82 9.1 8.73 9.1 8.73 12.13 11.65 12.13"/>
        <polygon class="cls-1" points="11.65 24.27 14.56 24.27 17.47 24.27 17.47 27.3 20.38 27.3 20.38 24.27 20.38 21.23 20.38 18.2 23.29 18.2 23.29 15.17 23.29 12.13 20.38 12.13 20.38 15.17 17.47 15.17 17.47 18.2 17.47 21.23 14.56 21.23 11.65 21.23 8.73 21.23 8.73 18.2 8.73 15.17 5.82 15.17 5.82 12.13 2.91 12.13 2.91 15.17 2.91 18.2 5.82 18.2 5.82 21.23 5.82 24.27 5.82 27.3 8.73 27.3 8.73 24.27 11.65 24.27"/>
        <polygon class="cls-1" points="8.73 3.03 11.65 3.03 14.56 3.03 17.47 3.03 20.38 3.03 23.29 3.03 23.29 0 20.38 0 17.47 0 14.56 0 11.65 0 8.73 0 5.82 0 2.91 0 2.91 3.03 5.82 3.03 8.73 3.03"/>
        <rect class="cls-1" width="2.91" height="3.03"/>
        <polygon class="cls-1" points="2.91 6.07 2.91 3.03 0 3.03 0 6.07 0 9.1 0 12.13 2.91 12.13 2.91 9.1 2.91 6.07"/>
        <polygon class="cls-1" points="2.91 12.13 0 12.13 0 15.17 0 18.2 2.91 18.2 2.91 15.17 2.91 12.13"/>
        <polygon class="cls-1" points="0 21.23 0 24.27 0 27.3 2.91 27.3 2.91 24.27 2.91 21.23 2.91 18.2 0 18.2 0 21.23"/>
      </g>
      <g>
        <rect class="cls-1" x="23.29" y="27.3" width="2.91" height="3.03"/>
        <polygon class="cls-1" points="23.29 36.4 23.29 39.43 26.2 39.43 26.2 36.4 26.2 33.37 26.2 30.33 23.29 30.33 23.29 33.37 23.29 36.4"/>
        <polygon class="cls-1" points="23.29 45.5 26.2 45.5 26.2 42.47 26.2 39.43 23.29 39.43 23.29 42.47 23.29 45.5"/>
        <polygon class="cls-1" points="23.29 51.57 23.29 54.6 26.2 54.6 26.2 51.57 26.2 48.53 26.2 45.5 23.29 45.5 23.29 48.53 23.29 51.57"/>
        <polygon class="cls-1" points="17.47 51.57 14.56 51.57 11.65 51.57 8.73 51.57 8.73 54.6 11.65 54.6 14.56 54.6 17.47 54.6 17.47 51.57"/>
        <polygon class="cls-1" points="14.56 36.4 11.65 36.4 11.65 39.43 11.65 39.43 11.65 42.47 11.65 45.5 14.56 45.5 14.56 42.47 14.56 39.43 14.56 39.43 14.56 36.4"/>
        <polygon class="cls-1" points="11.65 39.43 11.65 36.4 14.56 36.4 14.56 39.43 17.47 39.43 17.47 36.4 20.38 36.4 20.38 33.37 17.47 33.37 14.56 33.37 11.65 33.37 8.73 33.37 5.82 33.37 5.82 36.4 8.73 36.4 8.73 39.43 11.65 39.43"/>
        <polygon class="cls-1" points="11.65 51.57 14.56 51.57 17.47 51.57 17.47 54.6 20.38 54.6 20.38 51.57 20.38 48.53 20.38 45.5 23.29 45.5 23.29 42.47 23.29 39.43 20.38 39.43 20.38 42.47 17.47 42.47 17.47 45.5 17.47 48.53 14.56 48.53 11.65 48.53 8.73 48.53 8.73 45.5 8.73 42.47 5.82 42.47 5.82 39.43 2.91 39.43 2.91 42.47 2.91 45.5 5.82 45.5 5.82 48.53 5.82 51.57 5.82 54.6 8.73 54.6 8.73 51.57 11.65 51.57"/>
        <polygon class="cls-1" points="8.73 30.33 11.65 30.33 14.56 30.33 17.47 30.33 20.38 30.33 23.29 30.33 23.29 27.3 20.38 27.3 17.47 27.3 14.56 27.3 11.65 27.3 8.73 27.3 5.82 27.3 2.91 27.3 2.91 30.33 5.82 30.33 8.73 30.33"/>
        <rect class="cls-1" y="27.3" width="2.91" height="3.03"/>
        <polygon class="cls-1" points="2.91 33.37 2.91 30.33 0 30.33 0 33.37 0 36.4 0 39.43 2.91 39.43 2.91 36.4 2.91 33.37"/>
        <polygon class="cls-1" points="2.91 39.43 0 39.43 0 42.47 0 45.5 2.91 45.5 2.91 42.47 2.91 39.43"/>
        <polygon class="cls-1" points="0 48.53 0 51.57 0 54.6 2.91 54.6 2.91 51.57 2.91 48.53 2.91 45.5 0 45.5 0 48.53"/>
      </g>
      <g>
        <rect class="cls-1" x="23.29" y="54.6" width="2.91" height="3.03"/>
        <polygon class="cls-1" points="23.29 63.7 23.29 66.73 26.2 66.73 26.2 63.7 26.2 60.67 26.2 57.63 23.29 57.63 23.29 60.67 23.29 63.7"/>
        <polygon class="cls-1" points="23.29 72.8 26.2 72.8 26.2 69.77 26.2 66.73 23.29 66.73 23.29 69.77 23.29 72.8"/>
        <polygon class="cls-1" points="23.29 78.87 23.29 81.9 26.2 81.9 26.2 78.87 26.2 75.83 26.2 72.8 23.29 72.8 23.29 75.83 23.29 78.87"/>
        <polygon class="cls-1" points="17.47 78.87 14.56 78.87 11.65 78.87 8.73 78.87 8.73 81.9 11.65 81.9 14.56 81.9 17.47 81.9 17.47 78.87"/>
        <polygon class="cls-1" points="14.56 63.7 11.65 63.7 11.65 66.73 11.65 66.73 11.65 69.77 11.65 72.8 14.56 72.8 14.56 69.77 14.56 66.73 14.56 66.73 14.56 63.7"/>
        <polygon class="cls-1" points="11.65 66.73 11.65 63.7 14.56 63.7 14.56 66.73 17.47 66.73 17.47 63.7 20.38 63.7 20.38 60.67 17.47 60.67 14.56 60.67 11.65 60.67 8.73 60.67 5.82 60.67 5.82 63.7 8.73 63.7 8.73 66.73 11.65 66.73"/>
        <polygon class="cls-1" points="11.65 78.87 14.56 78.87 17.47 78.87 17.47 81.9 20.38 81.9 20.38 78.87 20.38 75.83 20.38 72.8 23.29 72.8 23.29 69.77 23.29 66.73 20.38 66.73 20.38 69.77 17.47 69.77 17.47 72.8 17.47 75.83 14.56 75.83 11.65 75.83 8.73 75.83 8.73 72.8 8.73 69.77 5.82 69.77 5.82 66.73 2.91 66.73 2.91 69.77 2.91 72.8 5.82 72.8 5.82 75.83 5.82 78.87 5.82 81.9 8.73 81.9 8.73 78.87 11.65 78.87"/>
        <polygon class="cls-1" points="8.73 57.63 11.65 57.63 14.56 57.63 17.47 57.63 20.38 57.63 23.29 57.63 23.29 54.6 20.38 54.6 17.47 54.6 14.56 54.6 11.65 54.6 8.73 54.6 5.82 54.6 2.91 54.6 2.91 57.63 5.82 57.63 8.73 57.63"/>
        <rect class="cls-1" y="54.6" width="2.91" height="3.03"/>
        <polygon class="cls-1" points="2.91 60.67 2.91 57.63 0 57.63 0 60.67 0 63.7 0 66.73 2.91 66.73 2.91 63.7 2.91 60.67"/>
        <polygon class="cls-1" points="2.91 66.73 0 66.73 0 69.77 0 72.8 2.91 72.8 2.91 69.77 2.91 66.73"/>
        <polygon class="cls-1" points="0 75.83 0 78.87 0 81.9 2.91 81.9 2.91 78.87 2.91 75.83 2.91 72.8 0 72.8 0 75.83"/>
      </g>
      <g>
        <rect class="cls-1" x="23.29" y="81.9" width="2.91" height="3.03"/>
        <polygon class="cls-1" points="23.29 91 23.29 94.03 26.2 94.03 26.2 91 26.2 87.97 26.2 84.93 23.29 84.93 23.29 87.97 23.29 91"/>
        <polygon class="cls-1" points="23.29 100.1 26.2 100.1 26.2 97.07 26.2 94.03 23.29 94.03 23.29 97.07 23.29 100.1"/>
        <polygon class="cls-1" points="23.29 106.17 23.29 109.2 26.2 109.2 26.2 106.17 26.2 103.13 26.2 100.1 23.29 100.1 23.29 103.13 23.29 106.17"/>
        <polygon class="cls-1" points="17.47 106.17 14.56 106.17 11.65 106.17 8.73 106.17 8.73 109.2 11.65 109.2 14.56 109.2 17.47 109.2 17.47 106.17"/>
        <polygon class="cls-1" points="14.56 91 11.65 91 11.65 94.03 11.65 94.03 11.65 97.07 11.65 100.1 14.56 100.1 14.56 97.07 14.56 94.03 14.56 94.03 14.56 91"/>
        <polygon class="cls-1" points="11.65 94.03 11.65 91 14.56 91 14.56 94.03 17.47 94.03 17.47 91 20.38 91 20.38 87.97 17.47 87.97 14.56 87.97 11.65 87.97 8.73 87.97 5.82 87.97 5.82 91 8.73 91 8.73 94.03 11.65 94.03"/>
        <polygon class="cls-1" points="11.65 106.17 14.56 106.17 17.47 106.17 17.47 109.2 20.38 109.2 20.38 106.17 20.38 103.13 20.38 100.1 23.29 100.1 23.29 97.07 23.29 94.03 20.38 94.03 20.38 97.07 17.47 97.07 17.47 100.1 17.47 103.13 14.56 103.13 11.65 103.13 8.73 103.13 8.73 100.1 8.73 97.07 5.82 97.07 5.82 94.03 2.91 94.03 2.91 97.07 2.91 100.1 5.82 100.1 5.82 103.13 5.82 106.17 5.82 109.2 8.73 109.2 8.73 106.17 11.65 106.17"/>
        <polygon class="cls-1" points="8.73 84.93 11.65 84.93 14.56 84.93 17.47 84.93 20.38 84.93 23.29 84.93 23.29 81.9 20.38 81.9 17.47 81.9 14.56 81.9 11.65 81.9 8.73 81.9 5.82 81.9 2.91 81.9 2.91 84.93 5.82 84.93 8.73 84.93"/>
        <rect class="cls-1" y="81.9" width="2.91" height="3.03"/>
        <polygon class="cls-1" points="2.91 87.97 2.91 84.93 0 84.93 0 87.97 0 91 0 94.03 2.91 94.03 2.91 91 2.91 87.97"/>
        <polygon class="cls-1" points="2.91 94.03 0 94.03 0 97.07 0 100.1 2.91 100.1 2.91 97.07 2.91 94.03"/>
        <polygon class="cls-1" points="0 103.13 0 106.17 0 109.2 2.91 109.2 2.91 106.17 2.91 103.13 2.91 100.1 0 100.1 0 103.13"/>
      </g>
      <g>
        <rect class="cls-1" x="23.29" y="109.2" width="2.91" height="3.03"/>
        <polygon class="cls-1" points="23.29 118.3 23.29 121.33 26.2 121.33 26.2 118.3 26.2 115.27 26.2 112.23 23.29 112.23 23.29 115.27 23.29 118.3"/>
        <polygon class="cls-1" points="23.29 127.4 26.2 127.4 26.2 124.37 26.2 121.33 23.29 121.33 23.29 124.37 23.29 127.4"/>
        <polygon class="cls-1" points="23.29 133.47 23.29 136.5 26.2 136.5 26.2 133.47 26.2 130.43 26.2 127.4 23.29 127.4 23.29 130.43 23.29 133.47"/>
        <polygon class="cls-1" points="17.47 133.47 14.56 133.47 11.65 133.47 8.73 133.47 8.73 136.5 11.65 136.5 14.56 136.5 17.47 136.5 17.47 133.47"/>
        <polygon class="cls-1" points="14.56 118.3 11.65 118.3 11.65 121.33 11.65 121.33 11.65 124.37 11.65 127.4 14.56 127.4 14.56 124.37 14.56 121.33 14.56 121.33 14.56 118.3"/>
        <polygon class="cls-1" points="11.65 121.33 11.65 118.3 14.56 118.3 14.56 121.33 17.47 121.33 17.47 118.3 20.38 118.3 20.38 115.27 17.47 115.27 14.56 115.27 11.65 115.27 8.73 115.27 5.82 115.27 5.82 118.3 8.73 118.3 8.73 121.33 11.65 121.33"/>
        <polygon class="cls-1" points="11.65 133.47 14.56 133.47 17.47 133.47 17.47 136.5 20.38 136.5 20.38 133.47 20.38 130.43 20.38 127.4 23.29 127.4 23.29 124.37 23.29 121.33 20.38 121.33 20.38 124.37 17.47 124.37 17.47 127.4 17.47 130.43 14.56 130.43 11.65 130.43 8.73 130.43 8.73 127.4 8.73 124.37 5.82 124.37 5.82 121.33 2.91 121.33 2.91 124.37 2.91 127.4 5.82 127.4 5.82 130.43 5.82 133.47 5.82 136.5 8.73 136.5 8.73 133.47 11.65 133.47"/>
        <polygon class="cls-1" points="8.73 112.23 11.65 112.23 14.56 112.23 17.47 112.23 20.38 112.23 23.29 112.23 23.29 109.2 20.38 109.2 17.47 109.2 14.56 109.2 11.65 109.2 8.73 109.2 5.82 109.2 2.91 109.2 2.91 112.23 5.82 112.23 8.73 112.23"/>
        <rect class="cls-1" y="109.2" width="2.91" height="3.03"/>
        <polygon class="cls-1" points="2.91 115.27 2.91 112.23 0 112.23 0 115.27 0 118.3 0 121.33 2.91 121.33 2.91 118.3 2.91 115.27"/>
        <polygon class="cls-1" points="2.91 121.33 0 121.33 0 124.37 0 127.4 2.91 127.4 2.91 124.37 2.91 121.33"/>
        <polygon class="cls-1" points="0 130.43 0 133.47 0 136.5 2.91 136.5 2.91 133.47 2.91 130.43 2.91 127.4 0 127.4 0 130.43"/>
      </g>
      <g>
        <rect class="cls-1" x="23.29" y="136.5" width="2.91" height="3.03"/>
        <polygon class="cls-1" points="23.29 145.6 23.29 148.63 26.2 148.63 26.2 145.6 26.2 142.57 26.2 139.53 23.29 139.53 23.29 142.57 23.29 145.6"/>
        <polygon class="cls-1" points="23.29 154.7 26.2 154.7 26.2 151.67 26.2 148.63 23.29 148.63 23.29 151.67 23.29 154.7"/>
        <polygon class="cls-1" points="23.29 160.76 23.29 163.8 26.2 163.8 26.2 160.76 26.2 157.73 26.2 154.7 23.29 154.7 23.29 157.73 23.29 160.76"/>
        <polygon class="cls-1" points="17.47 160.77 14.56 160.77 11.65 160.77 8.73 160.77 8.73 163.8 11.65 163.8 14.56 163.8 17.47 163.8 17.47 160.77"/>
        <polygon class="cls-1" points="14.56 145.6 11.65 145.6 11.65 148.63 11.65 148.63 11.65 151.67 11.65 154.7 14.56 154.7 14.56 151.67 14.56 148.63 14.56 148.63 14.56 145.6"/>
        <polygon class="cls-1" points="11.65 148.63 11.65 145.6 14.56 145.6 14.56 148.63 17.47 148.63 17.47 145.6 20.38 145.6 20.38 142.57 17.47 142.57 14.56 142.57 11.65 142.57 8.73 142.57 5.82 142.57 5.82 145.6 8.73 145.6 8.73 148.63 11.65 148.63"/>
        <polygon class="cls-1" points="11.65 160.76 14.56 160.76 17.47 160.76 17.47 163.8 20.38 163.8 20.38 160.76 20.38 157.73 20.38 154.7 23.29 154.7 23.29 151.67 23.29 148.63 20.38 148.63 20.38 151.67 17.47 151.67 17.47 154.7 17.47 157.73 14.56 157.73 11.65 157.73 8.73 157.73 8.73 154.7 8.73 151.67 5.82 151.67 5.82 148.63 2.91 148.63 2.91 151.67 2.91 154.7 5.82 154.7 5.82 157.73 5.82 160.76 5.82 163.8 8.73 163.8 8.73 160.76 11.65 160.76"/>
        <polygon class="cls-1" points="8.73 139.53 11.65 139.53 14.56 139.53 17.47 139.53 20.38 139.53 23.29 139.53 23.29 136.5 20.38 136.5 17.47 136.5 14.56 136.5 11.65 136.5 8.73 136.5 5.82 136.5 2.91 136.5 2.91 139.53 5.82 139.53 8.73 139.53"/>
        <rect class="cls-1" x="0" y="136.5" width="2.91" height="3.03"/>
        <polygon class="cls-1" points="2.91 142.57 2.91 139.53 0 139.53 0 142.57 0 145.6 0 148.63 2.91 148.63 2.91 145.6 2.91 142.57"/>
        <polygon class="cls-1" points="2.91 148.63 0 148.63 0 151.67 0 154.7 2.91 154.7 2.91 151.67 2.91 148.63"/>
        <polygon class="cls-1" points="0 157.73 0 160.76 0 163.8 2.91 163.8 2.91 160.76 2.91 157.73 2.91 154.7 0 154.7 0 157.73"/>
      </g>
      <g>
        <rect class="cls-1" x="23.29" y="163.8" width="2.91" height="3.03"/>
        <polygon class="cls-1" points="23.29 172.9 23.29 175.93 26.2 175.93 26.2 172.9 26.2 169.87 26.2 166.83 23.29 166.83 23.29 169.87 23.29 172.9"/>
        <polygon class="cls-1" points="23.29 182 26.2 182 26.2 178.96 26.2 175.93 23.29 175.93 23.29 178.96 23.29 182"/>
        <polygon class="cls-1" points="23.29 188.06 23.29 191.1 26.2 191.1 26.2 188.06 26.2 185.03 26.2 182 23.29 182 23.29 185.03 23.29 188.06"/>
        <polygon class="cls-1" points="17.47 188.06 14.56 188.06 11.65 188.06 8.73 188.06 8.73 191.1 11.65 191.1 14.56 191.1 17.47 191.1 17.47 188.06"/>
        <polygon class="cls-1" points="14.56 172.9 11.65 172.9 11.65 175.93 11.65 175.93 11.65 178.96 11.65 182 14.56 182 14.56 178.96 14.56 175.93 14.56 175.93 14.56 172.9"/>
        <polygon class="cls-1" points="11.65 175.93 11.65 172.9 14.56 172.9 14.56 175.93 17.47 175.93 17.47 172.9 20.38 172.9 20.38 169.87 17.47 169.87 14.56 169.87 11.65 169.87 8.73 169.87 5.82 169.87 5.82 172.9 8.73 172.9 8.73 175.93 11.65 175.93"/>
        <polygon class="cls-1" points="11.65 188.06 14.56 188.06 17.47 188.06 17.47 191.1 20.38 191.1 20.38 188.06 20.38 185.03 20.38 182 23.29 182 23.29 178.96 23.29 175.93 20.38 175.93 20.38 178.96 17.47 178.96 17.47 182 17.47 185.03 14.56 185.03 11.65 185.03 8.73 185.03 8.73 182 8.73 178.96 5.82 178.96 5.82 175.93 2.91 175.93 2.91 178.96 2.91 182 5.82 182 5.82 185.03 5.82 188.06 5.82 191.1 8.73 191.1 8.73 188.06 11.65 188.06"/>
        <polygon class="cls-1" points="8.73 166.83 11.65 166.83 14.56 166.83 17.47 166.83 20.38 166.83 23.29 166.83 23.29 163.8 20.38 163.8 17.47 163.8 14.56 163.8 11.65 163.8 8.73 163.8 5.82 163.8 2.91 163.8 2.91 166.83 5.82 166.83 8.73 166.83"/>
        <rect class="cls-1" x="0" y="163.8" width="2.91" height="3.03"/>
        <polygon class="cls-1" points="2.91 169.87 2.91 166.83 0 166.83 0 169.87 0 172.9 0 175.93 2.91 175.93 2.91 172.9 2.91 169.87"/>
        <polygon class="cls-1" points="2.91 175.93 0 175.93 0 178.96 0 182 2.91 182 2.91 178.96 2.91 175.93"/>
        <polygon class="cls-1" points="0 185.03 0 188.06 0 191.1 2.91 191.1 2.91 188.06 2.91 185.03 2.91 182 0 182 0 185.03"/>
      </g>
      <g>
        <rect class="cls-1" x="23.29" y="191.1" width="2.91" height="3.03"/>
        <polygon class="cls-1" points="23.29 200.2 23.29 203.23 26.2 203.23 26.2 200.2 26.2 197.17 26.2 194.13 23.29 194.13 23.29 197.17 23.29 200.2"/>
        <polygon class="cls-1" points="23.29 209.3 26.2 209.3 26.2 206.26 26.2 203.23 23.29 203.23 23.29 206.26 23.29 209.3"/>
        <polygon class="cls-1" points="23.29 215.36 23.29 218.4 26.2 218.4 26.2 215.36 26.2 212.33 26.2 209.3 23.29 209.3 23.29 212.33 23.29 215.36"/>
        <polygon class="cls-1" points="17.47 215.36 14.56 215.36 11.65 215.36 8.73 215.36 8.73 218.4 11.65 218.4 14.56 218.4 17.47 218.4 17.47 215.36"/>
        <polygon class="cls-1" points="14.56 200.2 11.65 200.2 11.65 203.23 11.65 203.23 11.65 206.26 11.65 209.3 14.56 209.3 14.56 206.26 14.56 203.23 14.56 203.23 14.56 200.2"/>
        <polygon class="cls-1" points="11.65 203.23 11.65 200.2 14.56 200.2 14.56 203.23 17.47 203.23 17.47 200.2 20.38 200.2 20.38 197.17 17.47 197.17 14.56 197.17 11.65 197.17 8.73 197.17 5.82 197.17 5.82 200.2 8.73 200.2 8.73 203.23 11.65 203.23"/>
        <polygon class="cls-1" points="11.65 215.36 14.56 215.36 17.47 215.36 17.47 218.4 20.38 218.4 20.38 215.36 20.38 212.33 20.38 209.3 23.29 209.3 23.29 206.26 23.29 203.23 20.38 203.23 20.38 206.26 17.47 206.26 17.47 209.3 17.47 212.33 14.56 212.33 11.65 212.33 8.73 212.33 8.73 209.3 8.73 206.26 5.82 206.26 5.82 203.23 2.91 203.23 2.91 206.26 2.91 209.3 5.82 209.3 5.82 212.33 5.82 215.36 5.82 218.4 8.73 218.4 8.73 215.36 11.65 215.36"/>
        <polygon class="cls-1" points="8.73 194.13 11.65 194.13 14.56 194.13 17.47 194.13 20.38 194.13 23.29 194.13 23.29 191.1 20.38 191.1 17.47 191.1 14.56 191.1 11.65 191.1 8.73 191.1 5.82 191.1 2.91 191.1 2.91 194.13 5.82 194.13 8.73 194.13"/>
        <rect class="cls-1" x="0" y="191.1" width="2.91" height="3.03"/>
        <polygon class="cls-1" points="2.91 197.17 2.91 194.13 0 194.13 0 197.17 0 200.2 0 203.23 2.91 203.23 2.91 200.2 2.91 197.17"/>
        <polygon class="cls-1" points="2.91 203.23 0 203.23 0 206.26 0 209.3 2.91 209.3 2.91 206.26 2.91 203.23"/>
        <polygon class="cls-1" points="0 212.33 0 215.36 0 218.4 2.91 218.4 2.91 215.36 2.91 212.33 2.91 209.3 0 209.3 0 212.33"/>
      </g>
      <g>
        <rect class="cls-1" x="23.29" y="218.4" width="2.91" height="3.03"/>
        <polygon class="cls-1" points="23.29 227.5 23.29 230.53 26.2 230.53 26.2 227.5 26.2 224.46 26.2 221.43 23.29 221.43 23.29 224.46 23.29 227.5"/>
        <polygon class="cls-1" points="23.29 236.6 26.2 236.6 26.2 233.56 26.2 230.53 23.29 230.53 23.29 233.56 23.29 236.6"/>
        <polygon class="cls-1" points="23.29 242.66 23.29 245.7 26.2 245.7 26.2 242.66 26.2 239.63 26.2 236.6 23.29 236.6 23.29 239.63 23.29 242.66"/>
        <polygon class="cls-1" points="17.47 242.66 14.56 242.66 11.65 242.66 8.73 242.66 8.73 245.7 11.65 245.7 14.56 245.7 17.47 245.7 17.47 242.66"/>
        <polygon class="cls-1" points="14.56 227.5 11.65 227.5 11.65 230.53 11.65 230.53 11.65 233.56 11.65 236.6 14.56 236.6 14.56 233.56 14.56 230.53 14.56 230.53 14.56 227.5"/>
        <polygon class="cls-1" points="11.65 230.53 11.65 227.5 14.56 227.5 14.56 230.53 17.47 230.53 17.47 227.5 20.38 227.5 20.38 224.46 17.47 224.46 14.56 224.46 11.65 224.46 8.73 224.46 5.82 224.46 5.82 227.5 8.73 227.5 8.73 230.53 11.65 230.53"/>
        <polygon class="cls-1" points="11.65 242.66 14.56 242.66 17.47 242.66 17.47 245.7 20.38 245.7 20.38 242.66 20.38 239.63 20.38 236.6 23.29 236.6 23.29 233.56 23.29 230.53 20.38 230.53 20.38 233.56 17.47 233.56 17.47 236.6 17.47 239.63 14.56 239.63 11.65 239.63 8.73 239.63 8.73 236.6 8.73 233.56 5.82 233.56 5.82 230.53 2.91 230.53 2.91 233.56 2.91 236.6 5.82 236.6 5.82 239.63 5.82 242.66 5.82 245.7 8.73 245.7 8.73 242.66 11.65 242.66"/>
        <polygon class="cls-1" points="8.73 221.43 11.65 221.43 14.56 221.43 17.47 221.43 20.38 221.43 23.29 221.43 23.29 218.4 20.38 218.4 17.47 218.4 14.56 218.4 11.65 218.4 8.73 218.4 5.82 218.4 2.91 218.4 2.91 221.43 5.82 221.43 8.73 221.43"/>
        <rect class="cls-1" x="0" y="218.4" width="2.91" height="3.03"/>
        <polygon class="cls-1" points="2.91 224.46 2.91 221.43 0 221.43 0 224.46 0 227.5 0 230.53 2.91 230.53 2.91 227.5 2.91 224.46"/>
        <polygon class="cls-1" points="2.91 230.53 0 230.53 0 233.56 0 236.6 2.91 236.6 2.91 233.56 2.91 230.53"/>
        <polygon class="cls-1" points="0 239.63 0 242.66 0 245.7 2.91 245.7 2.91 242.66 2.91 239.63 2.91 236.6 0 236.6 0 239.63"/>
      </g>
      <g>
        <rect class="cls-1" x="23.29" y="245.7" width="2.91" height="3.03"/>
        <polygon class="cls-1" points="23.29 254.8 23.29 257.83 26.2 257.83 26.2 254.8 26.2 251.76 26.2 248.73 23.29 248.73 23.29 251.76 23.29 254.8"/>
        <polygon class="cls-1" points="23.29 263.9 26.2 263.9 26.2 260.86 26.2 257.83 23.29 257.83 23.29 260.86 23.29 263.9"/>
        <polygon class="cls-1" points="23.29 269.96 23.29 273 26.2 273 26.2 269.96 26.2 266.93 26.2 263.9 23.29 263.9 23.29 266.93 23.29 269.96"/>
        <polygon class="cls-1" points="17.47 269.96 14.56 269.96 11.65 269.96 8.73 269.96 8.73 273 11.65 273 14.56 273 17.47 273 17.47 269.96"/>
        <polygon class="cls-1" points="14.56 254.8 11.65 254.8 11.65 257.83 11.65 257.83 11.65 260.86 11.65 263.9 14.56 263.9 14.56 260.86 14.56 257.83 14.56 257.83 14.56 254.8"/>
        <polygon class="cls-1" points="11.65 257.83 11.65 254.8 14.56 254.8 14.56 257.83 17.47 257.83 17.47 254.8 20.38 254.8 20.38 251.76 17.47 251.76 14.56 251.76 11.65 251.76 8.73 251.76 5.82 251.76 5.82 254.8 8.73 254.8 8.73 257.83 11.65 257.83"/>
        <polygon class="cls-1" points="11.65 269.96 14.56 269.96 17.47 269.96 17.47 273 20.38 273 20.38 269.96 20.38 266.93 20.38 263.9 23.29 263.9 23.29 260.86 23.29 257.83 20.38 257.83 20.38 260.86 17.47 260.86 17.47 263.9 17.47 266.93 14.56 266.93 11.65 266.93 8.73 266.93 8.73 263.9 8.73 260.86 5.82 260.86 5.82 257.83 2.91 257.83 2.91 260.86 2.91 263.9 5.82 263.9 5.82 266.93 5.82 269.96 5.82 273 8.73 273 8.73 269.96 11.65 269.96"/>
        <polygon class="cls-1" points="8.73 248.73 11.65 248.73 14.56 248.73 17.47 248.73 20.38 248.73 23.29 248.73 23.29 245.7 20.38 245.7 17.47 245.7 14.56 245.7 11.65 245.7 8.73 245.7 5.82 245.7 2.91 245.7 2.91 248.73 5.82 248.73 8.73 248.73"/>
        <rect class="cls-1" x="0" y="245.7" width="2.91" height="3.03"/>
        <polygon class="cls-1" points="2.91 251.76 2.91 248.73 0 248.73 0 251.76 0 254.8 0 257.83 2.91 257.83 2.91 254.8 2.91 251.76"/>
        <polygon class="cls-1" points="2.91 257.83 0 257.83 0 260.86 0 263.9 2.91 263.9 2.91 260.86 2.91 257.83"/>
        <polygon class="cls-1" points="0 266.93 0 269.96 0 273 2.91 273 2.91 269.96 2.91 266.93 2.91 263.9 0 263.9 0 266.93"/>
      </g>
    </g>
  </g>
</svg>