<svg version="1.1" id="Layer_1" xmlns="http://www.w3.org/2000/svg" xmlns:xlink="http://www.w3.org/1999/xlink" x="0px" y="0px"
	 width="100%" viewBox="0 0 521 134" xml:space="preserve">
<path fill="#000000" style="fill-opacity: 0;" stroke="none" 
	d="
M522.000000,97.000000 
	C522.000000,109.656105 522.000000,122.312218 522.000000,135.000000 
	C359.979095,135.000000 197.958206,135.000000 35.106148,134.768997 
	C34.710785,134.065063 35.063850,133.451508 35.594280,133.139374 
	C60.586979,118.432358 85.665901,103.870369 110.576714,89.026222 
	C127.439537,78.977806 126.683044,55.976734 110.460106,46.197327 
	C102.381157,41.327229 94.115334,36.768284 85.983398,31.984694 
	C69.573059,22.331367 53.190983,12.629908 36.832890,2.888458 
	C36.351212,2.601614 36.268650,1.644564 36.000000,1.000000 
	C198.000000,1.000000 360.000000,1.000000 522.000000,1.000000 
	C522.000000,16.421169 522.000000,31.741926 521.722534,47.871090 
	C520.995911,48.215088 520.305420,47.825584 520.134460,47.274811 
	C518.134033,40.829723 514.984497,38.080677 508.735352,38.031761 
	C495.576691,37.928761 482.415985,38.076012 469.257782,37.947060 
	C465.958862,37.914726 464.928772,39.141243 464.949432,42.348969 
	C465.057953,59.172367 465.027802,75.996910 464.984436,92.820900 
	C464.969940,98.437309 469.018616,97.935928 472.605194,97.963120 
	C476.295288,97.991112 480.173492,98.139709 480.028168,92.592087 
	C479.894653,87.494499 479.999817,82.390656 479.999817,77.750931 
	C489.338501,74.955750 495.733307,77.571335 499.570709,86.023445 
	C500.500092,88.070496 502.307587,89.725494 503.196289,91.783211 
	C506.110077,98.529808 511.818420,98.359322 517.662109,97.910080 
	C519.122742,97.797783 520.554810,97.313385 522.000000,97.000000 
M219.165970,95.656242 
	C223.658646,96.436493 228.144974,97.822311 232.645355,97.869637 
	C241.731110,97.965172 250.826813,97.385834 259.914032,96.984993 
	C267.080414,96.668884 270.790497,93.813034 271.885956,86.557465 
	C272.814789,80.405479 272.946442,74.081810 272.761414,67.853996 
	C272.721954,66.525429 269.926514,64.458900 268.166931,64.173386 
	C264.596344,63.593998 260.865936,63.998688 257.201385,63.999172 
	C249.737015,64.000153 249.986557,64.002678 249.923203,71.390831 
	C249.870255,77.566200 254.742889,75.295700 257.620026,76.289223 
	C258.332672,83.109055 256.772858,84.980705 250.482407,84.996613 
	C244.985626,85.010506 239.488678,84.976700 233.992035,85.006264 
	C229.952576,85.027985 227.938629,83.185692 227.979294,79.028877 
	C228.054291,71.367393 228.053207,63.704140 227.977539,56.042675 
	C227.942169,52.461575 229.585922,50.933903 233.110458,50.979851 
	C239.105957,51.058022 245.104950,51.087708 251.099060,50.967239 
	C254.542648,50.898033 256.829468,51.681660 257.166748,55.724854 
	C257.263519,56.884758 259.002838,58.836281 259.983215,58.832668 
	C264.171814,58.817226 268.360229,58.224041 272.539001,57.754967 
	C272.731415,57.733376 272.934204,56.880383 272.956726,56.406281 
	C273.405212,46.961784 270.197083,38.564816 258.676788,38.094479 
	C247.867752,37.653183 237.025284,37.898705 226.199966,38.035065 
	C218.746216,38.128956 213.633575,42.448761 213.102432,49.904743 
	C212.350906,60.454525 211.864029,71.073235 212.222870,81.629890 
	C212.390198,86.552513 212.814911,92.373154 219.165970,95.656242 
M176.500061,37.999615 
	C170.501816,37.999672 164.495239,38.192093 158.508270,37.932190 
	C154.512894,37.758743 152.853180,38.850376 152.912003,43.211548 
	C153.132233,59.537025 153.129837,75.869026 152.907104,92.194435 
	C152.852921,96.166336 154.718018,97.872437 158.010986,97.914391 
	C171.671341,98.088394 185.337204,98.121902 198.996597,97.913734 
	C203.521866,97.844772 204.262970,95.656265 204.078384,88.696922 
	C203.964096,84.388084 201.229141,85.004944 198.600449,85.002930 
	C188.498718,84.995163 178.396988,84.999786 168.339813,84.999786 
	C168.339813,80.673943 168.339813,76.948929 168.339813,73.000351 
	C176.825241,73.000351 184.972656,73.006393 193.120071,72.998390 
	C199.353058,72.992264 199.625992,72.377312 200.103485,66.736153 
	C200.559570,61.348232 197.933060,60.796738 193.588425,60.926208 
	C185.158432,61.177418 176.715652,60.999691 168.342255,60.999691 
	C168.342255,57.333721 168.342255,54.276661 168.342255,50.999973 
	C177.330261,50.999973 185.977798,51.000389 194.625336,50.999859 
	C203.197128,50.999332 203.051254,50.998577 203.070587,42.593933 
	C203.078491,39.160858 202.045288,37.828018 198.491821,37.937054 
	C191.500504,38.151573 184.497940,37.999836 176.500061,37.999615 
M426.523804,83.998474 
	C424.859161,83.998528 423.194550,83.999321 421.529907,83.998528 
	C414.158630,83.994987 414.002747,83.839722 414.001160,76.387291 
	C413.998840,65.400803 413.936584,54.413738 414.035553,43.428143 
	C414.069153,39.699184 412.628479,37.804653 408.783478,37.988682 
	C407.454834,38.052273 406.120575,37.994987 404.788879,37.998703 
	C399.209930,38.014259 398.196747,38.928722 398.098877,44.583408 
	C397.998077,50.407841 397.959900,56.238220 398.103607,62.060829 
	C398.299408,69.992943 398.557983,77.928528 399.046295,85.846786 
	C399.424866,91.985527 404.413666,96.847542 410.584930,96.949928 
	C421.599091,97.132660 432.625122,97.237045 443.633362,96.923523 
	C451.520966,96.698883 455.985535,91.496162 455.997070,83.469368 
	C456.014526,71.317665 456.035339,59.165806 455.991608,47.014244 
	C455.954987,36.838566 457.224426,38.280922 446.935760,37.907200 
	C442.381042,37.741749 440.763641,39.046341 440.898773,43.773125 
	C441.212616,54.750641 440.927979,65.743896 441.029297,76.729454 
	C441.077850,81.994278 439.684143,84.794327 433.986572,84.043961 
	C431.859467,83.763824 429.664551,83.998528 426.523804,83.998474 
M305.877197,37.999069 
	C302.510864,37.408894 300.722473,39.196144 299.445862,42.047455 
	C294.734589,52.570023 289.924438,63.048279 285.200928,73.565422 
	C282.611755,79.330299 280.127594,85.142265 277.584412,90.927879 
	C276.305237,93.837975 275.702087,96.546562 279.711273,97.774757 
	C286.793579,99.944389 291.671143,97.640587 293.893921,90.597740 
	C294.811981,87.688858 296.162231,86.834473 299.086609,86.931839 
	C305.566284,87.147568 312.060577,87.105499 318.543823,86.952560 
	C321.639343,86.879539 323.498474,87.270218 324.680298,90.897888 
	C326.911530,97.746902 333.168976,100.162788 339.874725,97.530853 
	C342.169678,96.630112 343.738342,95.725464 342.221741,92.439529 
	C335.346161,77.542374 328.067780,62.759026 322.454102,47.379986 
	C319.349670,38.875240 314.639343,36.734512 305.877197,37.999069 
M388.019714,38.071098 
	C372.197235,38.047291 356.373444,38.128139 340.553070,37.933670 
	C336.013245,37.877872 333.766449,39.144405 333.927887,44.108540 
	C334.149994,50.936455 334.668396,51.896557 340.431824,51.984631 
	C345.195221,52.057426 349.960571,51.999508 355.002014,51.999508 
	C355.002014,67.232361 355.002014,81.847740 355.002014,96.801514 
	C357.585052,97.222946 359.948639,97.888885 362.326172,97.943306 
	C369.138611,98.099197 369.997772,97.148026 369.999390,90.328835 
	C370.001648,80.668358 369.999969,71.007874 370.000000,61.347397 
	C370.000031,58.268959 370.000000,55.190521 370.000000,51.997540 
	C375.604462,51.997540 380.450775,52.239441 385.248535,51.862785 
	C386.868774,51.735580 389.607758,50.135056 389.690277,49.045403 
	C389.955017,45.550076 389.216400,41.978760 388.019714,38.071098 
z"/>
<path fill="#ffffff" opacity="1.000000" stroke="none" 
	d="
M35.531601,1.000000 
	C36.268650,1.644564 36.351212,2.601614 36.832890,2.888458 
	C53.190983,12.629908 69.573059,22.331367 85.983398,31.984694 
	C94.115334,36.768284 102.381157,41.327229 110.460106,46.197327 
	C126.683044,55.976734 127.439537,78.977806 110.576714,89.026222 
	C85.665901,103.870369 60.586979,118.432358 35.594280,133.139374 
	C35.063850,133.451508 34.710785,134.065063 34.637489,134.768997 
	C29.645071,135.000000 24.290140,135.000000 18.805931,134.741272 
	C11.180936,130.592590 4.691757,125.769249 2.362137,117.030228 
	C2.329502,116.907814 1.472337,117.005196 1.000000,117.000000 
	C1.000000,112.643097 1.000000,108.286201 1.266405,103.804031 
	C3.834490,99.803703 6.258948,95.995529 8.413742,92.040428 
	C13.848075,82.065796 17.424534,71.463387 13.840820,60.226273 
	C10.905348,51.021782 6.541933,42.271168 2.730655,33.353916 
	C2.598915,33.045685 1.596564,33.109558 1.000000,33.000000 
	C1.000000,28.310745 1.000000,23.621489 1.266693,18.805178 
	C4.648994,11.491035 9.435719,5.793894 16.357809,1.977785 
	C16.404140,1.952242 16.126410,1.338881 16.000000,1.000000 
	C22.354399,1.000000 28.708796,1.000000 35.531601,1.000000 
M52.861061,41.355095 
	C47.103756,38.912159 42.564304,39.732998 38.542809,43.944164 
	C34.977989,47.677124 34.665043,51.566563 38.858360,58.299770 
	C43.461273,65.690674 42.397297,72.309174 38.298435,79.355820 
	C37.094280,81.425964 36.469872,84.679619 37.183907,86.867271 
	C39.760384,94.761032 46.865883,97.145554 54.088814,92.968605 
	C63.244965,87.673706 72.273438,82.154015 81.496475,76.979935 
	C90.008522,72.204697 89.672340,63.528084 81.831238,58.928841 
	C72.312263,53.345421 62.902958,47.575047 52.861061,41.355095 
z"/>
<path fill="#ffffff" opacity="1.000000" stroke="none" 
	d="
M522.000000,96.583344 
	C520.554810,97.313385 519.122742,97.797783 517.662109,97.910080 
	C511.818420,98.359322 506.110077,98.529808 503.196289,91.783211 
	C502.307587,89.725494 500.500092,88.070496 499.570709,86.023445 
	C495.733307,77.571335 489.338501,74.955750 479.999817,77.750931 
	C479.999817,82.390656 479.894653,87.494499 480.028168,92.592087 
	C480.173492,98.139709 476.295288,97.991112 472.605194,97.963120 
	C469.018616,97.935928 464.969940,98.437309 464.984436,92.820900 
	C465.027802,75.996910 465.057953,59.172367 464.949432,42.348969 
	C464.928772,39.141243 465.958862,37.914726 469.257782,37.947060 
	C482.415985,38.076012 495.576691,37.928761 508.735352,38.031761 
	C514.984497,38.080677 518.134033,40.829723 520.134460,47.274811 
	C520.305420,47.825584 520.995911,48.215088 521.722534,48.339748 
	C522.000000,53.688042 522.000000,59.376083 521.720703,65.192223 
	C519.224792,70.549644 516.691345,75.465729 509.737793,76.172607 
	C513.471680,81.701721 516.816101,86.701973 520.250610,91.639572 
	C520.497070,91.993904 521.401489,91.890549 522.000000,92.000000 
	C522.000000,93.388893 522.000000,94.777779 522.000000,96.583344 
M491.486572,65.999985 
	C494.139465,65.999855 496.815491,65.778091 499.439697,66.052422 
	C503.216858,66.447289 505.267975,64.229553 505.708862,61.228416 
	C506.143585,58.268791 505.453766,55.075150 504.830383,52.072815 
	C504.654144,51.224091 502.994049,50.119900 501.991943,50.096443 
	C494.762817,49.927269 487.527893,50.005768 480.314331,50.005768 
	C480.314331,55.643421 480.314331,60.684120 480.314331,65.999985 
	C483.916595,65.999985 487.210876,65.999985 491.486572,65.999985 
z"/>
<path fill="#000000" style="fill-opacity: 0;" stroke="none" 
	d="
M1.000000,33.468658 
	C1.596564,33.109558 2.598915,33.045685 2.730655,33.353916 
	C6.541933,42.271168 10.905348,51.021782 13.840820,60.226273 
	C17.424534,71.463387 13.848075,82.065796 8.413742,92.040428 
	C6.258948,95.995529 3.834490,99.803703 1.266405,103.339386 
	C1.000000,79.979103 1.000000,56.958210 1.000000,33.468658 
z"/>
<path fill="#000000" style="fill-opacity: 0;" stroke="none" 
	d="
M522.000000,91.531357 
	C521.401489,91.890549 520.497070,91.993904 520.250610,91.639572 
	C516.816101,86.701973 513.471680,81.701721 509.737793,76.172607 
	C516.691345,75.465729 519.224792,70.549644 521.720703,65.660156 
	C522.000000,74.354233 522.000000,82.708466 522.000000,91.531357 
z"/>
<path fill="#000000" style="fill-opacity: 0;" stroke="none" 
	d="
M1.000000,117.469704 
	C1.472337,117.005196 2.329502,116.907814 2.362137,117.030228 
	C4.691757,125.769249 11.180936,130.592590 18.338326,134.741272 
	C12.405508,135.000000 6.811016,135.000000 1.000000,135.000000 
	C1.000000,129.314407 1.000000,123.626907 1.000000,117.469704 
z"/>
<path fill="#000000" style="fill-opacity: 0;" stroke="none" 
	d="
M15.527336,1.000000 
	C16.126410,1.338881 16.404140,1.952242 16.357809,1.977785 
	C9.435719,5.793894 4.648994,11.491035 1.266693,18.339062 
	C1.000000,12.413444 1.000000,6.826888 1.000000,1.000000 
	C5.682189,1.000000 10.368431,1.000000 15.527336,1.000000 
z"/>
<path fill="#ffffff" opacity="1.000000" stroke="none"  
 
	d="
M218.881592,95.383896 
	C212.814911,92.373154 212.390198,86.552513 212.222870,81.629890 
	C211.864029,71.073235 212.350906,60.454525 213.102432,49.904743 
	C213.633575,42.448761 218.746216,38.128956 226.199966,38.035065 
	C237.025284,37.898705 247.867752,37.653183 258.676788,38.094479 
	C270.197083,38.564816 273.405212,46.961784 272.956726,56.406281 
	C272.934204,56.880383 272.731415,57.733376 272.539001,57.754967 
	C268.360229,58.224041 264.171814,58.817226 259.983215,58.832668 
	C259.002838,58.836281 257.263519,56.884758 257.166748,55.724854 
	C256.829468,51.681660 254.542648,50.898033 251.099060,50.967239 
	C245.104950,51.087708 239.105957,51.058022 233.110458,50.979851 
	C229.585922,50.933903 227.942169,52.461575 227.977539,56.042675 
	C228.053207,63.704140 228.054291,71.367393 227.979294,79.028877 
	C227.938629,83.185692 229.952576,85.027985 233.992035,85.006264 
	C239.488678,84.976700 244.985626,85.010506 250.482407,84.996613 
	C256.772858,84.980705 258.332672,83.109055 257.620026,76.289223 
	C254.742889,75.295700 249.870255,77.566200 249.923203,71.390831 
	C249.986557,64.002678 249.737015,64.000153 257.201385,63.999172 
	C260.865936,63.998688 264.596344,63.593998 268.166931,64.173386 
	C269.926514,64.458900 272.721954,66.525429 272.761414,67.853996 
	C272.946442,74.081810 272.814789,80.405479 271.885956,86.557465 
	C270.790497,93.813034 267.080414,96.668884 259.914032,96.984993 
	C250.826813,97.385834 241.731110,97.965172 232.645355,97.869637 
	C228.144974,97.822311 223.658646,96.436493 218.881592,95.383896 
z"/>
<path fill="#ffffff" opacity="1.000000" stroke="none"  

	d="
M177.000046,37.999615 
	C184.497940,37.999836 191.500504,38.151573 198.491821,37.937054 
	C202.045288,37.828018 203.078491,39.160858 203.070587,42.593933 
	C203.051254,50.998577 203.197128,50.999332 194.625336,50.999859 
	C185.977798,51.000389 177.330261,50.999973 168.342255,50.999973 
	C168.342255,54.276661 168.342255,57.333721 168.342255,60.999691 
	C176.715652,60.999691 185.158432,61.177418 193.588425,60.926208 
	C197.933060,60.796738 200.559570,61.348232 200.103485,66.736153 
	C199.625992,72.377312 199.353058,72.992264 193.120071,72.998390 
	C184.972656,73.006393 176.825241,73.000351 168.339813,73.000351 
	C168.339813,76.948929 168.339813,80.673943 168.339813,84.999786 
	C178.396988,84.999786 188.498718,84.995163 198.600449,85.002930 
	C201.229141,85.004944 203.964096,84.388084 204.078384,88.696922 
	C204.262970,95.656265 203.521866,97.844772 198.996597,97.913734 
	C185.337204,98.121902 171.671341,98.088394 158.010986,97.914391 
	C154.718018,97.872437 152.852921,96.166336 152.907104,92.194435 
	C153.129837,75.869026 153.132233,59.537025 152.912003,43.211548 
	C152.853180,38.850376 154.512894,37.758743 158.508270,37.932190 
	C164.495239,38.192093 170.501816,37.999672 177.000046,37.999615 
z"/>
<path fill="#ffffff" opacity="1.000000" stroke="none"  

	d="
M427.012177,83.998474 
	C429.664551,83.998528 431.859467,83.763824 433.986572,84.043961 
	C439.684143,84.794327 441.077850,81.994278 441.029297,76.729454 
	C440.927979,65.743896 441.212616,54.750641 440.898773,43.773125 
	C440.763641,39.046341 442.381042,37.741749 446.935760,37.907200 
	C457.224426,38.280922 455.954987,36.838566 455.991608,47.014244 
	C456.035339,59.165806 456.014526,71.317665 455.997070,83.469368 
	C455.985535,91.496162 451.520966,96.698883 443.633362,96.923523 
	C432.625122,97.237045 421.599091,97.132660 410.584930,96.949928 
	C404.413666,96.847542 399.424866,91.985527 399.046295,85.846786 
	C398.557983,77.928528 398.299408,69.992943 398.103607,62.060829 
	C397.959900,56.238220 397.998077,50.407841 398.098877,44.583408 
	C398.196747,38.928722 399.209930,38.014259 404.788879,37.998703 
	C406.120575,37.994987 407.454834,38.052273 408.783478,37.988682 
	C412.628479,37.804653 414.069153,39.699184 414.035553,43.428143 
	C413.936584,54.413738 413.998840,65.400803 414.001160,76.387291 
	C414.002747,83.839722 414.158630,83.994987 421.529907,83.998528 
	C423.194550,83.999321 424.859161,83.998528 427.012177,83.998474 
z"/>
<path fill="#ffffff" opacity="1.000000" stroke="none"  

	d="
M306.329407,37.999016 
	C314.639343,36.734512 319.349670,38.875240 322.454102,47.379986 
	C328.067780,62.759026 335.346161,77.542374 342.221741,92.439529 
	C343.738342,95.725464 342.169678,96.630112 339.874725,97.530853 
	C333.168976,100.162788 326.911530,97.746902 324.680298,90.897888 
	C323.498474,87.270218 321.639343,86.879539 318.543823,86.952560 
	C312.060577,87.105499 305.566284,87.147568 299.086609,86.931839 
	C296.162231,86.834473 294.811981,87.688858 293.893921,90.597740 
	C291.671143,97.640587 286.793579,99.944389 279.711273,97.774757 
	C275.702087,96.546562 276.305237,93.837975 277.584412,90.927879 
	C280.127594,85.142265 282.611755,79.330299 285.200928,73.565422 
	C289.924438,63.048279 294.734589,52.570023 299.445862,42.047455 
	C300.722473,39.196144 302.510864,37.408894 306.329407,37.999016 
M311.374878,74.998924 
	C313.480408,74.998924 315.585968,74.998924 318.211823,74.998924 
	C315.178345,67.425789 312.356842,60.381798 309.208282,52.521301 
	C306.063263,60.393059 303.217712,67.515343 300.227783,74.998924 
	C303.890106,74.998924 307.161011,74.998924 311.374878,74.998924 
z"/>
<path fill="#ffffff" opacity="1.000000" stroke="none" 

	d="
M388.442322,38.253929 
	C389.216400,41.978760 389.955017,45.550076 389.690277,49.045403 
	C389.607758,50.135056 386.868774,51.735580 385.248535,51.862785 
	C380.450775,52.239441 375.604462,51.997540 370.000000,51.997540 
	C370.000000,55.190521 370.000031,58.268959 370.000000,61.347397 
	C369.999969,71.007874 370.001648,80.668358 369.999390,90.328835 
	C369.997772,97.148026 369.138611,98.099197 362.326172,97.943306 
	C359.948639,97.888885 357.585052,97.222946 355.002014,96.801514 
	C355.002014,81.847740 355.002014,67.232361 355.002014,51.999508 
	C349.960571,51.999508 345.195221,52.057426 340.431824,51.984631 
	C334.668396,51.896557 334.149994,50.936455 333.927887,44.108540 
	C333.766449,39.144405 336.013245,37.877872 340.553070,37.933670 
	C356.373444,38.128139 372.197235,38.047291 388.442322,38.253929 
z"/>
<path fill="#000000" style="fill-opacity: 0;" stroke="none" 
	d="
M53.153633,41.620331 
	C62.902958,47.575047 72.312263,53.345421 81.831238,58.928841 
	C89.672340,63.528084 90.008522,72.204697 81.496475,76.979935 
	C72.273438,82.154015 63.244965,87.673706 54.088814,92.968605 
	C46.865883,97.145554 39.760384,94.761032 37.183907,86.867271 
	C36.469872,84.679619 37.094280,81.425964 38.298435,79.355820 
	C42.397297,72.309174 43.461273,65.690674 38.858360,58.299770 
	C34.665043,51.566563 34.977989,47.677124 38.542809,43.944164 
	C42.564304,39.732998 47.103756,38.912159 53.153633,41.620331 
z"/>
<path fill="#000000" style="fill-opacity: 0;" stroke="none" 
	d="
M490.995850,65.999985 
	C487.210876,65.999985 483.916595,65.999985 480.314331,65.999985 
	C480.314331,60.684120 480.314331,55.643421 480.314331,50.005768 
	C487.527893,50.005768 494.762817,49.927269 501.991943,50.096443 
	C502.994049,50.119900 504.654144,51.224091 504.830383,52.072815 
	C505.453766,55.075150 506.143585,58.268791 505.708862,61.228416 
	C505.267975,64.229553 503.216858,66.447289 499.439697,66.052422 
	C496.815491,65.778091 494.139465,65.999855 490.995850,65.999985 
z"/>
<path fill="#000000" style="fill-opacity: 0;" stroke="none" 
	d="
M310.903381,74.998924 
	C307.161011,74.998924 303.890106,74.998924 300.227783,74.998924 
	C303.217712,67.515343 306.063263,60.393059 309.208282,52.521301 
	C312.356842,60.381798 315.178345,67.425789 318.211823,74.998924 
	C315.585968,74.998924 313.480408,74.998924 310.903381,74.998924 
z"/>
</svg>